{"glyphs":{"0":{"ha":655,"x_min":54,"x_max":601,"o":"m 342 679 q 455 656 406 679 q 536 590 503 633 q 585 484 568 547 q 601 340 601 420 q 582 187 601 254 q 527 74 564 120 q 436 5 490 28 q 313 -19 382 -19 q 200 5 248 -19 q 119 73 152 28 q 71 181 87 117 q 54 324 54 244 q 342 679 54 679 m 319 621 q 249 599 276 621 q 207 539 222 576 q 185 454 191 503 q 180 353 180 406 q 186 239 180 295 q 211 138 193 182 q 258 66 228 94 q 336 39 289 39 q 406 62 379 39 q 449 123 433 85 q 470 210 464 161 q 475 311 475 259 q 469 425 475 369 q 445 524 462 481 q 397 594 427 568 q 319 621 366 621 z "},"1":{"ha":338,"x_min":24,"x_max":237,"o":"m 24 646 q 154 664 104 660 q 215 669 204 669 q 237 644 237 669 l 237 18 q 220 -1 237 2 q 196 -4 209 -3 q 170 -7 182 -6 q 148 -8 158 -8 q 132 -9 138 -9 q 116 8 116 -9 l 116 544 q 114 579 116 565 q 107 601 113 593 q 94 612 102 609 q 70 615 85 615 q 51 614 62 615 q 28 612 41 614 l 24 646 z "},"2":{"ha":613,"x_min":48,"x_max":542,"o":"m 79 466 q 79 491 79 470 q 81 539 80 512 q 84 592 83 566 q 87 631 85 618 q 100 646 87 641 q 188 668 138 659 q 291 678 237 678 q 394 666 350 678 q 468 633 438 654 q 512 583 497 612 q 526 519 526 553 q 504 422 526 473 q 437 319 482 372 q 322 211 392 266 q 158 99 253 155 l 399 99 q 446 104 429 99 q 475 122 464 109 q 494 155 486 134 q 511 207 502 176 l 542 204 q 541 183 542 198 q 538 149 540 168 q 536 107 537 129 q 533 65 534 85 q 530 28 531 45 q 528 4 528 12 q 521 -1 526 -1 q 446 0 475 -1 q 392 0 416 0 l 197 0 q 142 0 173 0 q 65 -1 112 -1 q 58 6 59 -1 l 49 74 q 48 82 48 77 q 50 88 48 86 q 56 92 52 90 q 209 198 145 144 q 314 306 273 253 q 374 407 355 358 q 393 496 393 456 q 385 547 393 524 q 361 586 377 570 q 322 612 345 603 q 271 621 300 621 q 166 581 207 621 q 113 463 126 541 l 79 466 z "},"3":{"ha":631,"x_min":37,"x_max":583,"o":"m 159 66 q 158 56 158 61 q 157 45 157 51 q 188 -49 157 -14 q 278 -83 218 -83 q 350 -72 318 -83 q 403 -38 381 -60 q 436 13 425 -17 q 447 81 447 43 q 430 171 447 136 q 382 227 412 206 q 311 255 352 247 q 222 262 270 262 l 205 262 l 199 313 l 211 313 q 367 351 315 313 q 418 474 418 388 q 407 540 418 512 q 378 586 397 568 q 334 612 359 604 q 278 621 309 621 q 220 612 247 621 q 172 583 193 602 q 137 535 151 564 q 116 467 122 506 l 81 471 q 82 496 81 475 q 84 543 83 517 q 87 594 85 569 q 90 634 88 620 q 103 649 91 644 q 191 670 142 662 q 296 678 241 678 q 390 670 345 678 q 472 642 436 662 q 529 587 507 621 q 550 499 550 552 q 540 439 550 469 q 510 384 530 410 q 460 337 490 358 q 392 304 431 317 l 392 301 q 423 294 404 299 q 463 278 442 288 q 506 254 484 269 q 545 217 528 239 q 572 167 562 195 q 583 101 583 138 q 571 24 583 59 q 537 -37 559 -10 q 486 -84 515 -64 q 422 -117 456 -104 q 351 -137 389 -130 q 277 -143 314 -143 q 187 -134 230 -143 q 111 -107 144 -125 q 57 -63 77 -89 q 37 -2 37 -37 q 45 29 37 16 q 65 52 52 43 q 93 65 77 61 q 126 70 109 70 q 142 69 134 70 q 159 66 151 68 z "},"4":{"ha":687,"x_min":27,"x_max":666,"o":"m 508 -111 q 492 -130 508 -127 q 467 -133 480 -132 q 441 -136 454 -135 q 419 -137 429 -137 q 404 -138 409 -138 q 387 -121 387 -138 l 387 97 l 35 95 l 27 161 q 87 252 58 209 q 143 335 115 295 q 200 413 172 375 q 259 491 229 452 q 325 571 290 530 q 399 658 359 612 q 412 665 404 663 q 458 670 435 669 q 492 672 481 672 q 508 655 508 672 l 509 172 q 592 175 554 174 q 652 176 631 176 q 662 173 657 176 q 666 162 666 170 q 666 158 666 161 q 665 150 666 155 l 662 98 l 508 98 l 508 -111 m 98 163 q 164 164 127 163 q 240 166 201 165 q 317 168 279 167 q 387 169 355 168 l 387 562 q 310 466 347 513 q 239 371 274 419 q 170 272 205 323 q 98 163 136 220 z "},"5":{"ha":645,"x_min":41,"x_max":584,"o":"m 102 291 l 116 659 q 125 670 117 669 q 143 670 134 672 q 236 652 188 660 q 336 644 285 644 q 432 654 385 644 q 521 692 479 664 l 540 673 q 432 562 501 602 q 275 523 363 523 q 170 537 225 523 l 164 359 q 227 381 203 372 q 267 395 250 390 q 296 403 283 401 q 326 405 309 405 q 438 384 390 405 q 519 326 487 362 q 568 244 551 290 q 584 147 584 197 q 565 43 584 95 q 507 -50 545 -9 q 410 -117 468 -92 q 273 -143 351 -143 q 187 -134 229 -143 q 113 -107 145 -125 q 60 -63 80 -89 q 41 -2 41 -37 q 48 29 41 16 q 68 52 56 43 q 97 65 81 60 q 130 69 113 69 q 146 68 138 69 q 162 66 154 67 q 161 56 161 60 q 161 45 161 51 q 195 -50 161 -16 q 284 -83 229 -83 q 357 -67 325 -83 q 411 -23 389 -51 q 444 41 433 4 q 456 120 456 78 q 441 203 456 166 q 400 265 427 239 q 336 303 373 290 q 253 317 298 317 q 105 289 193 317 l 102 291 z "},"6":{"ha":703,"x_min":64,"x_max":652,"o":"m 397 528 q 503 509 456 528 q 583 456 550 490 q 634 375 616 422 q 652 273 652 328 q 629 157 652 211 q 566 65 606 104 q 472 3 526 26 q 357 -19 418 -19 q 230 9 285 -19 q 138 87 175 38 q 83 200 102 136 q 64 336 64 264 q 75 451 64 394 q 108 560 86 508 q 162 657 130 612 q 238 735 195 702 q 334 786 281 768 q 450 805 387 805 q 567 789 505 805 l 558 748 q 521 753 539 751 q 486 755 503 755 q 372 731 420 755 q 289 668 323 707 q 234 575 254 628 q 205 465 214 523 q 320 511 275 494 q 397 528 366 528 m 197 370 q 201 302 197 338 q 212 229 204 265 q 234 158 220 193 q 267 98 247 124 q 313 56 286 72 q 374 41 340 41 q 439 59 411 41 q 486 107 467 78 q 515 173 505 137 q 525 244 525 210 q 511 326 525 290 q 470 388 496 363 q 407 427 444 413 q 326 440 370 440 q 199 418 273 440 q 198 406 198 412 q 197 394 197 400 l 197 370 z "},"7":{"ha":627,"x_min":37,"x_max":576,"o":"m 576 657 l 289 -106 q 280 -118 286 -115 q 265 -124 275 -121 q 233 -131 250 -128 q 199 -136 216 -134 q 170 -138 183 -138 q 152 -139 157 -139 q 144 -136 146 -139 q 141 -129 141 -133 q 145 -116 141 -123 l 476 566 l 180 566 q 133 560 151 566 q 103 541 115 554 q 84 507 92 528 q 68 454 77 486 l 37 457 q 39 507 37 477 q 42 567 40 536 q 45 623 43 597 q 49 661 47 648 q 56 666 50 666 q 131 665 101 665 q 184 665 161 665 l 570 665 l 576 657 z "},"8":{"ha":685,"x_min":47,"x_max":634,"o":"m 634 203 q 607 105 634 146 q 535 36 579 63 q 437 -5 492 8 q 328 -19 382 -19 q 224 -6 275 -19 q 135 33 174 7 q 72 97 96 58 q 47 189 47 136 q 57 246 47 220 q 87 298 66 273 q 140 349 107 323 q 220 405 173 374 q 164 440 190 421 q 118 483 138 459 q 87 535 98 507 q 75 601 75 564 q 100 690 75 652 q 164 754 124 728 q 255 793 204 780 q 360 806 307 806 q 451 794 407 806 q 529 760 495 783 q 584 704 564 737 q 605 630 605 671 q 595 580 605 604 q 566 533 585 556 q 517 485 547 509 q 448 433 487 460 q 518 393 484 415 q 577 343 551 371 q 619 281 604 316 q 634 203 634 246 m 271 379 q 170 212 170 313 q 183 141 170 173 q 221 86 197 109 q 278 51 245 63 q 350 38 311 38 q 410 48 382 38 q 460 76 439 58 q 494 119 481 94 q 506 177 506 145 q 485 245 506 216 q 431 297 465 274 q 355 339 397 320 q 271 379 313 359 m 394 459 q 464 531 441 494 q 486 612 486 568 q 447 711 486 673 q 332 749 408 749 q 274 741 300 749 q 229 717 248 732 q 199 680 210 702 q 188 631 188 658 q 205 576 188 600 q 251 533 222 553 q 317 495 280 513 q 394 459 354 477 z "},"9":{"ha":692,"x_min":51,"x_max":635,"o":"m 286 157 q 186 175 230 157 q 113 223 142 192 q 67 297 83 254 q 51 394 51 341 q 73 510 51 457 q 135 600 96 562 q 227 657 174 637 q 343 678 281 678 q 470 650 415 678 q 561 572 524 621 q 616 459 597 524 q 635 323 635 395 q 609 147 635 231 q 534 -3 584 62 q 409 -107 484 -68 q 237 -146 335 -146 q 112 -125 178 -146 l 121 -85 q 201 -96 157 -96 q 328 -71 275 -96 q 418 -2 382 -45 q 473 101 454 42 q 499 229 493 160 q 371 178 423 198 q 286 157 319 157 m 502 290 q 498 357 502 321 q 487 430 495 394 q 466 501 479 467 q 433 561 453 535 q 388 603 414 587 q 327 618 361 618 q 262 602 290 618 q 215 559 234 586 q 187 499 197 533 q 178 431 178 466 q 222 295 178 345 q 357 245 267 245 q 426 253 388 245 q 502 273 463 260 l 502 290 z "}," ":{"ha":407,"x_min":0,"x_max":0,"o":""}," ":{"ha":407,"x_min":0,"x_max":0,"o":""},"ሀ":{"ha":705,"x_min":66,"x_max":654,"o":"m 460 770 q 485 778 466 772 q 527 789 504 783 q 572 799 550 794 q 607 803 595 803 q 624 793 617 803 q 637 766 631 783 q 645 729 642 749 q 650 689 648 709 q 653 652 652 669 q 654 625 654 635 q 646 489 654 561 q 619 347 637 417 q 571 211 601 276 q 497 97 541 146 q 394 19 453 48 q 258 -11 335 -11 q 113 41 161 -11 q 66 185 66 92 q 69 232 66 205 q 76 287 72 258 q 86 346 81 315 q 98 404 92 376 q 110 465 104 433 q 121 525 116 497 q 129 574 126 553 q 132 602 132 595 q 122 637 132 621 q 83 664 113 654 l 86 689 q 196 716 152 707 q 258 726 240 726 q 280 719 273 726 q 287 693 287 712 q 273 619 287 671 q 241 484 259 567 l 231 435 q 206 305 217 365 q 195 197 195 245 q 199 142 195 170 q 214 94 203 115 q 243 58 224 72 q 293 45 262 45 q 357 63 328 45 q 408 111 385 81 q 448 182 431 142 q 478 268 465 222 q 499 362 490 314 q 513 455 507 410 q 520 540 518 500 q 522 610 522 580 q 520 654 522 631 q 513 696 519 677 q 494 730 507 716 q 461 747 482 744 l 460 770 z "},"ሁ":{"ha":981,"x_min":58,"x_max":968,"o":"m 454 691 q 478 699 460 694 q 519 710 497 705 q 564 720 542 716 q 600 724 586 724 q 620 715 612 724 q 634 691 629 706 q 643 658 640 676 q 647 622 646 640 q 648 589 648 604 q 648 564 648 574 q 646 504 648 536 q 640 440 644 471 l 920 492 l 921 472 q 916 432 916 458 q 929 361 916 395 q 968 304 942 326 l 966 294 q 938 288 948 289 q 915 288 928 288 q 862 298 886 288 q 820 326 838 308 q 792 369 802 345 q 782 422 782 393 l 633 393 q 609 294 624 344 q 572 200 594 245 q 519 117 549 155 q 450 50 490 78 q 362 5 411 22 q 252 -11 313 -11 q 105 36 153 -11 q 58 168 58 83 q 67 258 58 211 q 87 353 75 304 q 98 405 92 376 q 109 458 104 433 q 116 503 113 484 q 119 527 119 522 q 109 563 119 547 q 70 589 99 579 l 73 614 q 182 642 138 632 q 243 651 225 651 q 266 644 259 651 q 273 618 273 637 q 261 554 273 600 q 233 436 250 508 l 220 387 q 197 273 206 325 q 189 179 189 222 q 193 131 189 155 q 208 88 197 107 q 238 57 218 68 q 288 45 257 45 q 370 72 334 45 q 430 144 405 100 q 472 244 456 189 q 498 355 488 299 q 512 462 508 411 q 515 547 515 513 q 515 586 515 566 q 509 624 514 606 q 491 653 503 641 q 455 669 478 666 l 454 691 z "},"ሂ":{"ha":730,"x_min":49,"x_max":700,"o":"m 437 885 q 533 908 498 901 q 589 914 569 914 q 629 901 618 914 q 640 866 640 887 q 628 807 640 838 q 602 744 616 777 l 366 205 q 330 85 330 119 q 343 53 330 62 q 381 45 357 45 q 408 45 392 45 q 442 46 424 45 q 480 49 460 47 q 518 54 500 51 q 565 117 528 94 q 669 143 602 140 l 671 127 q 656 93 662 113 q 651 54 651 74 q 663 1 651 26 q 700 -36 674 -23 l 699 -51 q 670 -56 685 -54 q 640 -58 655 -58 q 600 -54 620 -58 q 564 -41 581 -50 q 536 -19 548 -33 q 521 14 525 -5 q 366 -9 425 -3 q 279 -16 306 -16 q 213 5 234 -16 q 193 61 193 26 q 204 129 193 92 q 233 202 216 165 l 382 543 q 325 532 356 539 q 265 517 294 524 q 210 504 235 509 q 169 498 184 498 q 134 505 148 498 q 112 524 120 511 q 99 552 103 536 q 96 589 96 569 q 96 602 96 594 q 98 620 97 610 q 100 640 99 629 q 103 659 102 650 q 110 703 107 682 q 112 739 112 724 q 110 763 112 752 q 102 781 108 773 q 83 794 96 789 q 51 803 71 800 l 49 827 q 144 859 106 849 q 205 869 182 869 q 236 856 223 869 q 248 819 248 843 q 247 800 248 811 q 244 776 246 789 q 241 750 243 764 q 237 725 239 737 q 227 671 231 696 q 223 629 223 647 q 236 585 223 600 q 286 571 250 571 q 306 573 291 571 q 339 579 321 576 q 374 585 357 582 q 402 589 392 587 l 470 745 q 487 785 480 768 q 493 817 493 803 q 481 844 493 834 q 435 859 470 854 l 437 885 z "},"ሃ":{"ha":651,"x_min":49,"x_max":637,"o":"m 385 14 q 311 -8 341 0 q 263 -16 281 -16 q 208 3 228 -16 q 187 59 187 22 q 195 109 187 81 q 218 171 202 138 l 376 508 q 321 497 351 505 q 262 483 291 490 q 209 470 233 475 q 169 464 184 464 q 134 471 148 464 q 112 490 120 477 q 99 518 103 502 q 96 555 96 535 q 96 568 96 560 q 98 586 97 576 q 100 606 99 595 q 103 625 102 616 q 110 669 107 648 q 112 705 112 690 q 110 729 112 718 q 102 747 108 739 q 83 760 96 755 q 51 769 71 766 l 49 793 q 144 825 106 815 q 205 836 182 836 q 236 822 223 836 q 248 785 248 809 q 247 766 248 777 q 244 742 246 755 q 241 716 243 730 q 237 691 239 703 q 227 637 231 662 q 223 595 223 613 q 236 551 223 566 q 286 537 250 537 q 305 539 291 537 q 336 545 319 542 l 370 551 q 386 553 379 552 q 399 555 393 555 l 470 711 q 487 751 481 734 q 493 783 493 769 q 481 810 493 800 q 435 825 470 820 l 437 851 q 531 874 496 867 q 587 880 566 880 q 627 867 616 880 q 637 832 637 853 q 626 773 637 804 q 600 710 615 743 l 359 190 q 332 128 342 153 q 322 85 322 102 q 337 56 322 66 q 386 42 351 45 l 385 14 z "},"ሄ":{"ha":735,"x_min":45,"x_max":691,"o":"m 435 875 q 531 898 496 891 q 585 904 566 904 q 624 890 613 904 q 635 856 635 877 q 624 797 635 827 q 597 734 612 766 l 394 292 q 494 320 445 308 q 582 332 543 332 q 626 327 606 332 q 660 311 646 322 q 683 283 675 300 q 691 243 691 267 q 669 159 691 193 q 613 105 648 126 q 536 72 579 84 q 452 53 494 60 q 332 7 382 24 q 252 -10 281 -10 q 199 9 220 -10 q 178 64 178 28 q 208 176 178 109 l 374 532 q 318 521 348 528 q 259 507 288 514 q 205 493 230 499 q 165 488 180 488 q 131 494 144 488 q 108 513 117 501 q 96 542 100 526 q 92 578 92 559 q 93 592 92 584 q 95 610 94 600 q 97 629 96 619 q 100 648 98 640 q 106 693 104 672 q 109 729 109 714 q 106 752 109 742 q 98 771 104 763 q 80 784 92 779 q 47 793 68 789 l 45 817 q 141 849 103 839 q 202 859 178 859 q 232 846 220 859 q 245 808 245 833 q 244 790 245 801 q 241 766 243 779 q 237 740 239 753 q 233 715 235 727 q 224 661 228 686 q 220 618 220 637 q 233 575 220 589 q 283 561 246 561 q 302 563 288 561 q 333 569 316 566 q 368 575 351 572 q 396 581 385 578 l 467 734 q 484 775 478 758 q 490 806 490 793 q 479 834 490 824 q 433 848 467 844 l 435 875 m 332 153 q 321 113 321 132 q 333 87 321 97 q 372 78 344 78 q 435 87 401 78 q 497 114 469 97 q 544 156 525 132 q 562 212 562 181 q 543 252 562 240 q 496 264 524 264 q 438 256 471 264 q 370 239 405 248 l 332 153 z "},"ህ":{"ha":723,"x_min":41,"x_max":672,"o":"m 291 486 q 273 410 281 450 q 257 333 264 371 q 247 259 251 294 q 243 197 243 224 q 247 142 243 170 q 260 94 251 115 q 287 58 270 72 q 332 45 304 45 q 390 63 364 45 q 436 111 416 81 q 472 182 456 142 q 499 268 488 222 q 518 362 511 314 q 531 455 526 410 q 538 540 536 500 q 540 610 540 580 q 538 654 540 631 q 530 696 536 677 q 512 730 524 716 q 479 747 500 744 l 477 770 q 503 778 484 772 q 544 789 522 783 q 589 799 567 795 q 624 803 611 803 q 642 793 634 803 q 655 766 650 783 q 664 729 661 749 q 669 689 667 709 q 671 652 671 669 q 672 625 672 635 q 665 489 672 561 q 641 347 658 417 q 596 211 624 276 q 526 97 568 146 q 428 19 485 48 q 297 -11 372 -11 q 157 41 203 -11 q 111 185 111 92 q 123 314 111 252 q 149 439 135 376 l 58 425 q 71 481 64 453 q 81 532 77 509 q 89 574 85 556 q 92 600 92 591 q 81 635 92 619 q 41 662 70 652 l 43 687 q 154 714 109 705 q 217 724 199 724 q 239 717 233 724 q 246 691 246 710 q 243 660 246 680 q 234 611 239 640 q 219 547 228 583 q 201 471 211 511 l 291 486 z "},"ሆ":{"ha":939,"x_min":69,"x_max":939,"o":"m 445 766 q 559 794 505 781 q 662 818 614 808 q 748 833 709 827 q 812 839 786 839 q 860 834 837 839 q 900 818 882 829 q 928 787 918 806 q 939 739 939 768 q 911 649 939 687 q 842 587 884 612 q 746 551 799 563 q 642 536 693 538 q 632 444 638 491 q 615 349 625 396 q 589 257 604 302 q 554 172 574 212 q 507 98 534 132 q 446 41 480 65 q 372 3 412 16 q 284 -11 331 -11 q 191 5 229 -11 q 129 52 153 22 q 95 124 105 81 q 84 218 84 166 q 90 312 84 263 q 100 404 95 361 q 111 484 106 448 q 117 547 115 520 q 120 589 119 574 q 121 607 121 605 q 111 643 121 627 q 69 669 100 659 l 72 694 q 181 722 138 712 q 243 731 224 731 q 265 724 258 731 q 272 699 272 718 q 270 667 272 687 q 263 619 267 646 q 254 558 259 591 q 244 489 249 526 l 237 435 q 231 399 235 421 q 224 348 228 376 q 218 288 220 319 q 216 224 216 256 q 220 157 216 189 q 234 99 224 124 q 262 60 244 75 q 306 45 279 45 q 381 75 349 45 q 437 155 414 106 q 475 267 460 205 q 498 391 490 328 q 510 510 507 453 q 513 606 513 567 q 511 659 513 635 q 503 701 510 683 q 483 729 496 718 q 446 744 470 741 l 445 766 m 643 574 q 777 616 736 581 q 817 719 817 651 q 799 768 817 751 q 747 785 780 785 q 671 762 696 785 q 646 690 646 739 q 645 627 646 653 q 643 574 644 600 z "},"ለ":{"ha":711,"x_min":37,"x_max":671,"o":"m 269 845 l 391 869 l 418 720 q 494 639 465 688 q 541 533 524 591 q 567 413 558 475 q 581 291 575 351 q 590 198 585 242 q 605 119 595 153 q 630 62 614 84 q 671 35 645 40 l 669 10 q 644 5 663 8 q 604 -2 625 1 q 562 -8 582 -6 q 534 -11 543 -11 q 511 -4 518 -11 q 500 14 505 3 q 480 80 488 45 q 468 152 473 115 q 459 226 463 189 q 453 302 456 264 q 443 390 449 346 q 426 475 437 433 q 398 554 415 516 q 354 625 380 592 q 264 530 300 580 q 207 427 228 481 q 176 316 185 374 q 168 197 168 258 q 169 150 168 176 q 178 100 171 124 q 197 58 184 76 q 233 37 210 41 l 234 14 q 211 7 228 12 q 172 -1 193 3 q 130 -8 151 -5 q 94 -11 109 -11 q 72 1 81 -11 q 57 31 63 12 q 46 71 50 49 q 41 115 43 94 q 38 153 39 136 q 37 179 37 170 q 53 330 37 255 q 101 473 69 405 q 182 602 134 542 q 294 709 230 663 l 269 845 z "},"ሉ":{"ha":928,"x_min":37,"x_max":918,"o":"m 269 845 l 391 869 l 418 720 q 469 674 447 700 q 508 617 492 648 q 536 552 525 587 q 555 479 548 517 l 857 557 q 855 538 856 547 q 854 519 854 529 q 857 483 854 501 q 868 447 861 464 q 887 418 876 431 q 917 398 899 405 l 918 387 q 833 357 876 357 q 791 365 811 357 q 755 388 771 373 q 729 427 740 404 q 715 480 718 450 l 562 442 q 573 366 569 404 q 581 291 577 328 q 590 198 585 242 q 605 119 595 153 q 630 62 614 84 q 671 35 645 40 l 669 10 q 644 5 663 8 q 604 -2 625 1 q 563 -8 582 -6 q 536 -11 543 -11 q 511 -4 518 -11 q 500 14 505 3 q 480 80 488 45 q 468 152 473 115 q 459 226 463 189 q 453 302 456 264 q 443 390 449 346 q 426 475 437 433 q 398 554 415 516 q 354 625 380 592 q 264 530 300 580 q 207 427 228 481 q 176 316 185 374 q 168 197 168 258 q 169 150 168 176 q 178 100 171 124 q 197 58 184 76 q 233 37 210 41 l 234 14 q 211 7 228 12 q 173 -1 194 3 q 132 -8 153 -5 q 97 -11 111 -11 q 74 1 83 -11 q 57 31 64 12 q 47 71 51 49 q 41 115 43 94 q 38 153 39 136 q 37 179 37 170 q 53 330 37 255 q 101 473 69 405 q 182 602 134 542 q 294 709 230 663 l 269 845 z "},"ሊ":{"ha":997,"x_min":37,"x_max":966,"o":"m 269 845 l 391 869 l 418 720 q 494 639 465 688 q 541 533 524 591 q 567 413 558 475 q 581 291 575 351 q 593 177 586 229 q 615 89 600 125 q 627 67 621 75 q 641 54 633 58 q 658 47 648 49 q 680 46 667 46 q 725 47 699 46 q 785 51 750 48 q 831 113 794 90 q 936 140 868 136 l 938 124 q 923 90 928 109 q 918 51 918 71 q 929 -2 918 22 q 966 -39 941 -26 l 965 -54 q 937 -59 951 -58 q 907 -61 922 -61 q 867 -57 886 -61 q 831 -45 847 -54 q 803 -22 814 -36 q 787 11 791 -9 q 632 -5 698 0 q 538 -11 566 -10 l 534 -11 q 511 -4 518 -11 q 500 14 505 3 q 480 80 488 45 q 468 152 473 115 q 459 226 463 189 q 453 302 456 264 q 443 390 449 346 q 426 475 437 433 q 398 554 415 516 q 354 625 380 592 q 264 530 300 580 q 207 427 228 481 q 176 316 185 374 q 168 197 168 258 q 169 150 168 176 q 178 100 171 124 q 197 58 184 76 q 233 37 210 41 l 234 14 q 211 7 228 12 q 172 -1 193 3 q 130 -8 151 -5 q 94 -11 109 -11 q 72 1 81 -11 q 57 31 63 12 q 46 71 50 49 q 41 115 43 94 q 38 153 39 136 q 37 179 37 170 q 53 330 37 255 q 101 473 69 405 q 182 602 134 542 q 294 709 230 663 l 269 845 z "},"ላ":{"ha":685,"x_min":44,"x_max":644,"o":"m 243 845 l 364 869 l 391 720 q 468 639 439 688 q 514 533 497 591 q 540 413 532 475 q 554 291 549 351 q 564 198 559 242 q 578 119 569 153 q 603 62 588 84 q 644 35 618 40 l 643 10 q 618 5 637 8 q 577 -2 599 1 q 536 -8 555 -6 q 508 -11 516 -11 q 485 -4 492 -11 q 474 14 478 3 q 454 80 462 45 q 441 152 446 115 q 433 226 436 189 q 427 302 430 264 q 416 390 422 346 q 399 475 410 433 q 371 554 389 516 q 328 625 354 592 q 262 564 292 599 q 212 492 233 530 q 179 415 191 454 q 168 343 168 376 q 178 283 168 301 q 213 260 189 264 l 214 238 q 194 232 208 235 q 162 224 180 228 q 127 219 145 221 q 95 216 109 216 q 58 244 72 216 q 44 318 44 271 q 56 406 44 357 q 94 507 68 455 q 163 611 121 559 q 268 709 206 663 l 243 845 z "},"ሌ":{"ha":928,"x_min":37,"x_max":901,"o":"m 694 8 q 656 1 679 5 q 611 -5 634 -2 q 567 -9 588 -7 q 534 -11 547 -11 q 511 -4 518 -11 q 500 14 505 3 q 481 80 489 45 q 468 152 473 115 q 460 226 463 189 q 453 302 456 264 q 443 390 449 346 q 426 475 437 433 q 398 554 415 516 q 354 625 380 592 q 264 530 300 580 q 207 427 228 481 q 176 316 185 374 q 168 197 168 258 q 169 150 168 176 q 178 100 171 124 q 197 58 184 76 q 233 37 210 41 l 234 14 q 211 7 228 12 q 172 -1 193 3 q 130 -8 151 -5 q 94 -11 109 -11 q 72 1 81 -11 q 57 31 63 12 q 46 71 50 49 q 41 115 43 94 q 38 153 39 136 q 37 179 37 170 q 53 330 37 255 q 101 473 69 405 q 182 602 134 542 q 294 709 230 663 l 269 845 l 391 869 l 418 720 q 494 639 465 688 q 541 533 524 591 q 567 413 558 475 q 581 291 575 351 q 583 263 582 277 q 586 235 585 249 q 692 256 648 249 q 768 263 736 263 q 864 233 827 263 q 901 143 901 202 q 888 81 901 106 q 855 38 876 55 q 806 13 834 21 q 748 5 779 5 q 724 6 735 5 q 694 8 713 7 m 590 200 q 601 130 596 160 q 616 80 606 100 q 644 50 627 60 q 694 39 662 39 q 730 47 715 39 q 756 67 746 54 q 771 97 766 80 q 776 134 776 114 q 755 195 776 172 q 692 217 735 217 q 647 212 675 217 q 590 200 618 208 z "},"ል":{"ha":845,"x_min":32,"x_max":818,"o":"m 298 845 l 419 869 l 446 720 q 546 639 506 687 q 614 534 587 591 q 658 416 641 477 q 689 296 675 355 q 711 204 700 248 q 736 125 722 160 q 770 67 751 91 q 818 35 790 43 l 817 10 q 791 5 810 8 q 751 -2 772 1 q 709 -8 729 -6 q 682 -11 690 -11 q 656 -4 665 -11 q 641 14 646 3 q 610 85 623 49 q 588 159 597 122 q 570 234 578 197 q 555 307 563 271 q 533 392 545 349 q 501 474 521 434 q 453 553 481 515 q 382 625 425 591 q 284 539 325 584 q 218 447 243 495 q 179 348 192 399 q 163 243 165 297 q 246 258 212 253 q 309 263 281 263 q 405 233 368 263 q 441 143 441 202 q 429 81 441 106 q 396 38 416 55 q 347 13 375 21 q 289 5 319 5 q 266 6 276 5 q 237 8 256 7 q 203 1 222 5 q 164 -5 184 -2 q 125 -9 144 -7 q 92 -11 106 -11 q 69 1 79 -11 q 53 31 60 12 q 42 71 46 49 q 36 115 38 94 q 33 153 33 136 q 32 179 32 170 q 50 330 32 255 q 105 474 68 405 q 196 603 142 543 q 323 709 251 663 l 298 845 m 237 217 q 203 214 223 217 q 161 206 183 211 q 163 151 161 180 q 171 97 164 121 q 194 56 178 72 q 238 39 210 39 q 275 47 259 39 q 300 67 290 54 q 315 97 311 80 q 320 134 320 114 q 300 195 320 172 q 237 217 279 217 z "},"ሎ":{"ha":1040,"x_min":37,"x_max":1029,"o":"m 269 845 l 391 869 l 418 720 q 492 645 463 689 q 538 548 521 602 q 650 576 608 565 q 718 594 692 587 q 759 607 744 602 q 788 618 773 612 q 847 638 817 629 q 910 648 878 648 q 957 638 935 648 q 995 611 979 628 q 1020 569 1011 593 q 1029 516 1029 545 q 1024 472 1029 494 q 1007 431 1018 450 q 980 398 996 412 q 943 380 964 385 q 911 374 930 378 q 878 368 892 371 q 826 352 850 360 q 779 344 802 344 q 732 357 751 344 q 701 390 713 370 q 683 433 688 410 q 677 479 677 457 q 679 512 677 496 q 685 545 681 529 l 548 510 q 568 400 562 457 q 581 291 575 344 q 590 198 585 242 q 605 119 595 153 q 630 62 614 84 q 671 35 645 40 l 669 10 q 644 5 663 8 q 604 -2 625 1 q 562 -8 582 -6 q 534 -11 543 -11 q 511 -4 518 -11 q 500 14 505 3 q 480 80 488 45 q 468 152 473 115 q 459 226 463 189 q 453 302 456 264 q 443 390 449 346 q 426 475 437 433 q 398 554 415 516 q 354 625 380 592 q 264 530 300 580 q 207 427 228 481 q 176 316 185 374 q 168 197 168 258 q 169 150 168 176 q 178 100 171 124 q 197 58 184 76 q 233 37 210 41 l 234 14 q 211 7 228 12 q 172 -1 193 3 q 130 -8 151 -5 q 94 -11 109 -11 q 72 1 81 -11 q 57 31 63 12 q 46 71 50 49 q 41 115 43 94 q 38 153 39 136 q 37 179 37 170 q 53 330 37 255 q 101 473 69 405 q 182 602 134 542 q 294 709 230 663 l 269 845 m 857 593 q 821 587 836 593 q 794 570 805 581 q 779 545 784 559 q 774 515 774 530 q 779 478 774 498 q 794 441 784 458 q 819 414 804 425 q 853 403 833 403 q 886 411 872 403 q 909 431 900 418 q 923 460 918 444 q 928 494 928 477 q 923 530 928 513 q 909 562 918 548 q 887 585 901 576 q 857 593 874 593 z "},"ሏ":{"ha":882,"x_min":44,"x_max":869,"o":"m 441 90 q 416 217 423 151 q 404 357 408 283 q 396 444 400 400 q 384 530 392 488 q 362 610 376 572 q 326 680 348 648 q 262 619 291 654 q 212 547 233 585 q 180 471 191 509 q 168 399 168 433 q 179 338 168 357 q 214 316 189 320 l 215 294 q 195 287 209 291 q 163 280 180 283 q 127 274 146 277 q 95 272 109 272 q 58 299 72 272 q 44 374 44 327 q 56 462 44 413 q 94 563 68 511 q 163 666 121 614 q 268 764 206 718 l 243 899 l 363 923 l 388 777 q 456 693 430 742 q 497 587 482 644 q 520 468 513 530 q 532 345 527 406 q 538 269 534 307 q 546 199 541 232 q 559 141 551 167 q 577 98 566 115 l 842 113 q 837 84 839 97 q 835 59 835 71 q 842 -2 833 28 q 867 -56 850 -33 l 869 -66 q 835 -74 852 -72 q 802 -75 818 -76 q 751 -65 774 -75 q 711 -39 728 -56 q 685 4 694 -21 q 677 64 676 30 l 302 43 q 259 -77 299 -37 q 130 -116 220 -116 q 115 -116 122 -116 q 100 -115 108 -116 l 100 -103 q 131 -54 120 -82 q 142 3 142 -26 q 141 30 143 16 q 134 57 138 43 l 134 73 l 441 90 z "},"ሐ":{"ha":983,"x_min":20,"x_max":942,"o":"m 443 815 q 478 823 460 819 q 513 829 496 826 q 543 833 530 831 q 565 834 557 834 q 599 821 591 834 q 608 787 608 807 q 606 761 608 775 q 584 620 595 693 q 563 471 573 547 q 666 490 621 481 q 747 498 711 498 q 799 491 777 498 q 837 467 821 484 q 863 420 853 450 q 876 347 872 391 l 891 123 q 897 79 893 96 q 907 51 901 61 q 921 36 913 41 q 942 31 930 32 l 942 6 q 914 0 929 3 q 884 -6 899 -3 q 855 -9 869 -8 q 833 -11 842 -11 q 805 -5 816 -11 q 786 16 793 1 q 775 54 779 30 q 768 114 771 78 l 755 297 q 746 360 753 334 q 725 402 739 386 q 689 427 711 419 q 633 435 667 435 q 557 429 602 435 q 535 259 545 340 q 515 100 524 178 q 514 90 515 95 q 514 79 514 84 q 521 47 514 60 q 551 33 528 33 l 551 8 q 516 1 534 4 q 482 -5 498 -3 q 453 -9 466 -8 q 432 -11 439 -11 q 395 1 407 -11 q 383 42 383 14 q 384 52 383 47 q 385 62 384 57 q 406 237 394 149 q 431 421 418 326 q 334 408 376 422 q 261 368 292 393 q 210 310 231 343 q 176 243 189 277 q 157 175 163 208 q 152 114 152 141 q 153 86 152 100 q 158 60 154 72 q 171 40 163 47 q 195 32 180 32 l 195 7 q 123 -8 151 -3 q 77 -12 95 -12 q 47 -1 58 -12 q 30 27 36 10 q 22 62 24 43 q 20 96 20 81 q 28 173 20 132 q 56 256 37 215 q 107 335 75 297 q 184 402 138 374 q 293 448 231 431 q 437 463 355 465 q 456 596 446 531 q 475 723 465 661 q 477 745 477 733 q 470 775 477 762 q 443 790 463 789 l 443 815 z "},"ሑ":{"ha":1210,"x_min":20,"x_max":1193,"o":"m 443 815 q 478 823 460 819 q 513 829 496 826 q 543 833 530 831 q 565 834 557 834 q 599 821 591 834 q 608 787 608 807 q 606 761 608 775 q 584 620 595 693 q 563 471 573 547 q 666 490 621 481 q 747 498 711 498 q 799 491 777 498 q 837 467 821 484 q 863 420 853 450 q 876 347 872 391 l 878 312 l 1135 366 q 1134 359 1134 363 q 1133 353 1133 356 l 1133 339 q 1147 263 1133 298 q 1192 205 1162 227 l 1193 195 q 1118 171 1157 171 q 1076 179 1097 171 q 1039 202 1056 186 q 1011 241 1023 218 q 996 295 1000 264 l 880 272 l 891 123 q 897 79 893 96 q 907 51 901 61 q 921 36 913 41 q 942 31 930 32 l 942 6 q 914 0 929 3 q 884 -6 899 -3 q 855 -9 869 -8 q 833 -11 842 -11 q 805 -5 816 -11 q 786 16 793 1 q 775 54 779 30 q 768 114 771 78 l 755 297 q 746 360 753 334 q 725 402 739 386 q 689 427 711 419 q 633 435 667 435 q 557 429 602 435 q 535 259 545 340 q 515 100 524 178 q 514 90 515 95 q 514 79 514 84 q 521 47 514 60 q 551 33 528 33 l 551 8 q 516 1 534 4 q 482 -5 498 -3 q 453 -9 466 -8 q 432 -11 439 -11 q 395 1 407 -11 q 383 42 383 14 q 384 52 383 47 q 385 62 384 57 q 406 237 394 149 q 431 421 418 326 q 334 408 376 422 q 261 368 292 393 q 210 310 231 343 q 176 243 189 277 q 157 175 163 208 q 152 114 152 141 q 153 86 152 100 q 158 60 154 72 q 171 40 163 47 q 195 32 180 32 l 195 7 q 123 -8 151 -3 q 77 -12 95 -12 q 47 -1 58 -12 q 30 27 36 10 q 22 62 24 43 q 20 96 20 81 q 28 173 20 132 q 56 256 37 215 q 107 335 75 297 q 184 402 138 374 q 293 448 231 431 q 437 463 355 465 q 456 596 446 531 q 475 723 465 661 q 477 745 477 733 q 470 775 477 762 q 443 790 463 789 l 443 815 z "},"ሒ":{"ha":1255,"x_min":20,"x_max":1228,"o":"m 833 -11 q 787 13 799 -11 q 770 88 774 36 l 755 297 q 746 360 753 334 q 725 402 739 386 q 689 427 711 419 q 633 435 667 435 q 557 429 602 435 q 535 259 545 340 q 515 100 524 178 q 514 90 515 95 q 514 79 514 84 q 521 47 514 60 q 551 33 528 33 l 551 8 q 516 1 534 4 q 482 -5 498 -3 q 453 -9 466 -8 q 432 -11 439 -11 q 395 1 407 -11 q 383 42 383 14 q 384 52 383 47 q 385 62 384 57 q 406 237 394 149 q 431 421 418 326 q 334 408 376 422 q 261 368 292 393 q 210 310 231 343 q 176 243 189 277 q 157 175 163 208 q 152 114 152 141 q 153 86 152 100 q 158 60 154 72 q 171 40 163 47 q 195 32 180 32 l 195 7 q 123 -8 151 -3 q 77 -12 95 -12 q 47 -1 58 -12 q 30 27 36 10 q 22 62 24 43 q 20 96 20 81 q 28 173 20 132 q 56 256 37 215 q 107 335 75 297 q 184 402 138 374 q 293 448 231 431 q 437 463 355 465 q 456 596 446 531 q 475 723 465 661 q 477 745 477 733 q 470 775 477 762 q 443 790 463 789 l 443 815 q 478 823 460 819 q 513 829 496 826 q 543 833 530 831 q 565 834 557 834 q 599 821 591 834 q 608 787 608 807 q 606 761 608 775 q 584 620 595 693 q 563 471 573 547 q 666 490 621 481 q 747 498 711 498 q 799 491 777 498 q 837 467 821 484 q 863 420 853 450 q 876 347 872 391 l 891 123 q 893 91 892 105 q 900 68 895 77 q 915 54 905 58 q 941 49 924 49 q 990 52 964 49 q 1046 61 1016 56 q 1093 126 1056 100 q 1198 155 1131 151 l 1200 139 q 1185 104 1190 124 q 1179 63 1179 85 q 1191 6 1179 33 q 1228 -33 1202 -20 l 1227 -47 q 1175 -54 1203 -54 q 1133 -50 1154 -54 q 1095 -37 1112 -45 q 1065 -13 1078 -28 q 1049 22 1053 1 q 915 -3 966 4 q 833 -11 864 -11 z "},"ሓ":{"ha":950,"x_min":14,"x_max":909,"o":"m 410 815 q 446 823 427 819 q 480 829 464 826 q 511 833 497 831 q 532 834 524 834 q 567 821 558 834 q 575 787 575 807 q 573 761 575 775 q 551 620 562 693 q 530 471 541 547 q 633 490 588 481 q 715 498 678 498 q 766 491 744 498 q 805 467 789 484 q 830 420 821 450 q 843 347 840 391 l 859 123 q 864 79 861 96 q 874 51 868 61 q 889 36 880 41 q 909 31 897 32 l 909 6 q 881 0 897 3 q 851 -6 866 -3 q 823 -9 836 -8 q 800 -11 809 -11 q 772 -5 783 -11 q 754 16 761 1 q 743 54 747 30 q 736 114 739 78 l 723 297 q 713 360 720 334 q 693 402 707 386 q 656 427 679 419 q 600 435 634 435 q 524 429 569 435 q 514 346 519 386 q 505 268 509 307 q 504 257 504 262 q 503 246 503 252 q 510 214 503 228 q 540 201 517 201 l 540 176 q 505 168 523 172 q 471 162 488 165 q 442 158 455 159 q 421 157 429 157 q 384 169 396 157 q 372 210 372 181 q 373 219 372 214 q 374 230 373 224 q 385 322 379 275 q 398 421 391 370 q 274 401 323 421 q 196 352 225 381 q 156 290 168 323 q 145 233 145 258 q 146 216 145 224 q 152 199 147 207 q 164 187 156 192 q 188 182 173 182 l 189 157 q 116 143 144 147 q 70 138 88 138 q 40 146 52 138 q 23 165 29 154 q 16 189 18 176 q 14 212 14 202 q 21 265 14 237 q 46 321 28 293 q 94 374 64 349 q 166 419 123 400 q 269 451 210 439 q 404 463 328 463 q 423 596 414 530 q 442 723 433 661 q 444 745 444 733 q 437 775 444 762 q 410 790 430 789 l 410 815 z "},"ሔ":{"ha":1181,"x_min":20,"x_max":1154,"o":"m 443 815 q 478 823 460 819 q 513 829 496 826 q 543 833 530 831 q 565 834 557 834 q 599 821 591 834 q 608 787 608 807 q 606 761 608 775 q 584 620 595 693 q 563 471 573 547 q 666 490 621 481 q 747 498 711 498 q 799 491 777 498 q 837 467 821 484 q 863 420 853 450 q 876 347 872 391 l 883 241 q 966 256 926 250 q 1038 261 1007 261 q 1124 231 1093 261 q 1154 146 1154 201 q 1117 42 1154 78 q 1013 5 1079 5 q 991 6 1002 5 q 962 8 980 7 q 929 1 948 5 q 892 -5 911 -2 q 858 -9 873 -7 q 833 -11 842 -11 q 805 -5 816 -11 q 786 16 793 1 q 775 54 779 30 q 768 114 771 78 l 755 297 q 746 360 753 334 q 725 402 739 386 q 689 427 711 419 q 633 435 667 435 q 557 429 602 435 q 535 259 545 340 q 515 100 524 178 q 514 90 515 95 q 514 79 514 84 q 521 47 514 60 q 551 33 528 33 l 551 8 q 516 1 534 4 q 482 -5 498 -3 q 453 -9 466 -8 q 432 -11 439 -11 q 395 1 407 -11 q 383 42 383 14 q 384 52 383 47 q 385 62 384 57 q 406 237 394 149 q 431 421 418 326 q 334 408 376 422 q 261 368 292 393 q 210 310 231 343 q 176 243 189 277 q 157 175 163 208 q 152 114 152 141 q 153 86 152 100 q 158 60 154 72 q 171 40 163 47 q 195 32 180 32 l 195 7 q 123 -8 151 -3 q 77 -12 95 -12 q 47 -1 58 -12 q 30 27 36 10 q 22 62 24 43 q 20 96 20 81 q 28 173 20 132 q 56 256 37 215 q 107 335 75 297 q 184 402 138 374 q 293 448 231 431 q 437 463 355 465 q 456 596 446 531 q 475 723 465 661 q 477 745 477 733 q 470 775 477 762 q 443 790 463 789 l 443 815 m 888 158 q 892 106 890 128 q 901 69 895 84 q 922 47 908 54 q 960 39 935 39 q 993 48 979 39 q 1015 70 1006 56 q 1026 100 1023 83 q 1030 135 1030 117 q 1015 193 1030 172 q 964 215 1000 215 q 928 212 948 215 q 885 205 907 210 l 888 158 z "},"ሕ":{"ha":983,"x_min":20,"x_max":942,"o":"m 246 873 q 303 878 271 878 q 351 874 328 878 q 394 860 375 870 q 424 832 412 850 q 436 788 436 815 q 434 765 436 776 q 428 746 431 755 q 465 753 445 749 q 502 759 484 756 q 534 763 519 762 q 555 765 548 765 q 589 751 581 765 q 597 718 597 738 q 595 692 597 706 q 586 633 590 658 q 578 586 582 609 q 571 535 575 562 q 563 471 568 509 q 666 490 621 481 q 747 498 711 498 q 799 491 777 498 q 837 467 821 484 q 863 420 853 450 q 876 347 872 391 l 891 123 q 897 79 893 96 q 907 51 901 61 q 921 36 913 41 q 942 31 930 32 l 942 6 q 914 0 929 3 q 884 -6 899 -3 q 855 -9 869 -8 q 833 -11 842 -11 q 805 -5 816 -11 q 786 16 793 1 q 775 54 779 30 q 768 114 771 78 l 755 297 q 746 360 753 334 q 725 402 739 386 q 689 427 711 419 q 633 435 667 435 q 557 429 602 435 q 535 259 545 340 q 515 100 524 178 q 514 90 515 95 q 514 79 514 84 q 521 47 514 60 q 551 33 528 33 l 551 8 q 516 1 534 4 q 482 -5 498 -3 q 453 -9 466 -8 q 432 -11 439 -11 q 395 1 407 -11 q 383 42 383 14 q 384 52 383 47 q 385 62 384 57 q 406 237 394 149 q 431 421 418 326 q 334 408 376 422 q 261 368 292 393 q 210 310 231 343 q 176 243 189 277 q 157 175 163 208 q 152 114 152 141 q 153 86 152 100 q 158 60 154 72 q 171 40 163 47 q 195 32 180 32 l 195 7 q 123 -8 151 -3 q 77 -12 95 -12 q 47 -1 58 -12 q 30 27 36 10 q 22 62 24 43 q 20 96 20 81 q 28 173 20 132 q 56 256 37 215 q 107 335 75 297 q 184 402 138 374 q 293 448 231 431 q 437 463 355 465 q 445 519 441 496 q 451 562 448 542 q 457 603 454 582 q 465 654 460 624 q 467 667 466 661 q 467 680 467 673 q 465 695 467 688 q 457 707 463 702 q 438 716 450 713 q 408 719 427 719 q 376 701 394 707 q 339 690 359 694 q 299 686 319 687 q 258 686 278 686 l 256 697 q 279 739 272 717 q 286 784 286 762 q 277 827 286 806 q 245 862 269 847 l 246 873 z "},"ሖ":{"ha":961,"x_min":20,"x_max":930,"o":"m 443 815 q 478 823 460 819 q 513 829 496 826 q 543 833 530 831 q 565 834 557 834 q 599 821 591 834 q 608 787 608 807 q 606 761 608 775 q 584 620 595 693 q 563 471 573 547 q 666 490 621 481 q 747 498 711 498 q 799 491 777 498 q 837 467 821 484 q 863 420 853 450 q 876 347 872 391 l 880 289 q 885 244 882 262 q 895 216 889 227 q 910 202 901 206 q 930 197 918 197 l 930 172 q 902 165 918 168 q 872 160 887 162 q 844 156 857 157 q 821 155 830 155 q 793 161 805 155 q 774 183 782 168 q 762 223 766 198 q 756 287 758 249 q 747 355 753 327 q 726 401 740 383 q 689 427 711 418 q 632 435 667 435 q 557 429 600 435 q 545 340 551 384 q 535 256 540 297 q 534 245 534 251 q 534 235 534 240 q 541 203 534 216 q 570 189 548 189 l 570 164 q 536 157 553 160 q 502 151 518 153 q 472 146 486 148 q 452 145 459 145 q 415 157 427 145 q 403 198 403 170 q 403 208 403 203 q 404 218 404 213 q 416 317 410 265 q 431 421 423 368 q 334 408 376 422 q 261 368 292 393 q 210 310 231 343 q 176 243 189 277 q 157 175 163 208 q 152 114 152 141 q 153 86 152 100 q 158 60 154 72 q 171 40 163 47 q 195 32 180 32 l 195 7 q 123 -8 151 -3 q 77 -12 95 -12 q 47 -1 58 -12 q 30 27 36 10 q 22 62 24 43 q 20 96 20 81 q 28 173 20 132 q 56 256 37 215 q 107 335 75 297 q 184 402 138 374 q 293 448 231 431 q 437 463 355 465 q 456 596 446 531 q 475 723 465 661 q 477 745 477 733 q 470 775 477 762 q 443 790 463 789 l 443 815 z "},"ሗ":{"ha":1204,"x_min":14,"x_max":1190,"o":"m 410 915 q 446 922 427 919 q 480 928 464 926 q 511 932 497 931 q 532 934 524 934 q 567 920 558 934 q 575 887 575 907 q 573 861 575 875 q 551 720 562 793 q 530 571 541 647 q 633 589 588 581 q 715 597 678 597 q 766 591 743 597 q 805 567 789 584 q 831 520 821 549 q 844 447 841 491 l 865 127 l 1164 147 q 1158 118 1160 132 q 1156 94 1156 105 q 1163 33 1155 63 q 1189 -21 1171 2 l 1190 -32 q 1156 -39 1173 -37 q 1123 -41 1139 -41 q 1072 -31 1095 -40 q 1031 -5 1048 -22 q 1004 37 1014 12 q 996 95 995 62 l 611 69 q 568 -51 613 -12 q 443 -90 523 -90 q 428 -90 435 -90 q 412 -89 420 -90 l 412 -77 q 443 -28 432 -56 q 454 29 454 0 q 453 56 455 43 q 446 83 450 70 l 446 99 l 744 119 l 726 397 q 716 459 723 433 q 694 502 709 486 q 657 527 680 519 q 601 534 635 534 q 524 528 569 534 q 514 446 519 486 q 505 368 509 406 q 504 357 504 362 q 503 346 503 351 q 510 314 503 328 q 540 300 517 300 l 540 275 q 505 268 523 271 q 471 262 488 264 q 442 258 455 259 q 421 256 429 256 q 384 269 396 256 q 372 309 372 281 q 373 319 372 314 q 374 330 373 324 q 385 422 379 374 q 398 521 391 470 q 274 501 323 521 q 196 452 225 481 q 156 390 168 422 q 145 332 145 357 q 146 315 145 324 q 152 299 147 307 q 164 287 156 292 q 188 282 173 282 l 189 257 q 116 242 144 247 q 70 238 88 238 q 40 246 52 238 q 23 265 29 254 q 16 289 18 276 q 14 312 14 302 q 21 365 14 336 q 46 420 28 393 q 94 474 64 448 q 166 519 123 500 q 269 550 210 538 q 404 562 328 562 q 423 695 414 630 q 442 823 433 761 q 444 844 444 833 q 437 875 444 861 q 410 890 430 888 l 410 915 z "},"መ":{"ha":1128,"x_min":32,"x_max":1107,"o":"m 846 755 l 842 734 q 871 745 854 739 q 905 756 888 751 q 939 765 923 762 q 964 768 955 768 q 1030 752 1003 768 q 1075 711 1057 736 q 1100 653 1092 686 q 1107 589 1107 621 q 1093 488 1107 534 q 1050 407 1079 441 q 979 353 1022 373 q 878 334 936 334 l 865 334 q 860 334 863 334 q 854 334 857 334 q 720 307 755 307 q 673 320 688 307 q 659 363 659 332 q 659 374 659 369 q 661 387 659 380 q 674 473 667 427 q 689 563 682 519 q 702 645 696 607 q 711 706 708 682 q 654 700 681 704 q 599 691 627 696 q 570 611 587 656 q 536 518 553 566 q 500 423 518 471 q 467 334 482 375 q 447 288 457 306 q 426 260 437 270 q 402 245 414 250 q 375 241 389 241 q 341 242 357 241 q 307 243 324 243 q 279 242 293 243 q 245 237 264 241 q 208 226 224 232 q 177 215 191 220 q 151 206 163 210 q 128 203 139 203 q 83 218 101 203 q 53 255 64 233 q 37 302 42 277 q 32 349 32 328 q 44 439 32 396 q 78 521 56 483 q 127 591 99 559 q 189 644 156 622 q 306 696 239 679 q 458 718 372 713 q 543 726 500 720 q 630 738 585 732 q 728 751 676 745 q 842 759 779 757 l 846 755 m 462 674 q 361 660 405 674 q 285 620 317 645 q 230 564 252 595 q 194 498 208 532 q 174 430 180 464 q 168 367 168 395 q 187 303 168 328 q 243 277 206 277 q 300 293 274 277 q 340 346 326 309 q 403 515 373 435 q 462 674 433 594 m 836 699 q 817 584 827 642 q 799 465 808 526 q 795 437 797 450 q 793 414 793 425 q 804 382 793 393 q 847 370 815 370 q 909 391 884 370 q 949 441 935 411 q 970 508 964 472 q 977 576 977 545 q 971 626 977 603 q 954 666 966 649 q 922 693 942 684 q 873 703 903 703 q 836 699 857 703 z "},"ሙ":{"ha":1432,"x_min":32,"x_max":1415,"o":"m 846 755 l 842 734 q 871 745 854 739 q 905 756 888 751 q 939 765 923 762 q 964 768 955 768 q 1030 752 1003 768 q 1075 711 1057 736 q 1100 653 1092 686 q 1107 589 1107 621 q 1107 582 1107 585 q 1107 574 1107 578 l 1232 578 q 1253 612 1239 598 q 1284 634 1266 626 q 1323 647 1302 643 q 1364 651 1343 651 q 1406 647 1385 651 l 1407 635 q 1383 602 1392 623 q 1375 556 1375 580 q 1384 512 1375 532 q 1415 483 1394 492 l 1415 471 q 1348 459 1377 459 q 1275 478 1308 459 q 1230 541 1243 498 l 1103 536 q 1080 455 1097 492 q 1035 391 1063 418 q 968 349 1007 363 q 878 334 928 334 l 865 334 q 860 334 863 334 q 854 334 857 334 q 720 307 755 307 q 673 320 688 307 q 659 363 659 332 q 659 374 659 369 q 661 387 659 380 q 674 473 667 427 q 689 563 682 519 q 702 645 696 607 q 711 706 708 682 q 654 700 681 704 q 599 691 627 696 q 570 611 587 656 q 536 518 553 566 q 500 423 518 471 q 467 334 482 375 q 447 288 457 306 q 426 260 437 270 q 402 245 414 250 q 375 241 389 241 q 341 242 357 241 q 307 243 324 243 q 279 242 293 243 q 245 237 264 241 q 208 226 224 232 q 177 215 191 220 q 151 206 163 210 q 128 203 139 203 q 83 218 101 203 q 53 255 64 233 q 37 302 42 277 q 32 349 32 328 q 44 439 32 396 q 78 521 56 483 q 127 591 99 559 q 189 644 156 622 q 306 696 239 679 q 458 718 372 713 q 543 726 500 720 q 630 738 585 732 q 728 751 676 745 q 842 759 779 757 l 846 755 m 462 674 q 361 660 405 674 q 285 620 317 645 q 230 564 252 595 q 194 498 208 532 q 174 430 180 464 q 168 367 168 395 q 187 303 168 328 q 243 277 206 277 q 300 293 274 277 q 340 346 326 309 q 403 515 373 435 q 462 674 433 594 m 836 699 q 817 584 827 642 q 799 465 808 526 q 795 437 797 450 q 793 414 793 425 q 804 382 793 393 q 847 370 815 370 q 909 391 884 370 q 949 441 935 411 q 970 508 964 472 q 977 576 977 545 q 971 626 977 603 q 954 666 966 649 q 922 693 942 684 q 873 703 903 703 q 836 699 857 703 z "},"ሚ":{"ha":1270,"x_min":44,"x_max":1240,"o":"m 648 791 q 610 790 626 791 q 580 788 595 789 q 548 785 565 787 q 509 780 532 783 q 500 716 505 750 q 491 648 496 682 q 481 579 486 613 q 471 515 476 545 q 458 464 467 484 q 436 435 448 445 q 409 421 423 425 q 380 418 395 418 q 346 418 363 418 q 311 419 329 419 q 286 418 298 419 q 256 414 274 417 q 218 402 235 410 q 186 387 201 395 q 159 374 171 380 q 136 369 146 369 q 92 382 110 369 q 64 414 75 395 q 48 455 53 433 q 44 496 44 477 q 73 642 44 582 q 150 739 102 701 q 262 795 198 777 q 395 817 326 814 q 471 821 437 819 q 534 826 505 823 q 590 830 564 828 q 645 834 616 832 q 706 839 673 837 q 779 842 738 840 l 782 838 l 779 820 q 807 831 789 825 q 845 842 825 837 q 884 850 865 847 q 917 854 903 854 q 1017 821 979 854 q 1055 721 1055 787 q 1053 692 1055 707 q 1047 661 1050 677 q 1030 589 1042 636 q 1005 483 1019 541 q 976 361 991 425 q 948 243 961 298 q 926 147 935 188 q 913 91 916 106 q 911 69 911 83 q 917 49 911 57 q 939 41 922 41 q 960 41 946 41 q 991 43 975 42 q 1025 46 1008 45 q 1057 49 1043 47 q 1104 111 1067 88 q 1208 138 1141 134 l 1211 122 q 1196 88 1201 107 q 1190 48 1190 68 q 1202 -9 1190 18 q 1240 -48 1214 -35 l 1238 -63 q 1210 -68 1225 -66 q 1180 -70 1195 -70 q 1140 -65 1160 -70 q 1103 -52 1120 -61 q 1074 -28 1086 -43 q 1057 9 1062 -13 q 919 -9 975 -3 q 833 -14 864 -14 q 788 1 801 -14 q 775 38 775 16 q 778 61 775 54 q 787 104 781 75 q 803 172 793 133 q 823 258 812 212 q 845 354 833 305 q 867 451 856 403 q 888 540 878 498 q 837 529 863 534 q 785 519 810 524 q 737 512 760 515 q 699 509 715 509 q 643 528 663 509 q 622 588 622 547 q 623 602 622 595 q 625 618 623 610 q 629 654 627 633 q 635 698 632 675 q 641 745 638 721 q 648 791 644 769 m 384 774 q 279 748 320 774 q 215 684 238 722 q 183 601 191 645 q 176 519 174 556 q 250 454 180 454 q 281 458 265 454 q 310 470 296 461 q 333 494 323 479 q 347 532 342 509 q 351 563 349 548 q 356 593 353 578 l 366 651 q 375 710 370 680 q 384 774 379 740 m 912 650 q 919 684 916 668 q 921 713 921 699 q 897 779 921 760 q 829 797 873 797 q 800 794 817 797 q 772 789 783 792 q 763 718 768 752 q 756 658 759 684 q 754 640 755 648 q 753 625 753 632 q 768 580 753 595 q 821 564 782 564 q 853 567 837 564 q 895 574 869 569 q 905 617 901 598 q 912 650 909 636 z "},"ማ":{"ha":1086,"x_min":44,"x_max":1053,"o":"m 887 85 q 885 75 886 80 q 884 66 884 71 q 895 38 884 49 q 932 24 906 28 l 930 -2 q 863 -11 896 -7 q 810 -14 829 -14 q 765 1 777 -14 q 752 39 752 17 q 753 49 752 43 q 755 62 754 55 q 766 106 759 77 q 784 174 774 136 q 806 258 794 212 q 831 351 819 303 l 857 446 q 870 493 864 470 q 882 538 876 517 q 832 528 859 533 q 782 519 806 523 q 735 512 757 515 q 699 509 713 509 q 643 528 663 509 q 622 588 622 547 q 623 602 622 595 q 625 618 623 610 q 629 654 627 633 q 635 698 632 675 q 641 745 638 721 q 648 791 644 769 q 610 790 626 791 q 580 788 595 789 q 548 785 565 787 q 509 780 532 783 q 500 716 505 750 q 491 648 496 682 q 481 579 486 613 q 471 515 476 545 q 458 464 467 484 q 436 435 448 445 q 409 421 423 425 q 380 418 395 418 q 346 418 363 418 q 311 419 329 419 q 286 418 298 419 q 256 414 274 417 q 218 402 235 410 q 186 387 201 395 q 159 374 171 380 q 136 369 146 369 q 92 382 110 369 q 64 414 75 395 q 48 455 53 433 q 44 496 44 477 q 73 642 44 582 q 150 739 102 701 q 262 795 198 777 q 395 817 326 814 q 471 821 437 819 q 534 826 505 823 q 590 830 564 828 q 645 834 616 832 q 706 839 673 837 q 779 842 738 840 l 782 838 l 779 820 q 807 831 789 825 q 845 842 825 837 q 884 850 865 847 q 917 854 903 854 q 977 843 951 854 q 1019 814 1002 833 q 1044 771 1036 796 q 1053 717 1053 746 q 1050 687 1053 702 q 1044 656 1048 671 q 1030 606 1039 637 q 1011 534 1022 574 q 987 448 1000 494 q 962 356 975 402 q 937 266 949 310 q 914 185 924 222 q 897 122 904 149 q 887 85 890 96 m 384 774 q 279 748 320 774 q 215 684 238 722 q 183 601 191 645 q 176 519 174 556 q 250 454 180 454 q 281 458 265 454 q 310 470 296 461 q 333 494 323 479 q 347 532 342 509 q 351 563 349 548 q 356 593 353 578 l 366 651 q 375 710 370 680 q 384 774 379 740 m 821 564 q 852 567 836 564 q 892 574 869 570 q 902 611 897 593 q 911 645 907 629 q 920 708 920 684 q 900 772 920 747 q 829 797 879 797 q 800 794 817 797 q 772 789 783 792 q 763 718 768 752 q 756 658 759 684 q 754 640 755 648 q 753 625 753 632 q 768 580 753 595 q 821 564 782 564 z "},"ሜ":{"ha":1215,"x_min":44,"x_max":1185,"o":"m 782 838 l 779 820 q 807 831 789 825 q 845 842 825 837 q 884 850 865 847 q 917 854 903 854 q 978 843 952 854 q 1020 812 1003 831 q 1045 768 1037 793 q 1053 716 1053 743 q 1044 656 1053 692 q 1031 613 1039 640 q 1013 553 1023 587 q 990 481 1002 520 q 966 402 979 443 l 942 321 q 930 282 936 302 q 919 245 924 263 q 1006 261 969 254 q 1078 267 1043 267 q 1156 241 1126 267 q 1185 168 1185 215 q 1170 95 1185 126 q 1131 42 1156 63 q 1073 9 1106 20 q 1002 -1 1040 -1 q 978 0 991 -1 q 949 4 965 1 q 910 -3 932 1 q 865 -8 888 -6 q 823 -13 843 -11 q 791 -14 804 -14 q 749 1 761 -14 q 737 38 737 16 q 741 66 737 52 q 754 113 746 83 q 774 180 763 142 q 798 262 785 218 q 825 353 811 306 q 852 447 838 399 q 879 538 866 494 q 830 527 855 532 q 780 518 804 522 q 734 512 755 514 q 699 509 713 509 q 643 528 663 509 q 622 588 622 547 q 623 602 622 595 q 625 618 623 610 q 629 654 627 633 q 635 698 632 675 q 641 745 638 721 q 648 791 644 769 q 610 790 626 791 q 580 788 595 789 q 548 785 565 787 q 509 780 532 783 q 500 716 505 750 q 491 648 496 682 q 481 579 486 613 q 471 515 476 545 q 458 464 467 484 q 436 435 448 445 q 409 421 423 425 q 380 418 395 418 q 346 418 363 418 q 311 419 329 419 q 286 418 298 419 q 256 414 274 417 q 218 402 235 410 q 186 387 201 395 q 159 374 171 380 q 136 369 146 369 q 92 382 110 369 q 64 414 75 395 q 48 455 53 433 q 44 496 44 477 q 73 642 44 582 q 150 739 102 701 q 262 795 198 777 q 395 817 326 814 q 471 821 437 819 q 534 826 505 823 q 590 830 564 828 q 645 834 616 832 q 706 839 673 837 q 779 842 738 840 l 782 838 m 384 774 q 279 748 320 774 q 215 684 238 722 q 183 601 191 645 q 176 519 174 556 q 250 454 180 454 q 281 458 265 454 q 310 470 296 461 q 333 494 323 479 q 347 532 342 509 q 351 563 349 548 q 356 593 353 578 l 366 651 q 375 710 370 680 q 384 774 379 740 m 911 645 q 920 707 920 681 q 916 742 920 726 q 900 770 911 758 q 872 790 890 783 q 829 797 854 797 q 800 794 817 797 q 772 789 783 792 q 763 718 768 752 q 756 658 759 684 q 754 640 755 648 q 753 625 753 632 q 768 580 753 595 q 821 564 782 564 q 851 567 835 564 q 890 573 868 569 l 911 645 m 895 164 q 885 127 889 146 q 880 92 880 108 q 898 50 880 63 q 945 37 916 37 q 1030 70 998 37 q 1062 159 1062 102 q 1045 204 1062 190 q 997 218 1027 218 q 958 215 979 218 q 907 208 937 212 l 895 164 z "},"ም":{"ha":1046,"x_min":47,"x_max":1032,"o":"m 742 821 q 767 831 752 826 q 800 842 783 837 q 834 850 817 847 q 865 854 852 854 q 940 834 909 854 q 992 784 972 815 q 1022 714 1013 753 q 1032 636 1032 675 q 1021 556 1032 593 q 988 493 1010 519 q 933 451 966 466 q 854 436 899 436 q 822 438 838 436 q 757 417 789 429 q 692 406 724 406 q 639 429 654 406 q 623 493 624 452 q 622 576 623 532 q 621 660 622 619 q 620 736 621 701 q 619 795 620 772 q 558 793 588 795 q 492 787 529 791 q 485 629 488 711 q 478 454 481 547 q 475 436 477 443 q 467 419 473 429 q 399 323 434 372 q 334 230 365 274 q 280 152 304 186 q 246 99 257 117 q 237 68 237 81 q 247 43 237 54 q 279 33 256 33 l 277 6 q 239 2 260 4 q 198 -2 218 -1 q 161 -5 178 -4 q 133 -7 144 -7 q 92 6 104 -7 q 80 36 80 18 q 83 56 80 45 q 92 75 87 66 q 134 139 107 100 q 193 224 160 178 q 261 323 225 271 q 332 429 298 376 q 255 405 292 414 q 181 396 218 396 q 119 408 144 396 q 78 442 94 420 q 55 492 62 463 q 47 553 47 521 q 74 671 47 621 q 146 754 101 721 q 249 804 191 787 q 372 823 308 821 q 469 829 425 825 q 557 836 514 832 q 644 842 600 839 q 739 845 688 844 l 742 841 l 742 821 m 366 777 q 284 757 319 774 q 225 710 249 739 q 189 644 201 682 q 177 565 177 606 q 181 522 177 542 q 196 486 185 501 q 224 462 206 471 q 269 453 241 453 q 310 456 288 453 q 353 468 332 460 q 356 539 355 499 q 359 620 358 578 q 362 702 361 662 q 366 777 364 743 m 742 780 q 743 727 743 752 q 744 676 743 702 q 744 625 744 651 q 745 569 745 598 q 748 531 746 549 q 756 498 750 513 q 774 475 762 484 q 808 467 787 467 q 858 478 838 467 q 888 510 877 490 q 903 555 899 530 q 907 606 907 580 q 901 674 907 642 q 880 731 895 707 q 840 771 865 756 q 777 785 814 785 q 742 780 765 785 z "},"ሞ":{"ha":1059,"x_min":47,"x_max":1045,"o":"m 755 814 q 780 825 765 819 q 813 835 795 830 q 847 844 830 840 q 878 847 865 847 q 953 828 922 847 q 1005 777 985 808 q 1035 707 1025 746 q 1045 629 1045 669 q 1034 549 1045 586 q 1001 486 1023 513 q 946 444 979 459 q 867 429 912 429 q 835 431 851 429 q 770 411 802 422 q 705 399 737 399 q 652 422 667 399 q 636 486 637 446 q 635 569 635 526 q 634 653 635 612 q 633 730 633 694 q 632 789 633 765 q 603 788 616 789 q 577 786 590 787 q 549 784 564 785 q 515 780 534 782 q 489 614 503 703 q 460 435 475 526 q 433 257 446 345 q 409 94 420 169 q 408 88 408 91 q 408 83 408 85 l 408 73 q 416 39 408 50 q 444 27 424 28 l 444 2 q 410 -5 427 -2 q 376 -12 392 -9 q 346 -16 359 -14 q 326 -17 333 -17 q 289 -5 301 -17 q 276 34 276 7 q 278 56 276 44 q 306 240 291 149 q 334 425 320 331 q 244 397 290 410 q 159 385 198 385 q 108 395 129 385 q 73 423 87 406 q 54 465 60 441 q 47 517 47 489 q 76 648 47 593 q 152 740 104 704 q 263 795 199 777 q 399 817 327 814 q 494 822 452 819 q 577 829 536 825 q 659 835 617 832 q 751 838 701 838 l 755 834 l 755 814 m 388 774 q 297 753 336 772 q 232 703 258 734 q 192 630 205 671 q 179 541 179 588 q 196 476 179 500 q 254 453 214 453 q 297 458 274 453 q 341 472 319 464 q 352 542 346 503 q 365 621 358 581 q 377 701 371 661 q 388 774 383 741 m 755 780 q 756 727 755 752 q 756 676 756 702 q 757 625 757 651 q 758 569 758 598 q 761 531 759 549 q 769 498 763 513 q 787 475 775 484 q 821 467 800 467 q 870 478 851 467 q 901 510 890 490 q 916 555 911 530 q 920 606 920 580 q 913 674 920 642 q 892 731 907 707 q 852 771 878 756 q 789 785 827 785 q 755 780 778 785 z "},"ሟ":{"ha":1236,"x_min":44,"x_max":1223,"o":"m 891 121 q 887 100 888 109 q 885 81 885 90 q 886 68 885 75 q 888 54 887 61 l 1190 82 q 1183 25 1183 45 q 1192 -35 1183 -5 q 1221 -85 1201 -64 l 1223 -96 q 1191 -104 1207 -102 q 1158 -107 1174 -107 q 1107 -99 1132 -107 q 1064 -75 1083 -91 q 1035 -33 1046 -58 q 1024 26 1024 -8 l 636 -10 q 627 -82 636 -51 q 596 -133 617 -113 q 542 -164 575 -154 q 461 -175 509 -175 q 452 -175 456 -175 q 441 -174 447 -175 l 440 -162 q 470 -113 460 -140 q 480 -56 480 -85 q 471 -1 480 -33 l 469 14 l 764 42 q 761 58 762 50 q 760 76 760 66 q 762 105 760 90 q 770 140 764 121 q 787 206 775 162 q 814 306 798 250 q 847 428 829 363 q 882 559 865 493 q 832 548 859 553 q 782 539 806 543 q 735 532 757 535 q 699 530 713 530 q 643 549 663 530 q 622 608 622 568 q 623 623 622 615 q 625 638 623 630 q 629 674 627 654 q 635 718 632 695 q 641 765 638 741 q 648 812 644 789 q 610 810 626 811 q 580 808 595 809 q 548 805 565 807 q 509 800 532 803 q 500 736 505 770 q 491 668 496 703 q 481 600 486 633 q 471 536 476 566 q 458 485 467 504 q 436 455 448 465 q 409 441 423 445 q 380 438 395 438 q 346 439 363 438 q 311 439 329 439 q 286 438 298 439 q 256 434 274 437 q 218 422 235 430 q 186 408 201 415 q 159 395 171 400 q 136 389 146 389 q 92 402 110 389 q 64 434 75 415 q 48 476 53 454 q 44 517 44 498 q 73 662 44 602 q 150 760 102 722 q 262 816 198 798 q 395 837 326 834 q 471 840 437 838 q 534 845 505 842 q 590 849 564 847 q 645 854 616 852 q 706 859 673 857 q 779 862 738 861 l 782 859 l 779 840 q 807 851 789 845 q 845 862 825 857 q 884 871 865 867 q 917 874 903 874 q 977 864 951 874 q 1019 835 1002 853 q 1044 791 1036 817 q 1053 737 1053 766 q 1050 707 1053 722 q 1044 676 1048 692 q 1025 605 1038 652 q 996 502 1012 559 q 963 384 981 445 q 931 269 946 323 q 905 176 916 216 q 891 121 895 136 m 384 795 q 279 769 320 795 q 215 704 238 743 q 183 621 191 665 q 176 540 174 576 q 250 475 180 475 q 281 478 265 475 q 310 490 296 481 q 333 514 323 499 q 347 553 342 529 q 351 583 349 568 q 356 613 353 598 l 366 671 q 375 730 370 701 q 384 795 379 760 m 821 585 q 852 587 836 585 q 892 594 869 590 q 902 632 897 614 q 911 665 907 650 q 920 728 920 707 q 900 792 920 767 q 829 817 879 817 q 800 815 817 817 q 772 810 783 812 q 763 738 768 772 q 756 678 759 704 q 754 661 755 669 q 753 645 753 652 q 768 600 753 616 q 821 585 782 585 z "},"ሠ":{"ha":937,"x_min":47,"x_max":909,"o":"m 64 652 q 105 663 83 657 q 147 674 127 669 q 185 682 168 679 q 213 686 202 686 q 241 674 231 686 q 252 640 252 662 q 250 618 252 629 q 240 574 247 602 q 225 513 233 546 q 208 446 217 481 q 192 379 199 411 q 181 322 185 348 q 176 283 176 297 q 197 233 176 248 q 245 218 217 218 q 315 242 285 218 q 369 306 346 267 q 408 390 392 344 q 434 478 424 436 q 448 552 444 520 q 452 596 452 585 q 443 644 452 629 q 410 662 433 659 l 411 687 q 500 711 466 704 q 541 718 534 718 q 553 716 546 718 q 567 710 560 715 q 577 696 573 705 q 582 671 582 687 q 580 635 582 657 q 574 585 578 613 q 564 526 570 557 q 550 460 558 494 q 597 409 566 427 q 663 391 628 391 q 723 412 699 391 q 760 464 747 433 q 779 531 774 496 q 785 597 785 567 q 784 629 785 614 q 778 657 783 645 q 762 679 772 670 q 732 690 751 687 l 733 715 q 808 736 779 730 q 850 743 837 743 q 882 731 870 743 q 900 701 894 719 q 908 662 906 682 q 909 625 909 642 q 902 540 909 582 q 877 463 895 498 q 832 403 860 428 q 764 368 805 378 q 729 361 747 364 q 692 351 712 357 q 635 328 661 339 q 583 317 610 317 q 549 325 568 317 q 513 348 530 334 q 481 284 498 314 q 443 233 464 255 q 398 198 422 211 q 345 185 373 185 q 308 184 325 185 q 277 180 292 183 q 241 170 257 176 q 210 159 224 164 q 183 150 196 154 q 158 146 170 146 q 114 153 134 146 q 79 171 94 159 q 56 202 64 184 q 47 246 47 221 q 60 341 47 277 q 100 511 73 406 q 108 546 104 529 q 111 577 111 563 q 102 610 111 597 q 64 627 92 624 l 64 652 z "},"ሡ":{"ha":1219,"x_min":47,"x_max":1205,"o":"m 64 652 q 105 663 83 657 q 147 674 127 669 q 185 682 168 679 q 213 686 202 686 q 241 674 231 686 q 252 640 252 662 q 250 618 252 629 q 240 574 247 602 q 225 513 233 546 q 208 446 217 481 q 192 379 199 411 q 181 322 185 348 q 176 283 176 297 q 197 233 176 248 q 245 218 217 218 q 315 242 285 218 q 369 306 346 267 q 408 390 392 344 q 434 478 424 436 q 448 552 444 520 q 452 596 452 585 q 443 644 452 629 q 410 662 433 659 l 411 687 q 500 711 466 704 q 541 718 534 718 q 553 716 546 718 q 567 710 560 715 q 577 696 573 705 q 582 671 582 687 q 580 635 582 657 q 574 585 578 613 q 564 526 570 557 q 550 460 558 494 q 597 409 566 427 q 663 391 628 391 q 723 412 699 391 q 760 464 747 433 q 779 531 774 496 q 785 597 785 567 q 784 629 785 614 q 778 657 783 645 q 762 679 772 670 q 732 690 751 687 l 733 715 q 808 736 779 730 q 850 743 837 743 q 882 731 870 743 q 900 701 894 719 q 908 662 906 682 q 909 625 909 642 q 897 516 909 564 l 1023 521 q 1043 557 1029 542 q 1074 581 1057 572 q 1113 594 1092 590 q 1154 599 1133 599 q 1174 598 1164 599 q 1194 595 1184 597 l 1194 583 q 1172 549 1180 572 q 1164 503 1164 527 q 1174 455 1164 477 q 1205 425 1183 433 l 1205 412 q 1135 400 1166 400 q 1061 422 1090 400 q 1021 484 1031 445 l 884 477 q 838 408 867 437 q 764 368 809 379 q 729 361 747 364 q 692 351 712 357 q 635 328 661 339 q 583 317 610 317 q 549 325 568 317 q 513 348 530 334 q 481 284 498 314 q 443 233 464 255 q 398 198 422 211 q 345 185 373 185 q 308 184 325 185 q 277 180 292 183 q 241 170 257 176 q 210 159 224 164 q 183 150 196 154 q 158 146 170 146 q 114 153 134 146 q 79 171 94 159 q 56 202 64 184 q 47 246 47 221 q 60 341 47 277 q 100 511 73 406 q 108 546 104 529 q 111 577 111 563 q 102 610 111 597 q 64 627 92 624 l 64 652 z "},"ሢ":{"ha":1086,"x_min":41,"x_max":1066,"o":"m 707 763 q 742 770 724 767 q 774 777 759 774 q 803 781 790 779 q 823 782 815 782 q 858 769 847 782 q 868 734 868 757 q 861 691 868 711 q 826 550 844 623 q 792 404 809 477 q 759 257 775 330 q 728 116 743 184 q 723 81 723 100 q 733 56 723 62 q 766 50 743 50 q 789 51 775 50 q 819 52 803 51 q 852 54 836 52 q 884 57 869 55 q 931 118 894 96 q 1036 144 968 140 l 1038 128 q 1023 97 1028 116 q 1017 58 1017 79 q 1028 5 1017 31 q 1066 -33 1040 -20 l 1065 -48 q 1036 -53 1051 -52 q 1006 -55 1021 -55 q 966 -51 986 -55 q 930 -39 947 -47 q 903 -16 914 -30 q 887 17 891 -3 q 747 -5 800 1 q 670 -11 694 -11 q 619 2 637 -11 q 600 51 600 16 q 601 66 600 58 q 604 84 602 75 q 645 284 623 184 q 694 492 668 385 q 656 485 674 488 q 621 483 638 483 q 555 493 586 483 q 503 528 524 504 q 474 484 490 504 q 437 448 458 463 q 392 424 416 433 q 338 415 367 415 q 298 414 318 415 q 263 409 278 412 q 229 401 243 405 q 201 394 214 397 q 178 387 189 390 q 154 380 166 383 q 125 376 138 376 q 73 395 94 376 q 51 450 51 414 q 52 460 51 454 q 54 477 53 467 q 64 518 58 495 q 75 562 70 541 q 84 603 81 584 q 88 632 88 622 q 79 665 88 652 q 41 682 69 679 l 41 707 q 82 718 60 712 q 124 729 104 724 q 162 737 144 734 q 190 741 179 741 q 218 729 208 741 q 229 694 229 717 q 223 659 229 682 q 210 612 218 637 q 195 563 202 587 q 184 524 187 539 q 181 502 181 515 q 187 477 181 488 q 202 461 193 467 q 223 451 212 454 q 248 448 235 448 q 322 469 290 448 q 376 519 354 489 q 409 583 397 549 q 420 644 420 616 q 412 689 420 672 q 378 709 404 706 l 378 734 q 425 748 403 743 q 465 758 447 754 q 494 763 482 762 q 509 765 505 765 q 538 752 526 765 q 550 713 550 739 q 548 677 550 696 q 541 638 545 659 q 553 586 541 606 q 583 553 564 565 q 624 536 601 541 q 670 531 647 531 q 704 533 688 531 l 735 658 q 739 679 738 669 q 741 696 741 688 q 733 725 741 713 q 707 738 726 736 l 707 763 z "},"ሣ":{"ha":895,"x_min":41,"x_max":868,"o":"m 707 763 q 742 770 724 767 q 774 777 759 774 q 803 781 790 779 q 823 782 815 782 q 858 769 847 782 q 868 734 868 757 q 861 691 868 711 q 826 550 844 623 q 792 405 808 477 q 760 263 775 333 q 730 129 744 193 q 725 101 727 113 q 723 79 723 88 q 731 48 723 60 q 762 36 740 37 l 762 11 q 727 3 745 7 q 692 -3 709 0 q 661 -7 675 -5 q 640 -8 647 -8 q 607 6 615 -8 q 598 40 598 20 q 600 63 598 52 q 604 84 602 74 q 645 284 623 184 q 694 492 668 385 q 656 485 674 488 q 621 483 638 483 q 555 493 586 483 q 503 528 524 504 q 474 484 490 504 q 437 448 458 463 q 392 424 416 433 q 338 415 367 415 q 298 414 318 415 q 263 409 278 412 q 229 401 243 405 q 201 394 214 397 q 178 387 189 390 q 154 380 166 383 q 125 376 138 376 q 73 395 94 376 q 51 450 51 414 q 52 460 51 454 q 54 477 53 467 q 64 518 58 495 q 75 562 70 541 q 84 603 81 584 q 88 632 88 622 q 79 665 88 652 q 41 682 69 679 l 41 707 q 82 718 60 712 q 124 729 104 724 q 162 737 144 734 q 190 741 179 741 q 218 729 208 741 q 229 694 229 717 q 223 659 229 682 q 210 612 218 637 q 195 563 202 587 q 184 524 187 539 q 181 502 181 515 q 187 477 181 488 q 202 461 193 467 q 223 451 212 454 q 248 448 235 448 q 322 469 290 448 q 376 519 354 489 q 409 583 397 549 q 420 644 420 616 q 412 689 420 672 q 378 709 404 706 l 378 734 q 425 748 403 743 q 465 758 447 754 q 494 763 482 762 q 509 765 505 765 q 538 752 526 765 q 550 713 550 739 q 548 677 550 696 q 541 638 545 659 q 553 586 541 606 q 583 553 564 565 q 624 536 601 541 q 670 531 647 531 q 704 533 688 531 l 735 658 q 739 679 738 669 q 741 696 741 688 q 733 725 741 713 q 707 738 726 736 l 707 763 z "},"ሤ":{"ha":1035,"x_min":41,"x_max":1008,"o":"m 604 84 q 645 284 623 184 q 694 492 668 385 q 656 485 674 488 q 621 483 638 483 q 555 493 586 483 q 503 528 524 504 q 474 484 490 504 q 437 448 458 463 q 392 424 416 433 q 338 415 367 415 q 298 414 318 415 q 263 409 278 412 q 229 401 243 405 q 201 394 214 397 q 178 387 189 390 q 154 380 166 383 q 125 376 138 376 q 73 395 94 376 q 51 450 51 414 q 52 460 51 454 q 54 477 53 467 q 64 518 58 495 q 75 562 70 541 q 84 603 81 584 q 88 632 88 622 q 79 665 88 652 q 41 682 69 679 l 41 707 q 82 718 60 712 q 124 729 104 724 q 162 737 144 734 q 190 741 179 741 q 218 729 208 741 q 229 694 229 717 q 223 659 229 682 q 210 612 218 637 q 195 563 202 587 q 184 524 187 539 q 181 502 181 515 q 187 477 181 488 q 202 461 193 467 q 223 451 212 454 q 248 448 235 448 q 322 469 290 448 q 376 519 354 489 q 409 583 397 549 q 420 644 420 616 q 412 689 420 672 q 378 709 404 706 l 378 734 q 425 748 403 743 q 465 758 447 754 q 494 763 482 762 q 509 765 505 765 q 538 752 526 765 q 550 713 550 739 q 548 677 550 696 q 541 638 545 659 q 553 586 541 606 q 583 553 564 565 q 624 536 601 541 q 670 531 647 531 q 704 533 688 531 l 735 658 q 739 679 738 669 q 741 696 741 688 q 733 725 741 713 q 707 738 726 736 l 707 763 q 742 770 724 767 q 774 777 759 774 q 803 781 790 779 q 823 782 815 782 q 858 769 847 782 q 868 734 868 757 q 861 691 868 711 q 807 470 834 581 q 755 243 780 358 q 824 256 785 248 q 901 264 862 264 q 942 260 922 264 q 976 246 962 256 q 999 220 991 237 q 1008 178 1008 203 q 992 105 1008 137 q 951 52 977 74 q 891 19 925 30 q 821 7 857 7 q 799 8 809 7 q 778 11 789 9 q 714 -1 745 5 q 661 -7 684 -7 q 616 5 632 -7 q 600 50 600 17 q 604 84 600 64 m 747 208 q 740 176 744 193 q 732 141 736 158 q 727 110 729 125 q 724 87 724 96 q 737 52 724 62 q 776 42 750 42 q 820 51 800 42 q 853 77 840 60 q 874 115 867 93 q 882 161 882 136 q 863 205 882 193 q 818 217 844 217 q 782 214 800 217 q 747 208 764 211 z "},"ሥ":{"ha":1198,"x_min":7,"x_max":1181,"o":"m 1181 705 q 1156 582 1181 633 q 1093 496 1132 530 q 1004 445 1053 462 q 907 429 956 429 q 831 440 867 429 q 767 474 795 452 q 713 425 743 447 q 649 389 683 404 q 579 366 615 374 q 507 358 543 358 q 357 399 425 358 q 263 252 308 323 q 179 116 218 182 q 161 82 168 97 q 154 57 154 68 q 199 26 154 31 l 199 1 q 158 -6 179 -3 q 117 -12 136 -9 q 81 -16 97 -15 q 56 -18 64 -18 q 18 -6 30 -18 q 7 25 7 6 q 14 59 7 41 q 33 96 21 77 q 106 216 67 153 q 186 344 145 279 q 271 474 228 409 q 357 603 314 540 q 371 627 366 616 q 376 648 376 638 q 366 669 376 661 q 338 680 356 677 l 338 705 q 378 713 357 709 q 418 719 399 716 q 452 723 437 722 q 477 724 468 724 q 516 714 505 724 q 528 686 528 703 q 520 653 528 671 q 500 617 512 635 q 458 555 479 586 q 417 491 437 524 q 455 430 425 450 q 527 410 486 410 q 593 424 559 410 q 655 465 627 437 q 701 533 683 492 q 718 630 718 574 q 709 680 718 659 q 671 706 700 701 l 671 726 q 704 735 686 730 q 741 743 722 739 q 777 748 760 746 q 807 751 794 751 q 838 732 830 751 q 846 677 846 714 q 837 612 846 647 q 811 542 827 576 q 859 492 831 505 q 919 479 888 479 q 970 490 945 479 q 1015 521 995 500 q 1046 576 1034 543 q 1058 656 1058 610 q 1048 707 1058 687 q 1010 733 1039 728 l 1010 754 q 1042 763 1025 758 q 1077 770 1059 767 q 1112 776 1095 774 q 1141 779 1128 779 q 1173 760 1164 779 q 1181 705 1181 742 z "},"ሦ":{"ha":910,"x_min":61,"x_max":893,"o":"m 267 1 q 226 -6 248 -3 q 185 -12 205 -9 q 149 -16 165 -15 q 124 -18 133 -18 q 87 -6 98 -18 q 75 25 75 6 q 82 59 75 41 q 101 96 90 77 q 197 251 146 172 q 300 412 248 330 q 230 396 260 405 q 182 382 199 387 q 152 378 166 378 q 95 399 117 378 q 73 455 73 420 q 75 477 73 469 q 85 516 79 495 q 96 556 91 536 q 105 592 101 575 q 109 618 109 608 q 99 652 109 638 q 61 669 90 665 l 62 694 q 102 704 81 699 q 144 715 124 710 q 182 724 165 720 q 210 727 199 727 q 239 715 228 727 q 250 681 250 703 q 243 648 250 668 q 230 605 237 627 q 215 561 222 583 q 205 524 208 539 q 203 504 203 513 q 217 464 203 479 q 267 449 232 449 q 296 452 280 449 q 333 460 311 454 q 375 526 355 494 q 417 591 396 558 q 436 627 429 608 q 444 661 444 646 q 435 687 444 677 q 405 701 427 697 l 405 726 q 445 733 425 730 q 485 739 466 736 q 519 743 504 742 q 545 745 535 745 q 576 732 566 745 q 586 698 586 719 q 574 641 586 673 q 543 578 562 609 q 536 568 539 572 q 529 557 532 563 q 572 509 545 525 q 634 493 600 493 q 691 506 666 493 q 735 541 717 518 q 762 594 753 563 q 772 662 772 625 q 770 688 772 675 q 762 711 768 701 q 747 730 756 722 q 723 740 737 737 l 723 761 q 754 769 737 765 q 790 777 772 774 q 824 783 808 781 q 853 785 841 785 q 885 767 877 785 q 893 711 893 749 q 869 589 893 640 q 806 506 845 538 q 719 458 768 473 q 622 443 671 443 q 548 453 583 443 q 484 486 512 464 q 426 396 456 443 q 365 303 395 350 q 304 208 334 256 q 248 116 275 161 q 229 82 236 97 q 222 57 222 68 q 267 26 222 31 l 267 1 z "},"ሧ":{"ha":1072,"x_min":41,"x_max":1059,"o":"m 604 121 q 625 226 614 172 q 648 333 636 280 q 671 438 659 387 q 694 536 682 490 q 656 529 674 531 q 621 526 638 526 q 555 537 586 526 q 503 571 524 547 q 474 527 490 547 q 437 491 458 507 q 392 467 416 476 q 338 458 367 458 q 298 457 318 458 q 263 452 278 456 q 229 445 243 448 q 201 437 214 441 q 178 430 189 433 q 154 423 166 427 q 125 419 138 419 q 73 438 94 419 q 51 494 51 457 q 52 504 51 497 q 54 520 53 511 q 64 561 58 538 q 75 606 70 584 q 84 646 81 627 q 88 675 88 665 q 79 709 88 695 q 41 726 69 722 l 41 751 q 82 761 60 755 q 124 772 104 767 q 162 781 144 777 q 190 784 179 784 q 218 772 208 784 q 229 738 229 760 q 223 703 229 725 q 210 655 218 680 q 195 607 202 631 q 184 567 187 583 q 181 545 181 559 q 187 521 181 531 q 202 504 193 511 q 223 495 212 498 q 248 492 235 492 q 322 512 290 492 q 376 562 354 532 q 409 626 397 592 q 420 687 420 660 q 412 732 420 715 q 378 753 404 749 l 378 778 q 425 792 403 786 q 465 801 447 798 q 494 807 482 805 q 509 808 505 808 q 538 795 526 808 q 550 756 550 782 q 548 721 550 740 q 541 682 545 702 q 553 629 541 650 q 583 596 564 608 q 624 579 601 584 q 670 574 647 574 q 704 576 688 574 l 735 701 q 739 722 738 713 q 741 739 741 732 q 733 768 741 757 q 707 781 726 779 l 707 806 q 742 814 724 810 q 774 820 759 817 q 803 824 790 823 q 823 825 815 825 q 858 813 847 825 q 868 778 868 800 q 861 734 868 755 q 826 589 844 667 q 789 429 808 510 q 754 271 771 349 q 723 129 737 193 l 1032 147 q 1027 118 1029 132 q 1025 94 1025 105 q 1031 33 1023 63 q 1057 -21 1040 2 l 1059 -32 q 1025 -39 1042 -37 q 991 -41 1008 -41 q 941 -31 964 -40 q 901 -5 918 -22 q 875 37 884 12 q 867 95 866 62 l 456 73 q 414 -46 454 -7 q 284 -85 374 -85 q 270 -85 277 -85 q 255 -85 262 -85 l 254 -73 q 286 -24 275 -52 q 297 33 296 4 q 295 60 298 47 q 289 87 293 74 l 288 103 l 604 121 z "},"ረ":{"ha":709,"x_min":34,"x_max":655,"o":"m 454 48 q 327 4 389 20 q 212 -12 265 -12 q 141 -3 174 -12 q 84 26 109 7 q 47 73 60 45 q 34 138 34 101 q 56 238 34 189 q 112 334 77 288 q 189 425 146 381 q 275 510 232 469 q 340 573 309 543 q 396 631 372 603 q 434 684 420 659 q 448 731 448 709 q 399 774 448 771 l 399 800 q 439 807 418 804 q 480 814 460 811 q 515 818 499 817 q 540 820 531 820 q 578 809 566 820 q 591 773 591 799 q 574 699 591 736 q 529 625 557 662 q 465 552 501 589 q 391 477 429 515 q 312 399 351 439 q 243 318 273 359 q 194 235 213 277 q 176 148 176 193 q 205 75 176 96 q 286 54 235 54 q 365 64 323 54 q 450 91 407 73 q 599 199 461 173 l 604 183 q 594 154 597 170 q 591 121 591 138 q 594 85 591 103 q 606 51 598 67 q 626 24 614 35 q 654 7 638 12 l 655 -8 q 612 -20 634 -16 q 568 -25 589 -25 q 532 -21 549 -25 q 500 -9 515 -18 q 473 13 485 -1 q 454 47 461 27 l 454 48 z "},"ሩ":{"ha":819,"x_min":30,"x_max":801,"o":"m 755 418 q 750 386 752 403 q 747 352 747 370 q 759 287 747 317 q 800 240 770 256 l 801 229 q 759 211 780 216 q 717 205 737 205 q 669 215 691 205 q 629 243 646 224 q 603 289 612 261 q 593 353 593 317 q 512 339 548 345 q 439 327 475 332 q 420 201 429 261 q 404 89 412 142 q 402 66 402 77 q 411 36 402 49 q 442 22 419 23 l 442 -3 q 408 -11 425 -7 q 375 -18 391 -15 q 347 -22 359 -20 q 326 -24 334 -24 q 284 -10 297 -24 q 272 29 272 4 q 273 46 272 37 q 275 66 274 56 q 293 187 283 125 q 313 310 302 248 q 203 304 248 304 q 121 313 154 304 q 67 338 87 322 q 38 377 47 355 q 30 426 30 399 q 45 490 30 460 q 85 546 61 520 q 140 593 110 571 q 199 633 170 614 q 241 660 221 648 q 276 684 260 672 q 300 707 291 695 q 309 733 309 720 q 293 761 309 752 q 258 771 277 770 l 258 796 q 300 804 277 800 q 347 812 324 808 q 388 818 369 816 q 415 820 406 820 q 455 809 441 820 q 470 773 470 799 q 456 718 470 743 q 419 669 442 692 q 368 625 397 646 q 311 583 340 604 q 259 547 284 565 q 215 511 234 530 q 183 474 195 493 q 172 435 172 456 q 201 373 172 392 q 298 354 231 354 q 478 371 366 354 q 755 418 589 389 z "},"ሪ":{"ha":706,"x_min":34,"x_max":642,"o":"m 444 318 q 483 326 463 322 q 521 332 503 330 q 554 337 539 335 q 578 338 569 338 q 609 330 597 338 q 629 309 622 322 q 639 279 636 296 q 642 247 642 263 q 627 165 642 198 q 579 108 612 132 q 495 67 547 84 q 372 33 444 50 q 326 17 351 25 q 274 3 300 9 q 223 -7 248 -3 q 182 -11 199 -11 q 132 -3 158 -11 q 84 23 106 5 q 48 70 62 41 q 34 144 34 100 q 56 249 34 199 q 113 346 78 300 q 191 434 148 392 q 278 513 235 475 q 346 573 313 545 q 402 629 378 602 q 442 682 427 656 q 456 731 456 707 q 408 774 456 771 l 408 800 q 448 807 427 804 q 488 814 469 811 q 523 818 507 817 q 548 820 539 820 q 587 809 574 820 q 600 773 600 799 q 582 693 600 731 q 535 620 564 655 q 469 550 506 584 q 393 481 432 515 q 313 409 352 446 q 243 333 274 372 q 194 251 213 294 q 176 160 176 208 q 185 116 176 134 q 213 85 195 97 q 256 67 231 73 q 311 62 281 62 q 378 72 344 62 q 439 101 412 81 q 484 151 467 121 q 501 221 501 181 q 497 256 501 242 q 485 277 492 269 q 467 289 477 286 q 444 293 456 292 l 444 318 z "},"ራ":{"ha":886,"x_min":34,"x_max":873,"o":"m 526 84 q 439 50 481 66 q 357 19 397 33 q 279 -3 317 5 q 202 -12 240 -12 q 136 -2 167 -12 q 83 25 106 7 q 47 72 60 44 q 34 138 34 100 q 54 238 34 189 q 106 334 73 288 q 183 425 140 381 q 275 510 227 469 q 342 571 311 541 q 398 629 374 602 q 435 683 421 657 q 448 731 448 709 q 399 774 448 771 l 399 800 q 439 807 418 804 q 480 814 460 811 q 515 818 499 817 q 540 820 531 820 q 578 809 566 820 q 591 773 591 799 q 575 698 591 736 q 531 622 559 660 q 468 548 504 585 q 391 477 431 512 q 307 399 346 439 q 238 318 267 359 q 192 235 209 277 q 176 148 176 193 q 184 106 176 123 q 208 78 193 89 q 243 63 223 68 q 286 58 263 58 q 337 63 311 58 q 387 75 363 68 q 408 196 389 147 q 460 278 427 245 q 538 331 494 311 q 633 361 582 350 q 739 379 684 373 q 848 393 793 386 q 843 359 845 377 q 840 324 840 342 q 847 268 840 295 q 871 219 854 241 l 873 208 q 815 197 838 197 q 734 229 766 197 q 699 325 703 261 q 616 308 650 319 q 563 271 583 296 q 535 200 543 245 q 526 84 526 156 z "},"ሬ":{"ha":853,"x_min":34,"x_max":792,"o":"m 459 9 q 415 17 435 9 q 382 39 396 25 q 277 2 324 15 q 182 -11 230 -11 q 125 -2 152 -11 q 78 26 98 7 q 46 75 58 45 q 34 144 34 104 q 56 249 34 199 q 113 346 78 300 q 191 434 148 392 q 278 513 235 475 q 346 573 313 545 q 402 629 378 602 q 442 682 427 656 q 456 731 456 707 q 408 774 456 771 l 408 800 q 448 807 427 804 q 488 814 469 811 q 523 818 507 817 q 548 820 539 820 q 587 809 574 820 q 600 773 600 799 q 582 693 600 731 q 535 620 564 655 q 469 550 506 584 q 393 481 432 515 q 313 409 352 446 q 243 333 274 372 q 194 251 213 294 q 176 160 176 208 q 185 116 176 134 q 211 86 195 98 q 249 68 227 74 q 297 62 271 62 q 328 64 312 62 q 359 69 344 66 q 348 103 351 85 q 344 139 344 121 q 360 217 344 186 q 404 266 376 248 q 471 294 432 285 q 556 304 510 302 q 581 308 568 305 q 606 314 593 311 q 629 320 618 317 q 648 322 640 322 q 755 287 718 322 q 792 185 792 251 q 783 133 792 159 q 758 85 774 106 q 716 52 741 64 q 661 39 692 39 q 611 38 632 39 q 575 33 591 37 q 546 26 559 30 q 521 18 534 22 q 493 12 508 14 q 459 9 479 9 m 473 174 q 478 135 473 153 q 494 102 484 116 q 522 79 505 87 q 562 71 539 71 q 606 79 587 71 q 638 103 625 88 q 657 139 651 119 q 664 180 664 159 q 644 245 664 221 q 583 270 623 270 q 540 264 560 270 q 505 248 520 259 q 481 218 490 236 q 473 174 473 199 z "},"ር":{"ha":710,"x_min":54,"x_max":669,"o":"m 202 -11 q 139 4 166 -11 q 93 49 111 18 q 64 129 74 80 q 54 246 54 178 q 61 387 54 323 q 81 503 67 450 q 115 598 94 555 q 164 673 136 640 q 244 741 198 713 q 350 785 291 768 q 482 809 410 802 q 642 817 555 817 q 631 752 631 786 q 641 691 631 721 q 668 640 650 661 l 669 629 q 612 618 644 618 q 563 627 586 618 q 522 653 539 635 q 494 696 504 670 q 484 755 484 722 q 444 758 456 758 q 350 740 390 758 q 281 692 310 723 q 233 618 252 661 q 203 524 214 575 q 188 413 193 472 q 184 293 184 355 q 186 207 184 248 q 200 132 189 165 q 234 80 212 100 q 295 60 256 60 q 328 63 309 60 q 369 69 347 65 q 415 78 391 73 q 460 89 439 83 q 505 160 468 134 q 611 195 541 186 l 614 182 q 599 115 599 155 q 602 83 599 99 q 613 52 606 66 q 631 26 620 38 q 657 8 642 15 l 656 -5 q 576 -16 616 -16 q 542 -13 559 -16 q 509 -2 524 -9 q 483 19 494 6 q 467 50 471 32 q 385 28 425 39 q 310 8 345 17 q 247 -6 275 -1 q 202 -11 219 -11 z "},"ሮ":{"ha":833,"x_min":54,"x_max":809,"o":"m 809 709 q 799 652 809 681 q 770 600 789 623 q 726 562 751 576 q 669 547 700 547 q 636 547 653 547 q 602 548 618 548 q 570 545 587 548 q 538 537 553 541 q 509 530 523 534 q 487 527 496 527 q 445 538 463 527 q 415 567 427 549 q 396 606 402 585 q 389 646 389 627 q 399 718 389 686 q 324 697 357 715 q 268 647 292 678 q 228 575 243 616 q 202 487 212 534 q 188 386 192 439 q 184 279 184 333 q 186 198 184 237 q 200 128 189 159 q 234 79 212 98 q 295 60 256 60 q 328 63 309 60 q 369 69 347 65 q 415 78 391 73 q 460 89 439 83 q 505 160 468 134 q 611 195 541 186 l 614 182 q 599 115 599 155 q 602 83 599 99 q 613 52 606 66 q 631 26 620 38 q 657 8 642 15 l 656 -5 q 576 -16 616 -16 q 542 -13 559 -16 q 509 -2 524 -9 q 483 19 494 6 q 467 50 471 32 q 385 28 425 39 q 310 8 345 17 q 247 -6 275 -1 q 202 -11 219 -11 q 93 45 131 -11 q 54 227 54 101 q 73 443 54 345 q 135 611 92 541 q 247 719 178 682 q 416 753 316 757 q 457 796 433 779 q 513 822 482 812 q 581 836 545 832 q 656 840 617 840 q 717 831 689 840 q 765 807 745 823 q 797 766 785 791 q 809 709 809 742 m 589 586 q 634 596 614 586 q 668 624 654 606 q 689 664 682 641 q 696 711 696 686 q 673 772 696 749 q 610 794 651 794 q 530 765 555 794 q 505 680 505 735 q 511 644 505 661 q 527 614 516 627 q 553 593 537 601 q 589 586 568 586 z "},"ሯ":{"ha":945,"x_min":41,"x_max":931,"o":"m 187 696 q 189 713 189 705 q 190 731 190 722 q 174 809 190 772 q 128 876 159 846 l 127 888 q 164 890 144 890 q 231 882 200 890 q 284 854 262 873 q 321 806 307 836 q 337 736 335 777 l 728 736 q 743 806 730 777 q 777 854 755 836 q 829 882 799 873 q 895 890 859 890 q 931 888 913 890 l 930 876 q 887 812 900 848 q 875 738 875 777 q 876 717 875 728 q 878 696 877 707 l 584 696 q 568 630 583 663 q 527 565 553 597 q 467 500 501 532 q 393 438 433 469 q 311 369 349 404 q 243 298 272 334 q 199 224 215 262 q 182 148 182 187 q 191 105 182 123 q 215 77 200 88 q 250 62 230 66 q 293 57 270 57 q 343 60 317 57 q 394 66 370 62 q 415 182 395 135 q 467 259 434 229 q 545 306 500 289 q 640 332 589 322 q 745 347 690 341 q 855 359 800 352 q 849 326 852 343 q 847 290 847 308 q 854 234 847 261 q 878 185 861 207 l 880 174 q 822 163 845 163 q 741 195 773 163 q 706 291 709 227 q 623 275 656 285 q 570 240 590 265 q 542 170 550 215 q 533 48 533 125 q 425 34 480 43 q 319 14 370 24 q 243 -3 277 5 q 195 -12 210 -12 q 83 25 125 -12 q 41 138 41 62 q 60 227 41 183 q 110 313 79 271 q 183 395 142 355 q 270 471 224 434 q 365 550 329 518 q 421 605 401 581 q 449 649 441 629 q 456 696 456 670 l 187 696 z "},"ሰ":{"ha":702,"x_min":57,"x_max":654,"o":"m 653 10 q 627 5 647 8 q 585 -2 608 1 q 541 -8 562 -6 q 508 -11 519 -11 q 493 -4 498 -11 q 484 14 488 2 q 475 60 479 32 q 470 118 472 89 q 468 171 469 146 q 468 208 468 196 q 470 294 468 250 q 473 378 471 338 q 477 450 475 418 q 479 500 479 482 q 474 559 479 530 q 457 612 470 589 q 422 650 445 635 q 364 665 400 665 q 291 644 321 665 q 242 589 261 623 q 212 513 222 555 q 197 429 201 471 q 191 350 192 387 q 190 287 190 312 q 191 246 190 271 q 193 195 191 221 q 198 144 195 168 q 205 104 201 119 q 228 60 212 73 q 269 41 244 47 l 268 16 q 242 9 262 14 q 199 0 222 4 q 152 -8 175 -5 q 115 -11 129 -11 q 98 -7 106 -11 q 85 14 90 -3 q 74 59 79 32 q 65 116 68 86 q 59 176 61 146 q 57 229 57 205 q 59 327 57 276 q 69 426 61 377 q 93 521 77 475 q 137 604 109 566 q 207 668 165 641 q 309 706 249 694 q 311 761 310 739 q 311 789 311 783 q 306 853 311 832 q 279 875 301 873 l 279 900 q 313 907 296 904 q 346 912 330 910 q 373 916 361 915 q 393 917 385 917 q 416 913 408 917 q 428 900 424 909 q 433 877 432 891 q 434 844 434 863 q 433 786 434 821 q 429 712 431 751 q 519 689 484 707 q 574 643 554 671 q 602 581 595 616 q 610 507 610 546 q 608 452 610 481 q 604 390 606 424 q 600 316 602 356 q 598 227 598 275 q 599 144 598 178 q 605 88 600 111 q 622 53 610 66 q 654 35 633 41 l 653 10 z "},"ሱ":{"ha":928,"x_min":57,"x_max":915,"o":"m 653 10 q 627 5 647 8 q 585 -2 608 1 q 541 -8 562 -6 q 508 -11 519 -11 q 493 -4 498 -11 q 484 14 488 2 q 475 60 479 32 q 470 118 472 89 q 468 171 469 146 q 468 208 468 196 q 470 294 468 250 q 473 378 471 338 q 477 450 475 418 q 479 500 479 482 q 474 559 479 530 q 457 612 470 589 q 422 650 445 635 q 364 665 400 665 q 291 644 321 665 q 242 589 261 623 q 212 513 222 555 q 197 429 201 471 q 191 350 192 387 q 190 287 190 312 q 191 246 190 271 q 193 195 191 221 q 198 144 195 168 q 205 104 201 119 q 228 60 212 73 q 269 41 244 47 l 268 16 q 242 9 262 14 q 199 0 222 4 q 152 -8 175 -5 q 115 -11 129 -11 q 98 -7 106 -11 q 85 14 90 -3 q 74 59 79 32 q 65 116 68 86 q 59 176 61 146 q 57 229 57 205 q 59 327 57 276 q 69 426 61 377 q 93 521 77 475 q 137 604 109 566 q 207 668 165 641 q 309 706 249 694 q 311 761 310 739 q 311 789 311 783 q 306 853 311 832 q 279 875 301 873 l 279 900 q 313 907 296 904 q 346 912 330 910 q 373 916 361 915 q 393 917 385 917 q 416 913 408 917 q 428 900 424 909 q 433 877 432 891 q 434 844 434 863 q 433 786 434 821 q 429 712 431 751 q 519 689 484 707 q 574 643 554 671 q 602 581 595 616 q 610 507 610 546 q 608 457 610 483 q 604 400 606 431 l 731 406 q 752 440 738 426 q 784 463 766 454 q 822 476 802 472 q 864 480 843 480 q 884 479 874 480 q 903 477 894 478 l 904 465 q 882 432 890 454 q 874 387 874 411 q 884 343 874 363 q 915 313 893 322 l 915 300 q 844 288 876 288 q 770 310 800 288 q 728 368 740 331 l 602 362 q 598 227 598 303 q 599 144 598 178 q 605 88 600 111 q 622 53 610 66 q 654 35 633 41 l 653 10 z "},"ሲ":{"ha":958,"x_min":57,"x_max":944,"o":"m 268 16 q 242 9 262 14 q 199 0 222 4 q 152 -8 175 -5 q 115 -11 129 -11 q 98 -7 106 -11 q 85 14 90 -3 q 74 59 79 32 q 65 116 68 86 q 59 176 61 146 q 57 229 57 205 q 59 327 57 276 q 69 426 61 377 q 93 521 77 475 q 137 604 109 566 q 207 668 165 641 q 309 706 249 694 q 311 761 310 739 q 311 789 311 783 q 306 853 311 832 q 279 875 301 873 l 279 900 q 313 907 296 904 q 346 912 330 910 q 373 916 361 915 q 393 917 385 917 q 416 913 408 917 q 428 900 424 909 q 433 877 432 891 q 434 844 434 863 q 433 786 434 821 q 429 712 431 751 q 519 689 484 707 q 574 643 554 671 q 602 581 595 616 q 610 507 610 546 q 608 452 610 481 q 604 390 606 424 q 600 316 602 356 q 598 227 598 275 q 600 136 598 172 q 608 78 601 100 q 623 60 612 65 q 656 55 633 55 q 703 56 674 55 q 762 61 732 57 q 809 123 772 100 q 913 150 846 146 l 916 134 q 901 102 906 121 q 895 62 895 83 q 906 9 895 35 q 944 -29 918 -16 l 943 -44 q 914 -49 929 -47 q 884 -51 899 -51 q 844 -47 864 -51 q 808 -35 825 -43 q 781 -12 792 -26 q 765 21 769 1 q 630 0 681 5 q 555 -5 578 -5 q 497 9 514 -5 q 477 47 480 24 q 472 93 473 68 q 469 139 470 117 q 468 180 468 161 q 468 208 468 198 q 470 294 468 250 q 473 378 471 338 q 477 450 475 418 q 479 500 479 482 q 474 559 479 530 q 457 612 470 589 q 422 650 445 635 q 364 665 400 665 q 291 644 321 665 q 242 589 261 623 q 212 513 222 555 q 197 429 201 471 q 191 350 192 387 q 190 287 190 312 q 191 246 190 271 q 193 195 191 221 q 198 144 195 168 q 205 104 201 119 q 229 60 213 73 q 269 41 244 47 l 268 16 z "},"ሳ":{"ha":681,"x_min":44,"x_max":633,"o":"m 632 10 q 606 5 626 8 q 564 -2 587 1 q 519 -8 541 -6 q 487 -11 498 -11 q 472 -4 477 -11 q 463 14 467 2 q 454 60 458 32 q 449 118 451 89 q 447 171 448 146 q 447 208 447 196 q 449 294 447 250 q 452 378 450 338 q 456 450 454 418 q 458 500 458 482 q 454 559 458 530 q 437 612 450 589 q 404 650 425 635 q 347 665 382 665 q 280 649 308 665 q 234 610 252 634 q 204 558 215 587 q 188 504 193 530 q 180 456 182 477 q 178 427 178 435 q 180 370 178 397 q 188 321 182 342 q 206 286 194 299 q 239 271 218 272 l 238 246 q 214 239 232 243 q 173 231 195 235 q 129 224 151 227 q 95 221 107 221 q 76 224 85 221 q 63 239 68 228 q 56 269 59 251 q 50 307 52 287 q 45 348 47 328 q 44 385 44 368 q 55 479 44 429 q 92 575 65 530 q 166 656 119 621 q 288 706 214 691 q 290 761 289 739 q 290 789 290 783 q 285 853 290 832 q 258 875 280 873 l 258 900 q 292 907 275 904 q 325 912 309 910 q 352 916 340 915 q 372 917 364 917 q 395 913 387 917 q 407 900 403 909 q 412 877 411 891 q 413 844 413 863 q 412 786 413 821 q 408 712 410 751 q 498 689 463 707 q 553 643 533 671 q 581 581 574 616 q 589 507 589 546 q 587 452 589 481 q 583 390 585 424 q 579 316 581 356 q 577 227 577 275 q 578 144 577 178 q 584 88 579 111 q 601 53 589 66 q 633 35 612 41 l 632 10 z "},"ሴ":{"ha":913,"x_min":57,"x_max":886,"o":"m 679 8 q 640 1 663 5 q 592 -5 616 -2 q 547 -9 568 -7 q 513 -11 525 -11 q 484 14 490 -11 q 475 62 478 33 q 470 120 472 91 q 468 175 469 150 q 468 212 468 201 q 470 298 468 254 q 473 381 471 342 q 477 452 475 420 q 479 503 479 484 q 474 561 479 532 q 457 612 470 589 q 422 650 445 635 q 364 665 400 665 q 291 644 321 665 q 242 589 261 623 q 212 513 222 555 q 197 429 201 471 q 191 350 192 387 q 190 287 190 312 q 191 246 190 271 q 193 195 191 221 q 198 144 195 168 q 205 104 201 119 q 229 60 214 74 q 269 41 244 47 l 268 16 q 242 9 262 14 q 199 0 222 4 q 152 -8 175 -5 q 115 -11 129 -11 q 98 -7 106 -11 q 85 14 90 -3 q 74 59 79 32 q 65 116 68 86 q 59 176 61 146 q 57 229 57 205 q 59 327 57 276 q 69 426 61 377 q 93 521 77 475 q 137 604 109 566 q 207 668 165 641 q 309 706 249 694 q 311 761 310 739 q 311 789 311 783 q 306 853 311 832 q 279 875 301 873 l 279 900 q 313 907 296 904 q 346 912 330 910 q 373 916 361 915 q 393 917 385 917 q 416 913 408 917 q 428 900 424 909 q 433 877 432 891 q 434 844 434 863 q 433 786 434 821 q 429 712 431 751 q 519 689 484 707 q 574 644 554 671 q 602 583 595 617 q 610 511 610 549 q 608 458 610 486 q 604 398 606 431 q 600 327 602 366 q 598 241 598 288 q 686 256 646 250 q 761 261 726 261 q 853 232 821 261 q 886 143 886 203 q 873 81 886 106 q 840 38 861 55 q 791 13 819 21 q 733 5 764 5 q 709 6 720 5 q 679 8 698 7 m 598 158 q 600 106 598 128 q 610 69 602 84 q 634 47 618 54 q 679 39 650 39 q 715 47 700 39 q 741 67 731 54 q 756 97 751 80 q 761 134 761 114 q 744 193 761 171 q 685 215 727 215 q 646 212 667 215 q 598 205 624 210 l 598 158 z "},"ስ":{"ha":696,"x_min":57,"x_max":654,"o":"m 653 10 q 627 5 647 8 q 585 -2 608 1 q 541 -8 562 -6 q 508 -11 519 -11 q 493 -4 498 -11 q 484 14 488 2 q 475 60 479 32 q 470 118 472 89 q 468 171 469 146 q 468 208 468 196 q 470 294 468 250 q 473 378 471 338 q 477 450 475 418 q 479 500 479 482 q 474 559 479 530 q 457 612 470 589 q 422 650 445 635 q 364 665 400 665 q 291 644 321 665 q 242 589 261 623 q 212 513 222 555 q 197 429 201 471 q 191 350 192 387 q 190 287 190 312 q 191 246 190 271 q 193 195 191 221 q 198 144 195 168 q 205 104 201 119 q 228 60 212 73 q 269 41 244 47 l 268 16 q 242 9 262 14 q 199 0 222 4 q 152 -8 175 -5 q 115 -11 129 -11 q 98 -7 106 -11 q 85 14 90 -3 q 74 59 79 32 q 65 116 68 86 q 59 176 61 146 q 57 229 57 205 q 59 324 57 275 q 68 421 61 373 q 91 514 76 469 q 132 596 106 559 q 197 661 158 633 q 292 702 236 688 q 259 748 276 724 q 227 795 242 772 q 203 839 210 824 q 196 868 196 854 q 232 906 196 895 q 254 911 240 909 q 285 916 268 913 q 322 921 302 918 q 359 925 341 923 l 368 901 q 347 886 355 896 q 338 861 338 877 q 342 840 338 852 q 356 814 347 829 q 427 712 391 762 l 429 712 q 519 689 484 707 q 574 643 554 671 q 602 581 595 616 q 610 507 610 546 q 608 452 610 481 q 604 390 606 424 q 600 316 602 356 q 598 227 598 275 q 599 144 598 178 q 605 88 600 111 q 622 53 610 66 q 654 35 633 41 l 653 10 z "},"ሶ":{"ha":688,"x_min":57,"x_max":652,"o":"m 268 17 q 242 9 262 14 q 199 0 222 5 q 152 -7 175 -4 q 115 -10 129 -10 q 98 -6 106 -10 q 85 14 90 -2 q 74 60 79 33 q 65 117 68 87 q 59 176 61 146 q 57 230 57 206 q 59 327 57 277 q 69 426 61 377 q 92 521 77 475 q 135 604 108 566 q 203 668 162 641 q 302 706 243 694 q 304 761 303 739 q 304 789 304 783 q 299 853 304 832 q 273 875 294 873 l 273 900 q 307 907 290 904 q 339 912 323 910 q 366 916 354 915 q 387 917 378 917 q 409 913 401 917 q 421 900 417 909 q 426 877 425 891 q 427 844 427 863 q 426 786 427 821 q 422 712 425 751 q 511 689 476 707 q 565 643 545 671 q 592 581 585 616 q 600 507 600 546 q 598 455 600 483 q 596 401 596 428 q 597 340 596 366 q 603 299 598 315 q 620 273 608 282 q 652 260 631 264 l 651 235 q 625 229 645 233 q 583 222 606 226 q 538 216 559 218 q 505 214 516 214 q 490 218 495 214 q 481 232 485 223 q 473 267 476 245 q 468 309 469 288 q 466 349 466 330 q 465 376 465 367 q 466 407 465 389 q 467 441 467 424 q 468 474 467 458 q 469 500 469 490 q 465 559 469 530 q 448 612 460 589 q 414 650 436 635 q 358 665 393 665 q 287 644 316 665 q 240 589 258 623 q 211 513 221 555 q 196 429 201 471 q 191 350 191 387 q 190 287 190 312 q 191 246 190 271 q 193 195 191 221 q 198 144 195 168 q 205 105 201 120 q 228 61 212 74 q 269 42 244 47 l 268 17 z "},"ሷ":{"ha":877,"x_min":54,"x_max":863,"o":"m 426 28 q 432 102 429 61 q 437 186 435 142 q 443 274 440 230 q 447 360 445 319 q 450 436 449 401 q 451 495 451 471 q 446 561 451 529 q 430 616 441 592 q 398 654 418 640 q 349 669 378 669 q 290 655 315 669 q 247 617 265 641 q 216 563 229 593 q 197 498 204 532 q 187 429 190 464 q 184 364 184 395 q 185 308 184 334 q 193 264 187 283 q 211 234 199 245 q 243 220 222 222 l 241 195 q 218 189 235 193 q 180 181 201 184 q 139 174 159 177 q 105 172 118 172 q 87 175 95 172 q 74 191 79 178 q 59 256 64 220 q 54 334 54 293 q 65 457 54 395 q 105 573 77 519 q 180 665 134 626 q 294 718 226 704 l 309 886 l 428 886 l 414 722 q 495 695 463 715 q 547 644 528 674 q 574 576 566 614 q 583 498 583 538 q 580 411 583 466 q 574 292 578 356 q 566 160 570 227 q 557 36 562 93 l 837 52 q 831 23 833 37 q 829 -1 829 10 q 836 -62 828 -32 q 862 -116 844 -93 l 863 -127 q 829 -134 846 -132 q 796 -136 812 -136 q 745 -126 768 -135 q 703 -99 721 -117 q 676 -57 686 -82 q 668 3 667 -31 l 279 -19 q 236 -139 277 -99 q 104 -178 195 -178 q 89 -178 96 -178 q 75 -178 82 -178 l 74 -165 q 105 -117 94 -144 q 117 -60 116 -89 q 115 -33 117 -46 q 109 -5 113 -19 l 108 10 l 426 28 z "},"ሸ":{"ha":720,"x_min":10,"x_max":774,"o":"m 774 820 q 742 814 759 817 q 709 812 726 812 q 670 816 689 812 q 635 828 651 820 q 608 851 619 837 q 593 885 597 865 l 441 872 l 436 705 q 521 682 488 700 q 573 635 554 663 q 600 572 592 608 q 607 498 607 537 q 605 445 607 473 q 601 385 604 417 q 597 313 599 352 q 595 225 595 274 q 596 143 595 177 q 603 88 597 110 q 619 54 608 66 q 652 36 631 41 l 650 10 q 625 5 644 8 q 582 -2 605 1 q 538 -8 559 -6 q 505 -11 516 -11 q 490 -4 495 -11 q 481 14 485 2 q 473 60 476 32 q 468 116 470 87 q 466 169 467 144 q 465 205 465 194 q 467 291 465 248 q 471 372 469 334 q 474 443 473 411 q 476 492 476 474 q 472 551 476 522 q 457 604 468 581 q 425 643 446 628 q 373 658 405 658 q 308 637 334 658 q 264 583 281 616 q 237 508 247 550 q 223 425 228 467 q 218 347 219 384 q 218 285 218 309 q 218 244 218 269 q 221 194 219 220 q 226 143 223 168 q 233 104 229 119 q 256 60 240 73 q 297 41 272 47 l 296 16 q 270 9 290 14 q 227 0 250 4 q 179 -8 203 -5 q 142 -11 156 -11 q 124 -7 132 -11 q 111 14 117 -3 q 100 58 105 31 q 91 115 95 85 q 85 174 87 144 q 83 227 83 203 q 85 323 83 273 q 95 422 87 374 q 118 516 102 471 q 159 598 133 562 q 225 662 186 635 q 322 699 265 688 l 327 862 l 193 851 q 144 785 186 808 q 31 756 103 762 l 29 767 q 53 811 45 789 q 62 856 62 834 q 49 904 62 882 q 10 940 37 926 l 11 951 q 75 959 41 959 q 116 955 96 959 q 151 942 136 951 q 177 921 167 934 q 191 889 188 907 l 591 924 q 741 1008 611 1000 l 742 996 q 726 923 726 954 q 738 870 726 895 q 774 831 749 846 l 774 820 z "},"ሹ":{"ha":939,"x_min":10,"x_max":916,"o":"m 774 820 q 742 814 759 817 q 709 812 726 812 q 670 816 689 812 q 635 828 651 820 q 608 851 619 837 q 593 885 597 865 l 441 872 l 436 705 q 521 682 488 700 q 573 635 554 663 q 600 572 592 608 q 607 498 607 537 q 607 477 607 487 q 606 454 606 467 l 732 460 q 752 494 739 480 q 784 517 766 509 q 823 530 802 526 q 865 534 844 534 q 885 533 875 534 q 904 531 895 532 l 905 519 q 883 487 891 508 q 875 441 875 465 q 884 397 875 418 q 916 367 894 376 l 916 355 q 845 342 877 342 q 770 364 800 342 q 729 422 741 385 l 603 416 q 598 332 600 378 q 595 225 595 286 q 596 143 595 177 q 603 88 597 110 q 619 54 608 66 q 652 36 631 41 l 650 10 q 625 5 644 8 q 582 -2 605 1 q 538 -8 559 -6 q 505 -11 516 -11 q 490 -4 495 -11 q 481 14 485 2 q 473 60 476 32 q 468 116 470 87 q 466 169 467 144 q 465 205 465 194 q 467 291 465 248 q 471 372 469 334 q 474 443 473 411 q 476 492 476 474 q 472 551 476 522 q 457 604 468 581 q 425 643 446 628 q 373 658 405 658 q 308 637 334 658 q 264 583 281 616 q 237 508 247 550 q 223 425 228 467 q 218 347 219 384 q 218 285 218 309 q 218 244 218 269 q 221 194 219 220 q 226 143 223 168 q 233 104 229 119 q 256 60 240 73 q 297 41 272 47 l 296 16 q 270 9 290 14 q 227 0 250 4 q 179 -8 203 -5 q 142 -11 156 -11 q 124 -7 132 -11 q 111 14 117 -3 q 100 58 105 31 q 91 115 95 85 q 85 174 87 144 q 83 227 83 203 q 85 323 83 273 q 95 422 87 374 q 118 516 102 471 q 159 598 133 562 q 225 662 186 635 q 322 699 265 688 l 327 862 l 193 851 q 144 785 186 808 q 31 756 103 762 l 29 767 q 53 811 45 789 q 62 856 62 834 q 49 904 62 882 q 10 940 37 926 l 11 951 q 75 959 41 959 q 116 955 96 959 q 151 942 136 951 q 177 921 167 934 q 191 889 188 907 l 591 924 q 741 1008 611 1000 l 742 996 q 726 923 726 954 q 738 870 726 895 q 774 831 749 846 l 774 820 z "},"ሺ":{"ha":958,"x_min":10,"x_max":941,"o":"m 465 208 q 467 292 465 249 q 471 373 469 335 q 474 443 473 412 q 476 492 476 474 q 472 551 476 522 q 457 604 468 581 q 425 643 446 628 q 373 658 405 658 q 308 637 334 658 q 264 583 281 616 q 237 508 247 550 q 223 425 228 467 q 218 347 219 384 q 218 285 218 309 q 218 244 218 269 q 221 194 219 220 q 226 143 223 168 q 233 104 229 119 q 256 60 240 73 q 297 41 272 47 l 296 16 q 270 9 290 14 q 227 0 250 4 q 179 -8 203 -5 q 142 -11 156 -11 q 124 -7 132 -11 q 111 14 117 -3 q 100 58 105 31 q 91 115 95 85 q 85 174 87 144 q 83 227 83 203 q 85 323 83 273 q 95 422 87 374 q 118 516 102 471 q 159 598 133 562 q 225 662 186 635 q 322 699 265 688 l 327 862 l 193 851 q 144 785 186 808 q 31 756 103 762 l 29 767 q 53 811 45 789 q 62 856 62 834 q 49 904 62 882 q 10 940 37 926 l 11 951 q 75 959 41 959 q 116 955 96 959 q 151 942 136 951 q 177 921 167 934 q 191 889 188 907 l 591 924 q 741 1008 611 1000 l 742 996 q 726 923 726 954 q 738 870 726 895 q 774 831 749 846 l 774 820 q 742 814 759 817 q 709 812 726 812 q 670 816 689 812 q 635 828 651 820 q 608 851 619 837 q 593 885 597 865 l 441 872 l 436 705 q 521 682 488 700 q 573 635 554 663 q 600 572 592 608 q 607 498 607 537 q 605 445 607 473 q 601 385 604 418 q 597 314 599 353 q 595 227 595 275 q 597 136 595 172 q 606 78 598 100 q 620 60 610 65 q 654 55 630 55 q 700 56 671 55 q 760 61 729 57 q 806 123 769 100 q 911 150 843 146 l 913 134 q 898 102 903 121 q 892 62 892 83 q 904 9 892 35 q 941 -29 915 -16 l 940 -44 q 911 -49 926 -47 q 882 -51 897 -51 q 842 -47 861 -51 q 806 -35 822 -43 q 778 -12 789 -26 q 762 21 766 1 q 627 0 678 5 q 552 -5 576 -5 q 494 9 511 -5 q 474 47 477 24 q 469 93 471 68 q 466 139 467 117 q 465 180 465 161 q 465 208 465 198 z "},"ሻ":{"ha":720,"x_min":10,"x_max":774,"o":"m 327 862 l 193 851 q 144 785 186 808 q 31 756 103 762 l 29 767 q 53 811 45 789 q 62 856 62 834 q 49 904 62 882 q 10 940 37 926 l 11 951 q 75 959 41 959 q 116 955 96 959 q 151 942 136 951 q 177 921 167 934 q 191 889 188 907 l 591 924 q 741 1008 611 1000 l 742 996 q 726 923 726 954 q 738 870 726 895 q 774 831 749 846 l 774 820 q 742 814 759 817 q 709 812 726 812 q 670 816 689 812 q 635 828 651 820 q 608 851 619 837 q 593 885 597 865 l 441 872 l 436 705 q 521 682 488 700 q 573 635 554 663 q 600 572 592 608 q 607 498 607 537 q 605 445 607 473 q 601 385 604 417 q 597 313 599 352 q 595 225 595 274 q 596 143 595 177 q 603 88 597 110 q 619 54 608 66 q 652 36 631 41 l 650 10 q 625 5 644 8 q 582 -2 605 1 q 538 -8 559 -6 q 505 -11 516 -11 q 490 -4 495 -11 q 481 14 485 2 q 473 60 476 32 q 468 116 470 87 q 466 169 467 144 q 465 205 465 194 q 467 291 465 248 q 471 372 469 334 q 474 443 473 411 q 476 492 476 474 q 472 551 476 522 q 457 604 468 581 q 425 643 446 628 q 373 658 405 658 q 311 643 337 658 q 268 605 286 628 q 241 555 251 583 q 225 502 231 527 q 218 456 220 476 q 217 427 217 435 q 219 370 217 397 q 227 321 220 342 q 245 286 233 299 q 278 271 257 272 l 277 246 q 252 239 271 243 q 212 231 234 235 q 167 224 189 227 q 132 221 145 221 q 114 224 122 221 q 101 237 106 227 q 94 268 97 250 q 88 307 90 287 q 84 348 85 328 q 83 385 83 368 q 93 477 83 428 q 130 571 103 526 q 203 650 157 616 q 322 699 250 685 l 327 862 z "},"ሼ":{"ha":910,"x_min":10,"x_max":883,"o":"m 465 212 q 467 296 465 254 q 471 375 469 338 q 474 444 473 413 q 476 492 476 474 q 472 551 476 522 q 457 604 468 581 q 425 643 446 628 q 373 658 405 658 q 308 637 334 658 q 264 583 281 616 q 237 508 247 550 q 223 425 228 467 q 218 347 219 384 q 218 285 218 309 q 218 244 218 269 q 221 194 219 220 q 226 143 223 168 q 233 104 229 119 q 256 60 240 73 q 297 41 272 47 l 296 16 q 270 9 290 14 q 227 0 250 4 q 179 -8 203 -5 q 142 -11 156 -11 q 124 -7 132 -11 q 111 14 117 -3 q 100 58 105 31 q 91 115 95 85 q 85 174 87 144 q 83 227 83 203 q 85 323 83 273 q 95 422 87 374 q 118 516 102 471 q 159 598 133 562 q 225 662 186 635 q 322 699 265 688 l 327 862 l 193 851 q 144 785 186 808 q 31 756 103 762 l 29 767 q 53 811 45 789 q 62 856 62 834 q 49 904 62 882 q 10 940 37 926 l 11 951 q 75 959 41 959 q 116 955 96 959 q 151 942 136 951 q 177 921 167 934 q 191 889 188 907 l 591 924 q 741 1008 611 1000 l 742 996 q 726 923 726 954 q 738 870 726 895 q 774 831 749 846 l 774 820 q 742 814 759 817 q 709 812 726 812 q 670 816 689 812 q 635 828 651 820 q 608 851 619 837 q 593 885 597 865 l 441 872 l 436 705 q 521 682 488 700 q 573 635 554 663 q 600 572 592 608 q 607 498 607 537 q 605 448 607 474 q 601 390 604 421 q 597 322 599 359 q 595 241 595 286 q 683 256 643 250 q 758 261 724 261 q 850 232 818 261 q 883 143 883 203 q 870 81 883 106 q 837 38 858 55 q 789 13 817 21 q 730 5 761 5 q 706 6 718 5 q 676 8 695 7 q 637 1 661 5 q 590 -5 614 -2 q 544 -9 566 -7 q 511 -11 522 -11 q 481 14 488 -11 q 472 62 475 33 q 468 120 469 91 q 466 175 466 150 q 465 212 465 201 m 595 158 q 597 106 595 128 q 608 69 600 84 q 632 47 616 54 q 676 39 648 39 q 713 47 697 39 q 739 67 728 54 q 753 97 749 80 q 758 134 758 114 q 741 193 758 171 q 682 215 724 215 q 643 212 665 215 q 595 205 621 210 l 595 158 z "},"ሽ":{"ha":753,"x_min":0,"x_max":705,"o":"m 705 797 q 673 791 690 793 q 640 789 656 789 q 601 793 620 789 q 566 805 582 797 q 539 828 550 814 q 524 862 528 842 l 407 852 l 497 703 q 574 677 544 696 q 622 631 604 658 q 646 570 639 604 q 652 498 652 536 q 651 445 652 473 q 647 385 649 417 q 643 313 644 352 q 641 225 641 274 q 642 143 641 177 q 648 88 643 110 q 665 54 653 66 q 697 36 676 41 l 696 10 q 670 5 690 8 q 628 -2 650 1 q 583 -8 605 -6 q 551 -11 562 -11 q 535 -4 541 -11 q 527 14 530 2 q 518 60 522 32 q 514 116 515 87 q 511 169 512 144 q 511 205 511 194 q 512 291 511 248 q 516 372 514 334 q 520 443 518 411 q 522 492 522 474 q 517 551 522 522 q 502 604 513 581 q 471 643 491 628 q 418 658 450 658 q 353 637 380 658 q 310 583 327 616 q 283 508 292 550 q 269 425 273 467 q 264 347 264 384 q 263 285 263 309 q 264 244 263 269 q 267 194 264 220 q 271 143 269 168 q 278 104 274 119 q 301 60 286 73 q 342 41 317 47 l 341 16 q 315 9 335 14 q 272 0 296 4 q 225 -8 248 -5 q 188 -11 201 -11 q 170 -7 178 -11 q 157 14 162 -3 q 145 58 151 31 q 137 115 140 85 q 131 174 133 144 q 129 227 129 203 q 131 323 129 273 q 140 422 133 373 q 163 516 148 471 q 205 598 178 561 q 271 661 231 635 q 367 699 311 688 l 281 841 l 183 833 q 134 767 176 790 q 21 739 93 744 l 19 749 q 43 794 35 771 q 52 838 52 817 q 39 886 52 864 q 0 922 26 908 l 1 933 q 64 941 31 941 q 105 937 85 941 q 141 925 125 933 q 167 903 157 916 q 180 871 178 890 l 522 901 q 571 960 532 940 q 676 985 610 981 l 673 973 q 657 900 657 930 q 668 847 657 871 q 705 808 680 823 l 705 797 z "},"ሾ":{"ha":747,"x_min":10,"x_max":774,"o":"m 373 658 q 308 637 334 658 q 264 583 281 616 q 237 508 247 550 q 223 425 228 467 q 218 347 219 384 q 218 285 218 309 q 218 244 218 269 q 221 194 219 220 q 226 143 223 168 q 233 104 229 119 q 256 60 240 73 q 297 41 272 47 l 296 16 q 270 9 290 14 q 227 0 250 4 q 179 -8 203 -5 q 142 -11 156 -11 q 124 -7 132 -11 q 111 14 117 -3 q 100 58 105 31 q 91 115 95 85 q 85 174 87 144 q 83 227 83 203 q 85 323 83 273 q 95 422 87 374 q 118 516 102 471 q 159 598 133 562 q 225 662 186 635 q 322 699 265 688 l 327 862 l 193 851 q 144 785 186 808 q 31 756 103 762 l 29 767 q 53 811 45 789 q 62 856 62 834 q 49 904 62 882 q 10 940 37 926 l 11 951 q 75 959 41 959 q 116 955 96 959 q 151 942 136 951 q 177 921 167 934 q 191 889 188 907 l 591 924 q 741 1008 611 1000 l 742 996 q 726 923 726 954 q 738 870 726 895 q 774 831 749 846 l 774 820 q 742 814 759 817 q 709 812 726 812 q 670 816 689 812 q 635 828 651 820 q 608 851 619 837 q 593 885 597 865 l 441 872 l 436 705 q 522 682 488 700 q 574 637 555 664 q 601 575 593 610 q 608 503 608 541 q 606 454 608 479 q 604 401 604 428 q 605 340 604 366 q 611 298 606 315 q 628 272 616 281 q 661 259 640 263 l 659 234 q 633 229 653 232 q 591 221 614 225 q 546 215 568 218 q 513 213 524 213 q 497 218 503 213 q 489 231 492 222 q 481 264 484 245 q 477 302 478 283 q 475 337 475 321 q 474 362 474 353 q 474 394 474 375 q 475 432 475 413 q 476 469 476 452 q 477 497 477 487 q 473 554 477 526 q 457 606 469 583 q 426 643 446 629 q 373 658 406 658 z "},"ሿ":{"ha":911,"x_min":14,"x_max":898,"o":"m 456 845 l 452 722 q 531 698 499 715 q 583 655 564 681 q 611 595 603 629 q 619 522 619 562 q 618 466 619 500 q 614 391 616 432 q 610 303 612 349 q 604 210 607 257 q 598 119 601 163 q 592 36 595 74 l 871 52 q 866 23 868 37 q 864 -1 864 10 q 871 -62 863 -32 q 897 -116 879 -93 l 898 -127 q 864 -134 881 -132 q 831 -136 847 -136 q 779 -126 803 -135 q 738 -99 755 -117 q 711 -57 720 -82 q 703 3 701 -31 l 314 -19 q 270 -139 311 -99 q 138 -178 229 -178 q 124 -178 131 -178 q 109 -178 117 -178 l 109 -165 q 140 -117 129 -144 q 151 -60 151 -89 q 150 -33 152 -46 q 143 -5 147 -19 l 142 10 l 460 28 q 466 103 463 61 q 472 192 469 146 q 478 286 475 239 q 483 377 481 334 q 486 457 485 420 q 488 518 488 494 q 483 580 488 552 q 466 627 478 608 q 435 658 454 647 q 387 669 416 669 q 309 645 339 669 q 260 581 278 622 q 235 484 242 540 q 229 364 229 429 q 230 308 229 334 q 238 264 232 283 q 255 234 243 245 q 288 220 267 222 l 286 195 q 263 189 280 193 q 225 181 246 184 q 183 174 204 177 q 150 172 163 172 q 132 174 140 172 q 119 191 123 177 q 103 256 109 219 q 98 334 98 293 q 110 478 98 413 q 149 591 121 543 q 222 672 176 640 q 334 718 267 704 l 340 839 l 187 831 q 28 742 170 747 l 27 753 q 53 797 43 774 q 62 840 62 819 q 52 888 64 866 q 14 926 39 911 l 15 937 q 79 943 45 944 q 152 924 123 942 q 185 869 181 906 l 610 893 q 656 950 621 930 q 755 971 690 969 l 756 960 q 739 887 739 921 q 748 834 737 859 q 783 793 758 810 l 783 782 q 718 776 751 774 q 647 795 676 777 q 611 854 618 813 l 456 845 z "},"ቀ":{"ha":782,"x_min":31,"x_max":772,"o":"m 31 458 q 60 557 31 518 q 136 618 90 595 q 238 649 182 640 q 347 657 294 657 l 355 657 q 361 657 357 657 q 368 656 364 657 q 381 728 375 693 q 393 793 388 762 q 395 814 395 803 q 388 845 395 831 q 362 861 381 859 l 362 886 q 397 893 379 890 q 432 899 416 897 q 463 903 449 902 q 484 905 476 905 q 518 892 509 905 q 527 861 527 880 q 526 847 527 854 q 524 831 525 840 q 508 750 516 794 q 492 661 500 707 q 550 668 522 665 q 609 671 578 671 q 672 665 642 671 q 724 642 701 658 q 759 602 746 627 q 772 540 772 576 q 757 463 772 495 q 716 407 742 430 q 657 369 691 384 q 587 347 624 355 q 510 335 549 338 q 435 331 471 332 q 415 205 425 265 q 399 94 406 146 q 397 70 397 82 q 404 40 397 52 q 433 27 412 28 l 433 2 q 399 -5 416 -2 q 365 -12 381 -9 q 335 -16 349 -14 q 315 -17 322 -17 q 276 -2 286 -17 q 265 35 265 12 q 267 56 265 44 q 287 184 276 116 q 311 328 298 252 q 262 323 288 325 q 214 321 237 321 q 147 327 180 321 q 88 349 114 334 q 46 392 62 365 q 31 458 31 418 m 361 618 q 282 612 319 618 q 217 590 245 606 q 172 546 189 574 q 156 473 156 517 q 187 392 156 417 q 271 367 218 367 q 294 368 282 367 q 318 370 306 369 l 361 618 m 534 623 q 512 623 522 623 q 485 621 503 623 l 442 372 q 525 382 488 372 q 589 411 563 392 q 630 458 616 430 q 645 523 645 486 q 615 598 645 574 q 534 623 585 623 z "},"ቁ":{"ha":795,"x_min":31,"x_max":774,"o":"m 31 458 q 60 557 31 518 q 136 618 90 595 q 238 649 182 640 q 347 657 294 657 l 355 657 q 361 657 357 657 q 368 656 364 657 q 381 728 375 693 q 393 793 388 762 q 395 814 395 803 q 388 845 395 831 q 362 861 381 859 l 362 886 q 397 893 379 890 q 432 899 416 897 q 463 903 449 902 q 484 905 476 905 q 518 892 509 905 q 527 861 527 880 q 526 847 527 854 q 524 831 525 840 q 509 751 516 794 q 493 663 501 708 q 552 670 522 667 q 612 673 581 673 q 674 666 645 673 q 726 645 704 660 q 762 605 749 629 q 774 543 774 580 q 760 466 774 498 q 719 411 745 434 q 659 374 693 389 q 588 352 625 360 q 511 340 551 344 q 436 336 472 337 q 426 270 431 302 q 415 205 420 238 l 576 218 q 594 251 582 237 q 624 273 607 264 q 660 287 640 282 q 701 292 680 292 q 721 292 711 292 q 740 290 730 291 l 741 277 q 720 245 727 267 q 713 199 712 223 q 724 155 714 176 q 756 126 734 135 l 757 114 q 688 99 727 99 q 618 119 650 99 q 576 181 587 138 l 410 168 q 404 130 406 148 q 399 94 401 111 q 397 70 397 82 q 404 40 397 52 q 433 27 412 28 l 433 2 q 399 -5 416 -2 q 365 -12 381 -9 q 335 -16 349 -14 q 315 -17 322 -17 q 276 -2 286 -17 q 265 35 265 12 q 267 56 265 44 q 287 184 276 116 q 311 328 298 252 q 262 323 288 325 q 214 321 237 321 q 147 327 180 321 q 88 349 114 334 q 46 392 62 365 q 31 458 31 418 m 361 618 q 282 612 319 618 q 217 590 245 606 q 172 546 189 574 q 156 473 156 517 q 187 392 156 417 q 271 367 218 367 q 294 368 282 367 q 318 370 306 369 l 361 618 m 536 625 q 514 624 525 625 q 486 623 503 624 l 443 377 q 527 387 489 378 q 591 415 564 397 q 633 461 618 434 q 648 526 648 489 q 618 601 648 577 q 536 625 588 625 z "},"ቂ":{"ha":792,"x_min":31,"x_max":772,"o":"m 311 328 q 262 323 288 325 q 214 321 237 321 q 147 327 180 321 q 88 349 114 334 q 46 392 62 365 q 31 458 31 418 q 60 557 31 518 q 136 618 90 595 q 238 649 182 640 q 347 657 294 657 l 355 657 q 360 657 357 657 q 368 656 363 657 q 381 728 375 693 q 393 793 388 762 q 395 814 395 803 q 388 845 395 831 q 362 861 381 859 l 362 886 q 397 893 379 890 q 432 899 416 897 q 463 903 449 902 q 484 905 476 905 q 518 892 509 905 q 527 861 527 880 q 526 847 527 854 q 524 831 525 840 q 508 750 516 794 q 492 661 500 707 q 550 668 522 665 q 609 671 578 671 q 672 665 642 671 q 724 642 701 658 q 759 602 746 627 q 772 540 772 576 q 757 463 772 495 q 716 407 742 430 q 657 369 691 384 q 587 347 624 355 q 510 335 549 338 q 435 331 471 332 q 415 205 425 265 q 399 94 406 146 q 397 82 398 89 q 397 69 397 76 q 401 48 397 58 q 421 39 406 39 q 445 40 429 39 q 481 42 462 41 q 521 46 501 44 q 555 50 541 47 q 601 112 564 89 q 706 138 638 135 l 708 123 q 692 87 698 107 q 686 45 686 66 q 697 -9 686 16 q 733 -46 708 -34 l 732 -61 q 703 -66 718 -64 q 673 -68 688 -68 q 633 -63 653 -68 q 597 -49 614 -58 q 570 -25 581 -39 q 554 9 558 -10 q 477 -1 514 3 q 409 -10 440 -6 q 353 -15 377 -14 q 313 -17 328 -17 q 276 -2 286 -17 q 266 33 266 12 q 266 45 266 39 q 267 56 267 51 q 287 184 275 116 q 311 328 298 252 m 361 618 q 282 612 319 618 q 217 590 245 606 q 172 546 189 574 q 156 473 156 517 q 187 392 156 417 q 271 367 218 367 q 294 368 282 367 q 318 370 306 369 l 361 618 m 534 623 q 512 623 522 623 q 485 621 503 623 l 442 372 q 525 382 488 372 q 589 411 563 392 q 630 458 616 430 q 645 523 645 486 q 615 598 645 574 q 534 623 585 623 z "},"ቃ":{"ha":950,"x_min":7,"x_max":940,"o":"m 510 783 q 509 804 510 793 q 504 824 508 814 q 492 839 500 833 q 472 847 485 846 l 472 872 q 506 880 488 876 q 538 886 523 883 q 567 890 554 888 q 588 891 580 891 q 614 885 604 891 q 628 869 623 879 q 633 846 632 859 q 634 821 634 833 l 634 660 q 698 668 665 665 q 766 671 731 671 q 829 665 798 671 q 885 645 860 660 q 925 606 909 631 q 940 542 940 581 q 927 477 940 505 q 891 432 913 450 q 838 401 868 413 q 774 382 808 389 q 704 373 740 376 q 634 368 668 370 q 606 254 633 300 q 539 176 580 207 q 448 129 498 146 q 349 103 398 111 q 257 93 300 95 q 189 90 215 91 q 190 80 190 85 q 191 69 191 75 q 181 8 191 36 q 154 -39 171 -19 q 112 -70 136 -59 q 60 -81 88 -81 q 7 -71 34 -81 q 50 55 50 -11 q 41 117 50 84 l 45 122 q 160 129 103 125 q 269 141 217 133 q 364 163 320 149 q 440 204 408 178 q 491 268 472 229 q 511 362 509 307 q 481 358 497 360 q 449 355 465 357 q 419 353 433 354 q 393 353 404 353 q 329 359 362 353 q 269 379 296 365 q 223 419 241 394 q 203 481 205 444 q 214 548 200 520 q 253 594 228 575 q 311 623 278 612 q 378 640 343 634 q 448 648 414 646 q 510 650 482 650 l 510 783 m 510 612 q 443 608 475 610 q 385 595 410 606 q 343 564 359 585 q 327 503 328 542 q 337 454 327 474 q 366 422 348 435 q 408 405 384 410 q 459 399 432 399 q 482 400 472 399 q 510 403 492 401 l 510 612 m 634 409 q 703 416 671 412 q 760 432 736 420 q 799 467 785 444 q 813 529 813 490 q 804 573 813 555 q 780 604 795 592 q 742 622 764 616 q 696 627 721 627 q 634 621 667 627 l 634 409 z "},"ቄ":{"ha":795,"x_min":31,"x_max":774,"o":"m 311 328 q 262 323 288 325 q 214 321 237 321 q 147 327 180 321 q 88 349 114 334 q 46 392 62 365 q 31 458 31 418 q 60 557 31 518 q 136 618 90 595 q 238 649 182 640 q 347 657 294 657 l 355 657 q 361 657 358 657 q 368 656 365 657 q 381 728 375 693 q 393 793 388 762 q 395 814 395 803 q 388 845 395 831 q 362 861 381 859 l 362 886 q 397 893 379 890 q 432 899 416 897 q 463 903 449 902 q 484 905 476 905 q 518 892 509 905 q 527 861 527 880 q 526 847 527 854 q 524 831 525 840 q 509 751 516 794 q 493 663 501 708 q 552 670 522 667 q 612 673 581 673 q 674 666 645 673 q 726 645 704 660 q 762 605 749 629 q 774 543 774 580 q 760 466 774 498 q 719 411 745 434 q 659 374 693 389 q 588 352 625 360 q 511 340 551 344 q 436 336 472 337 q 428 289 432 313 q 420 241 424 264 q 513 255 470 250 q 591 260 556 260 q 675 237 644 260 q 706 164 706 215 q 691 92 706 123 q 652 42 677 62 q 593 12 627 22 q 520 2 559 2 q 498 3 509 2 q 471 5 487 3 q 432 -2 455 2 q 387 -9 410 -5 q 344 -15 364 -12 q 311 -17 323 -17 q 275 -2 284 -17 q 265 33 265 12 q 267 56 265 42 q 287 184 276 116 q 311 328 298 252 m 361 618 q 282 612 319 618 q 217 590 245 606 q 172 546 189 574 q 156 473 156 517 q 187 392 156 417 q 271 367 218 367 q 294 368 282 367 q 318 370 306 369 l 361 618 m 536 625 q 514 624 525 625 q 486 623 503 624 l 443 377 q 527 387 489 378 q 591 415 564 397 q 633 461 618 434 q 648 526 648 489 q 618 601 648 577 q 536 625 588 625 m 409 162 q 405 132 406 146 q 403 106 403 118 q 405 76 402 89 q 417 56 408 64 q 440 43 425 47 q 478 39 455 39 q 522 48 503 39 q 554 73 541 58 q 575 110 568 89 q 582 153 582 130 q 563 199 582 186 q 510 212 545 212 q 468 211 492 212 q 416 205 444 209 l 409 162 z "},"ቅ":{"ha":782,"x_min":31,"x_max":772,"o":"m 492 661 q 550 668 522 665 q 609 671 578 671 q 672 665 642 671 q 724 642 701 658 q 759 602 746 627 q 772 540 772 576 q 757 463 772 495 q 716 407 742 430 q 657 369 691 384 q 587 347 624 355 q 510 335 549 338 q 435 331 471 332 q 415 205 425 265 q 399 94 406 146 q 397 70 397 82 q 404 40 397 52 q 433 27 412 28 l 433 2 q 399 -5 416 -2 q 365 -12 381 -9 q 335 -16 349 -14 q 315 -17 322 -17 q 276 -2 286 -17 q 265 35 265 12 q 267 56 265 44 q 287 184 276 116 q 311 328 298 252 q 262 323 288 325 q 214 321 237 321 q 147 327 180 321 q 88 349 114 334 q 46 392 62 365 q 31 458 31 418 q 60 557 31 518 q 136 618 90 595 q 238 649 182 640 q 347 657 294 657 l 355 657 q 361 657 357 657 q 368 656 364 657 q 381 727 375 693 q 393 793 388 762 q 396 815 396 801 q 390 839 396 829 q 370 855 385 848 q 333 867 356 862 q 274 875 309 871 q 216 861 248 864 q 157 857 185 857 l 155 867 q 191 951 191 906 q 180 992 191 972 q 143 1026 169 1012 l 144 1037 q 171 1041 157 1040 q 199 1042 184 1042 q 246 1038 221 1042 q 291 1026 271 1035 q 326 1000 312 1017 q 339 958 339 984 q 330 923 339 937 q 307 897 320 908 l 308 896 q 359 900 331 898 q 412 902 387 901 q 458 904 438 903 q 484 905 478 905 q 518 892 509 905 q 527 861 527 880 q 526 847 527 854 q 524 831 525 840 q 508 750 516 794 q 492 661 500 707 m 361 618 q 282 612 319 618 q 217 590 245 606 q 172 546 189 574 q 156 473 156 517 q 187 392 156 417 q 271 367 218 367 q 294 368 282 367 q 318 370 306 369 l 361 618 m 534 623 q 512 623 522 623 q 485 621 503 623 l 442 372 q 525 382 488 372 q 589 411 563 392 q 630 458 616 430 q 645 523 645 486 q 615 598 645 574 q 534 623 585 623 z "},"ቆ":{"ha":761,"x_min":20,"x_max":744,"o":"m 298 228 q 257 221 279 224 q 212 219 235 219 q 143 226 177 219 q 81 249 109 233 q 37 291 54 264 q 20 357 20 317 q 34 420 20 393 q 71 468 47 447 q 124 503 94 488 q 186 529 154 518 q 253 548 219 540 q 315 562 286 555 q 292 595 306 577 q 265 635 278 614 q 243 681 252 656 q 235 734 235 705 q 257 813 235 779 q 316 869 280 847 q 395 903 351 892 q 479 914 438 914 q 535 907 508 914 q 583 886 562 901 q 617 849 604 871 q 629 795 629 826 q 614 720 629 752 q 574 662 600 687 q 516 618 549 637 q 447 582 484 599 q 451 570 450 576 q 452 557 452 564 q 511 567 481 562 q 572 572 542 572 q 638 565 607 572 q 693 540 669 557 q 730 496 716 523 q 744 433 744 470 q 715 334 744 372 q 640 276 686 296 q 541 249 595 256 q 436 242 486 242 l 423 242 q 422 225 422 234 q 420 205 421 216 l 416 165 q 414 127 415 146 q 412 94 412 109 q 412 70 410 82 q 421 40 413 52 q 452 27 430 28 l 453 2 q 419 -5 436 -2 q 386 -12 401 -9 q 357 -16 370 -14 q 336 -17 344 -17 q 296 -2 307 -17 q 283 35 284 12 q 283 56 281 45 q 285 85 283 66 q 288 127 286 104 q 293 176 290 151 q 298 225 296 201 l 298 228 m 500 524 q 477 523 488 524 q 451 518 467 522 l 427 283 l 437 283 q 508 290 475 283 q 566 313 541 297 q 604 354 590 329 q 618 416 618 380 q 586 497 618 469 q 500 524 553 524 m 328 527 q 257 510 290 521 q 198 480 224 498 q 158 434 173 461 q 144 370 144 407 q 175 291 144 317 q 264 265 207 265 q 281 266 272 265 q 302 269 290 267 l 328 527 m 431 614 q 470 644 454 629 q 496 677 486 659 q 511 717 507 695 q 516 767 516 739 q 512 805 516 787 q 497 835 507 822 q 472 855 488 848 q 435 863 457 863 q 399 858 416 863 q 371 842 383 852 q 352 818 359 832 q 345 785 345 804 q 354 740 345 763 q 376 694 363 717 q 404 652 389 672 q 431 614 418 631 z "},"ቈ":{"ha":854,"x_min":31,"x_max":827,"o":"m 31 507 q 60 605 31 566 q 136 666 90 644 q 238 697 182 688 q 347 705 294 705 l 355 705 q 361 705 357 705 q 368 705 364 705 q 374 738 372 723 q 379 765 377 752 q 385 791 382 779 q 390 820 387 804 q 392 841 392 830 q 385 872 392 859 q 359 888 378 886 l 359 913 q 394 920 376 917 q 429 926 412 924 q 459 930 446 929 q 481 932 473 932 q 514 920 505 932 q 524 888 524 907 q 523 874 524 882 q 520 859 522 867 q 514 823 517 840 q 507 789 511 806 q 500 752 504 771 q 493 711 497 733 q 552 718 522 715 q 612 721 581 721 q 674 714 645 721 q 726 693 704 708 q 762 653 749 677 q 774 591 774 628 q 760 514 774 547 q 719 459 745 482 q 659 422 693 437 q 588 400 625 408 q 511 389 551 392 q 436 385 472 385 q 428 337 432 361 q 420 288 424 313 q 502 291 470 289 q 555 296 534 293 q 590 302 576 299 q 617 308 604 305 q 657 315 639 312 q 699 317 675 317 q 793 288 758 317 q 827 196 827 258 q 819 149 827 174 q 795 104 810 125 q 760 70 781 83 q 715 57 739 57 q 685 59 703 57 q 653 62 667 62 q 630 60 642 62 q 607 55 618 58 q 585 51 595 53 q 568 49 574 49 q 533 58 549 49 q 505 82 517 68 q 487 115 494 97 q 481 149 481 132 q 488 199 481 170 q 508 254 494 229 l 414 251 q 402 171 408 210 q 391 94 397 131 q 389 70 389 82 q 397 40 389 52 q 426 27 404 28 l 426 2 q 391 -5 409 -2 q 357 -12 374 -9 q 328 -16 341 -14 q 307 -17 315 -17 q 268 -2 279 -17 q 258 35 258 12 q 260 56 258 44 q 270 125 264 85 q 283 208 276 165 q 298 295 290 252 q 311 376 305 339 q 262 371 288 373 q 214 369 237 369 q 147 375 180 369 q 88 397 114 382 q 46 440 62 413 q 31 507 31 467 m 361 666 q 282 660 319 666 q 217 638 245 654 q 172 594 189 622 q 156 522 156 566 q 187 440 156 465 q 271 415 218 415 q 294 416 282 415 q 318 418 306 417 l 361 666 m 536 673 q 514 672 525 673 q 486 671 503 672 l 443 425 q 527 435 489 426 q 591 464 564 445 q 633 510 618 482 q 648 574 648 537 q 618 649 648 625 q 536 673 588 673 m 648 98 q 680 106 666 98 q 704 130 694 115 q 719 162 713 144 q 724 199 724 180 q 709 254 724 233 q 665 275 694 275 q 628 268 643 275 q 604 248 613 260 q 591 218 595 235 q 587 181 587 201 q 590 150 587 165 q 602 123 594 135 q 621 105 609 112 q 648 98 632 98 z "},"ቊ":{"ha":1258,"x_min":31,"x_max":1241,"o":"m 358 683 q 363 718 361 701 q 368 751 365 734 l 377 819 q 378 830 378 825 q 379 842 379 836 q 373 872 379 859 q 346 887 366 885 l 346 912 q 381 920 363 916 q 416 926 399 923 q 446 930 433 928 q 468 931 460 931 q 502 918 494 931 q 510 887 510 905 q 509 872 510 880 q 507 858 509 865 q 495 773 501 815 q 484 688 489 731 q 541 695 512 692 q 601 698 570 698 q 664 690 634 698 q 718 665 694 682 q 754 624 741 649 q 768 564 768 598 l 892 568 q 900 597 897 583 q 907 626 904 611 q 910 640 909 633 q 911 651 911 646 q 903 679 911 667 q 876 694 896 692 l 876 719 q 912 726 893 723 q 948 732 930 730 q 979 736 965 735 q 1001 738 993 738 q 1036 725 1027 738 q 1044 694 1044 711 q 1043 679 1044 686 q 1040 665 1042 672 q 1029 618 1035 644 q 1018 566 1023 593 q 1006 513 1012 539 q 996 465 1000 487 l 1214 471 q 1202 431 1206 453 q 1198 387 1198 409 q 1208 333 1198 359 q 1241 291 1217 307 l 1240 280 q 1179 269 1210 269 q 1124 280 1147 269 q 1084 313 1100 292 q 1061 362 1069 334 q 1055 425 1054 391 q 1022 424 1037 425 q 992 423 1006 423 q 962 422 977 422 q 929 422 947 422 q 900 426 911 422 q 882 436 888 430 q 873 450 876 442 q 871 467 871 458 q 873 482 871 475 q 876 496 874 489 l 882 527 l 764 523 q 742 463 758 488 q 700 419 725 437 q 645 389 675 401 q 581 371 614 378 q 512 361 547 363 q 442 357 476 358 q 427 224 434 290 q 412 94 419 158 q 411 82 412 89 q 411 70 411 76 q 418 40 411 53 q 447 27 425 27 l 447 2 q 412 -5 430 -2 q 378 -12 395 -9 q 349 -16 362 -14 q 328 -17 336 -17 q 290 -1 300 -17 q 279 37 279 15 q 280 46 279 42 q 281 56 280 51 q 297 202 288 128 q 315 355 306 277 q 267 349 292 351 q 218 347 242 347 q 150 355 184 347 q 90 378 117 362 q 47 421 64 395 q 31 486 31 448 q 44 557 31 527 q 81 610 58 588 q 135 646 104 632 q 200 669 165 661 q 270 680 234 677 q 338 684 305 684 l 346 684 q 352 684 349 684 q 358 683 355 684 m 353 644 q 276 638 312 644 q 213 617 240 633 q 170 574 186 602 q 155 505 155 547 q 186 421 155 450 q 275 393 217 393 q 297 394 285 393 q 321 396 309 395 l 353 644 m 447 398 q 524 408 488 400 q 586 434 559 416 q 627 478 612 451 q 642 545 642 505 q 611 623 642 595 q 527 650 580 650 q 505 649 515 650 q 478 648 495 649 l 447 398 z "},"ቋ":{"ha":795,"x_min":42,"x_max":785,"o":"m 87 258 q 196 270 142 265 q 304 279 249 275 q 317 376 311 330 q 328 455 323 422 q 279 450 304 452 q 230 448 254 448 q 159 456 193 448 q 99 483 125 464 q 58 532 73 502 q 42 606 42 562 q 72 707 42 668 q 147 769 101 747 q 248 800 193 791 q 353 808 302 808 l 362 808 q 369 808 366 808 q 377 808 372 808 q 379 818 378 813 q 380 826 380 822 l 383 843 q 386 861 385 852 q 389 884 387 871 q 390 891 390 887 q 391 899 391 895 q 389 918 391 908 q 383 935 387 927 q 373 947 379 942 q 356 951 366 951 l 355 977 q 390 984 372 981 q 424 990 408 987 q 454 994 441 993 q 476 996 468 996 q 498 992 490 996 q 512 981 507 988 q 518 966 517 975 q 520 948 520 958 q 518 922 520 935 q 513 894 515 906 q 510 871 511 882 q 506 846 508 859 q 501 812 504 832 q 559 820 530 817 q 618 823 587 823 q 684 814 653 823 q 737 787 714 806 q 772 741 760 769 q 785 673 785 713 q 771 595 785 629 q 732 538 757 562 q 674 499 707 515 q 605 475 642 484 q 528 462 568 466 q 452 458 489 458 q 441 380 448 427 q 429 283 435 334 q 440 283 434 283 q 452 283 446 283 l 475 283 q 507 283 490 283 q 541 282 524 283 q 573 280 557 281 q 602 278 589 279 q 634 239 634 275 q 632 190 634 223 q 631 118 631 157 q 637 54 631 75 q 665 32 644 33 l 665 7 q 598 -6 630 -1 q 551 -11 567 -11 q 528 -7 536 -11 q 514 6 519 -3 q 509 28 510 15 q 507 62 507 42 q 508 111 507 90 q 508 155 508 132 q 507 200 508 180 q 504 223 507 220 q 489 234 500 230 q 461 239 477 237 q 426 242 446 241 q 388 243 407 243 q 294 240 336 243 q 232 235 252 237 q 224 170 236 201 q 189 116 212 139 q 132 80 165 93 q 60 69 98 67 l 56 79 q 86 137 77 107 q 95 198 95 167 q 93 226 95 212 q 87 258 91 241 m 372 769 q 291 763 328 770 q 226 739 254 756 q 183 692 199 722 q 168 620 168 663 q 197 526 168 558 q 286 494 227 494 q 309 495 297 494 q 333 497 321 496 l 372 769 m 544 774 q 523 774 532 774 q 495 772 513 774 l 457 498 q 541 509 503 499 q 604 539 578 519 q 645 589 631 559 q 659 659 659 618 q 629 744 659 714 q 544 774 600 774 z "},"ቌ":{"ha":791,"x_min":5,"x_max":781,"o":"m 367 733 q 371 771 369 753 q 375 806 374 790 q 376 815 376 811 q 376 824 376 820 q 369 859 376 845 q 340 874 361 873 l 338 899 q 373 907 355 903 q 407 913 391 910 q 437 917 424 916 q 459 918 451 918 q 481 914 473 918 q 495 902 490 909 q 503 886 500 895 q 505 867 505 877 q 504 856 505 861 q 503 845 504 850 q 497 794 500 821 q 492 739 495 768 q 550 746 520 743 q 610 749 579 749 q 675 742 644 749 q 729 718 706 734 q 767 676 753 701 q 781 615 781 650 q 766 542 781 572 q 727 489 752 511 q 670 455 703 468 q 602 434 638 441 q 528 424 566 427 q 456 420 491 421 q 451 376 454 399 q 447 332 449 354 q 527 345 492 340 q 595 350 563 350 q 643 344 621 350 q 681 325 665 338 q 705 291 696 311 q 714 244 714 271 q 702 177 714 205 q 668 130 690 149 q 616 102 646 111 q 550 93 586 93 q 529 94 538 93 q 503 96 519 94 q 449 85 478 91 q 374 73 420 80 l 176 40 q 178 26 177 33 q 178 11 178 18 q 168 -45 178 -19 q 139 -92 157 -72 q 96 -123 121 -111 q 45 -134 72 -134 q 5 -128 24 -134 q 28 -71 20 -100 q 36 -14 36 -43 q 33 19 36 2 q 24 53 30 37 l 315 102 q 306 123 309 111 q 305 147 304 136 q 317 272 311 205 q 332 412 324 338 q 283 407 308 409 q 235 405 258 405 q 164 413 199 405 q 102 437 130 420 q 59 481 75 454 q 42 548 42 509 q 55 615 42 587 q 91 664 68 644 q 144 699 114 685 q 208 720 174 712 q 277 731 242 728 q 346 734 313 734 l 354 734 q 360 734 357 734 q 367 733 363 734 m 363 694 q 287 689 322 694 q 224 669 251 684 q 183 629 198 654 q 168 564 168 604 q 199 480 168 509 q 290 451 230 451 q 312 452 300 451 q 336 454 324 453 l 363 694 m 537 701 q 515 701 526 701 q 486 699 504 701 l 460 461 q 537 470 502 463 q 599 493 573 477 q 640 533 625 508 q 655 595 655 557 q 624 675 655 648 q 537 701 592 701 m 439 253 q 437 228 438 240 q 437 205 437 216 q 439 175 437 189 q 450 151 442 161 q 472 136 458 141 q 507 130 486 130 q 544 138 528 130 q 570 161 559 146 q 586 194 581 175 q 591 235 591 213 q 571 287 591 271 q 518 302 551 302 q 485 301 503 302 q 444 296 468 300 l 439 253 z "},"ቍ":{"ha":1217,"x_min":31,"x_max":1200,"o":"m 355 714 q 359 743 357 730 q 363 767 361 755 q 367 791 365 779 q 371 819 369 804 q 372 830 372 825 q 373 842 373 836 q 367 872 373 859 q 340 887 360 885 l 340 912 q 375 920 357 916 q 410 926 393 923 q 440 930 427 928 q 462 931 454 931 q 496 918 488 931 q 504 887 504 905 q 503 872 504 880 q 501 858 503 865 q 495 821 498 838 q 491 789 493 805 q 486 756 488 773 q 481 719 484 739 q 538 726 509 723 q 597 729 566 729 q 659 721 629 729 q 711 695 688 713 q 747 652 734 678 q 761 589 761 625 l 895 593 q 898 628 896 609 q 901 665 899 646 q 902 675 901 670 q 902 686 902 680 q 896 716 902 703 q 866 732 889 730 l 866 758 q 901 765 883 762 q 937 771 920 768 q 967 775 954 774 q 989 777 981 777 q 1024 763 1015 777 q 1033 732 1033 750 q 1031 703 1033 718 q 1025 655 1028 683 q 1019 597 1023 627 l 1173 603 q 1162 563 1166 585 q 1158 519 1158 541 q 1167 465 1158 491 q 1200 423 1177 439 l 1200 412 q 1139 401 1169 401 q 1083 413 1107 401 q 1044 445 1059 425 q 1021 494 1028 466 q 1015 556 1013 523 l 757 548 q 715 460 747 494 q 638 409 683 427 q 541 384 593 391 q 438 376 488 377 q 430 307 434 344 q 421 234 425 271 q 413 161 417 197 q 406 94 410 125 q 405 82 406 89 q 405 70 405 76 q 412 40 405 53 q 441 27 418 27 l 441 2 q 406 -5 424 -2 q 372 -12 389 -9 q 343 -16 356 -14 q 322 -17 330 -17 q 283 -1 294 -17 q 273 37 273 15 q 274 46 273 42 q 275 56 274 51 q 283 131 279 92 q 292 212 288 171 q 302 295 297 254 q 311 374 307 336 q 263 368 288 370 q 216 366 239 366 q 149 374 182 366 q 89 398 115 381 q 47 442 63 415 q 31 509 31 469 q 44 584 31 552 q 80 638 58 616 q 134 676 103 661 q 198 700 164 691 q 267 711 232 708 q 335 715 302 715 l 342 715 q 349 715 345 715 q 355 714 352 715 m 350 675 q 274 669 309 675 q 212 647 238 663 q 170 602 185 631 q 155 530 155 574 q 185 441 155 470 q 272 412 216 412 q 293 413 281 412 q 317 415 305 414 l 350 675 m 443 417 q 519 428 484 419 q 580 454 554 436 q 621 500 606 472 q 635 571 635 529 q 606 652 635 624 q 523 681 576 681 q 502 681 512 681 q 475 679 492 680 l 443 417 z "},"ቐ":{"ha":783,"x_min":33,"x_max":808,"o":"m 501 916 q 511 888 508 903 q 513 859 513 874 q 512 841 513 850 q 511 827 511 832 q 506 794 508 809 q 501 764 503 779 q 496 732 498 749 q 490 692 493 715 q 547 700 519 696 q 606 703 576 703 q 671 695 641 703 q 724 671 702 687 q 760 629 747 654 q 772 566 772 603 q 758 491 772 523 q 719 437 743 459 q 661 400 694 414 q 591 378 628 386 q 516 366 555 370 q 441 362 477 363 q 432 293 437 330 q 422 221 427 256 q 413 152 417 185 q 406 94 409 119 q 405 85 406 90 q 405 75 405 80 q 407 57 405 66 q 412 42 408 49 q 424 31 416 35 q 443 27 431 27 l 444 2 q 409 -5 427 -2 q 375 -12 391 -9 q 347 -16 359 -14 q 326 -17 334 -17 q 286 -1 297 -17 q 275 37 275 16 q 276 47 275 42 q 277 56 276 52 q 285 121 280 85 q 295 195 290 157 q 306 274 300 234 q 317 351 311 314 q 269 345 293 347 q 221 342 245 342 q 151 350 185 342 q 91 374 117 357 q 49 417 65 391 q 33 483 33 444 q 49 556 33 525 q 92 609 65 587 q 153 646 119 631 q 225 668 188 660 q 298 680 262 677 q 366 684 335 684 q 371 716 368 703 q 375 741 373 729 q 379 765 377 753 q 383 793 381 777 q 386 816 385 801 q 388 846 388 831 q 385 877 388 861 q 375 906 382 892 l 222 893 q 175 827 215 850 q 62 798 134 804 l 60 809 q 84 853 76 831 q 93 898 93 876 q 80 946 93 924 q 41 982 68 968 l 42 993 q 106 1001 73 1001 q 147 997 127 1001 q 182 984 167 993 q 207 963 197 976 q 220 931 217 949 l 623 966 q 774 1050 643 1042 l 776 1038 q 760 965 760 996 q 771 912 760 937 q 808 873 783 888 l 808 862 q 776 856 793 859 q 743 854 760 854 q 704 858 723 854 q 668 870 684 862 q 641 893 652 879 q 625 927 629 907 l 501 916 m 360 646 q 287 637 323 644 q 222 613 251 629 q 176 568 193 596 q 158 498 158 541 q 189 417 158 445 q 277 389 220 389 q 299 390 288 389 q 322 393 310 391 l 360 646 m 447 403 q 522 411 486 404 q 585 436 557 419 q 629 482 612 454 q 646 552 646 510 q 636 600 646 581 q 609 632 626 620 q 570 650 592 644 q 523 655 547 655 q 503 654 513 655 q 484 652 493 654 l 447 403 z "},"ቑ":{"ha":795,"x_min":33,"x_max":808,"o":"m 501 916 q 511 888 508 903 q 513 859 513 874 q 512 841 513 850 q 511 827 511 832 q 506 794 508 809 q 501 764 503 779 q 496 732 498 749 q 490 692 493 715 q 547 700 519 696 q 606 703 576 703 q 671 695 641 703 q 724 671 702 687 q 760 629 747 654 q 772 566 772 603 q 758 491 772 523 q 719 437 743 459 q 661 400 694 414 q 591 378 628 386 q 516 366 555 370 q 441 362 477 363 q 431 290 436 328 q 421 216 427 253 l 547 227 q 566 260 553 246 q 595 283 578 274 q 631 297 612 292 q 672 302 651 302 q 692 302 682 302 q 711 300 702 301 l 712 288 q 691 255 699 276 q 684 212 684 235 q 694 166 684 188 q 726 136 705 144 l 727 124 q 659 109 697 109 q 589 129 620 109 q 547 191 557 149 l 416 180 q 411 134 413 156 q 406 94 408 112 q 405 85 406 90 q 405 75 405 80 q 407 57 405 66 q 412 42 408 49 q 424 31 416 35 q 443 27 431 27 l 444 2 q 409 -5 427 -2 q 375 -12 391 -9 q 347 -16 359 -14 q 326 -17 334 -17 q 286 -1 297 -17 q 275 37 275 16 q 276 47 275 42 q 277 56 276 52 q 285 121 280 85 q 295 195 290 157 q 306 274 300 234 q 317 351 311 314 q 269 345 293 347 q 221 342 245 342 q 151 350 185 342 q 91 374 117 357 q 49 417 65 391 q 33 483 33 444 q 49 556 33 525 q 92 609 65 587 q 153 646 119 631 q 225 668 188 660 q 298 680 262 677 q 366 684 335 684 q 371 716 368 703 q 375 741 373 729 q 379 765 377 753 q 383 793 381 777 q 386 816 385 801 q 388 846 388 831 q 385 877 388 861 q 375 906 382 892 l 222 893 q 175 827 215 850 q 62 798 134 804 l 60 809 q 84 853 76 831 q 93 898 93 876 q 80 946 93 924 q 41 982 68 968 l 42 993 q 106 1001 73 1001 q 147 997 127 1001 q 182 984 167 993 q 207 963 197 976 q 220 931 217 949 l 623 966 q 774 1050 643 1042 l 776 1038 q 760 965 760 996 q 771 912 760 937 q 808 873 783 888 l 808 862 q 776 856 793 859 q 743 854 760 854 q 704 858 723 854 q 668 870 684 862 q 641 893 652 879 q 625 927 629 907 l 501 916 m 360 646 q 287 637 323 644 q 222 613 251 630 q 176 569 193 596 q 158 499 158 541 q 189 417 158 446 q 277 389 220 389 q 299 390 288 389 q 322 393 310 391 l 360 646 m 447 403 q 522 411 486 404 q 585 436 557 419 q 629 482 612 454 q 646 552 646 510 q 636 600 646 581 q 609 632 626 620 q 570 650 592 644 q 523 655 547 655 q 503 654 513 655 q 484 652 493 654 l 447 403 z "},"ቒ":{"ha":792,"x_min":31,"x_max":806,"o":"m 498 916 q 508 888 505 903 q 511 859 511 874 q 510 841 511 850 q 508 827 509 832 q 503 794 505 809 q 498 764 500 779 q 493 732 496 749 q 487 692 490 715 q 545 700 516 696 q 604 703 573 703 q 669 695 638 703 q 722 671 699 687 q 757 629 744 654 q 770 566 770 603 q 755 491 770 523 q 716 437 741 459 q 658 400 691 414 q 589 378 625 386 q 513 366 552 370 q 439 362 475 363 q 430 300 435 335 q 419 229 425 266 q 410 156 414 193 q 403 91 406 120 q 409 52 400 64 q 444 39 418 39 q 506 41 477 39 q 570 47 535 43 q 722 134 590 127 l 724 118 q 707 82 713 102 q 702 39 702 61 q 713 -15 702 10 q 749 -53 724 -41 l 748 -68 q 720 -73 734 -71 q 690 -75 705 -75 q 649 -71 669 -75 q 613 -58 629 -67 q 585 -33 597 -49 q 570 7 574 -17 q 492 -3 530 1 q 423 -11 455 -8 q 366 -16 391 -14 q 323 -17 340 -17 q 283 -1 294 -17 q 273 37 273 16 q 273 47 273 42 q 274 56 273 52 q 282 121 277 85 q 292 195 287 157 q 303 274 297 234 q 314 351 309 314 q 266 345 290 347 q 218 342 242 342 q 149 350 182 342 q 89 374 115 357 q 46 417 62 391 q 31 483 31 444 q 46 556 31 525 q 89 609 62 587 q 151 646 116 631 q 222 668 185 660 q 296 680 259 677 q 363 684 332 684 q 368 716 366 703 q 372 741 370 729 q 376 765 374 753 q 380 793 378 777 q 384 816 382 801 q 385 846 385 831 q 382 877 385 861 q 372 906 380 892 l 220 893 q 172 827 212 850 q 60 798 132 804 l 58 809 q 82 853 73 831 q 90 898 90 876 q 78 946 90 924 q 39 982 65 968 l 39 993 q 103 1001 70 1001 q 144 997 125 1001 q 179 984 164 993 q 204 963 195 976 q 217 931 214 949 l 620 966 q 772 1050 640 1042 l 773 1038 q 758 965 758 996 q 769 912 758 937 q 805 873 780 888 l 806 862 q 773 856 790 859 q 741 854 757 854 q 701 858 720 854 q 665 870 682 862 q 638 893 649 879 q 623 927 627 907 l 498 916 m 357 646 q 284 637 321 644 q 219 613 248 629 q 173 568 191 596 q 155 498 155 541 q 186 417 155 445 q 275 389 217 389 q 296 390 286 389 q 319 393 307 391 l 357 646 m 444 403 q 519 411 483 404 q 582 436 555 419 q 626 482 610 454 q 643 552 643 510 q 633 600 643 581 q 606 632 623 620 q 567 650 589 644 q 520 655 545 655 q 500 654 511 655 q 481 652 490 654 l 444 403 z "},"ቓ":{"ha":934,"x_min":14,"x_max":924,"o":"m 608 869 q 618 836 615 855 q 621 799 621 817 l 621 658 q 677 665 650 662 q 736 668 705 668 q 807 659 773 668 q 867 631 842 650 q 908 585 893 613 q 924 517 924 556 q 910 452 924 479 q 875 405 897 424 q 823 373 852 385 q 759 354 793 361 q 690 345 725 347 q 621 341 654 342 l 620 341 q 588 230 615 275 q 522 156 562 185 q 435 112 482 127 q 341 89 387 96 q 256 80 296 81 q 193 77 216 78 q 195 45 195 60 q 185 -18 195 9 q 159 -65 176 -46 q 119 -95 142 -85 q 68 -104 96 -104 q 42 -102 56 -104 q 14 -96 28 -100 q 44 -33 35 -65 q 54 35 54 0 q 45 103 54 74 l 48 109 q 156 115 103 112 q 256 126 209 119 q 345 147 304 134 q 418 184 387 160 q 469 243 449 208 q 494 330 489 279 q 448 324 471 326 q 401 321 425 321 q 324 330 362 321 q 256 357 286 338 q 208 404 227 375 q 190 475 190 433 q 204 538 190 511 q 243 584 219 565 q 299 615 268 603 q 365 634 331 627 q 433 645 399 642 q 495 650 467 648 l 495 789 q 495 806 495 796 q 493 825 494 815 q 489 843 491 834 q 482 859 486 852 l 334 846 q 287 780 327 803 q 174 751 246 757 l 172 762 q 196 807 188 784 q 205 851 205 829 q 192 899 205 877 q 153 935 180 921 l 154 946 q 218 954 184 954 q 259 950 239 954 q 294 938 279 946 q 319 916 309 929 q 332 884 329 903 l 734 920 q 886 1003 755 995 l 888 991 q 872 918 872 949 q 883 866 872 890 q 920 826 895 842 l 920 815 q 888 809 905 812 q 855 807 871 807 q 815 811 835 807 q 780 824 796 815 q 752 846 764 832 q 737 880 741 860 l 608 869 m 496 611 q 428 603 461 610 q 370 583 395 597 q 328 546 344 568 q 313 490 313 523 q 350 399 313 430 q 450 368 387 368 q 472 369 461 368 q 495 372 483 370 l 496 611 m 621 382 q 690 389 658 382 q 747 411 723 396 q 785 451 771 427 q 798 509 798 475 q 787 559 798 538 q 758 593 777 580 q 714 614 739 607 q 660 621 688 621 q 640 620 650 621 q 621 618 630 619 l 621 382 z "},"ቔ":{"ha":789,"x_min":33,"x_max":808,"o":"m 501 916 q 511 888 508 903 q 513 859 513 874 q 512 841 513 850 q 511 827 511 832 q 506 794 508 809 q 501 764 503 779 q 496 732 498 749 q 490 692 493 715 q 547 700 519 696 q 606 703 576 703 q 671 695 641 703 q 724 671 702 687 q 760 629 747 654 q 772 566 772 603 q 758 491 772 523 q 719 437 743 459 q 661 400 694 414 q 591 378 628 386 q 516 366 555 370 q 441 362 477 363 q 433 303 437 333 q 424 241 429 273 q 517 254 473 249 q 595 259 560 259 q 679 237 648 259 q 710 165 710 214 q 696 96 710 125 q 657 46 682 66 q 598 18 632 27 q 526 8 565 8 q 504 9 515 8 q 477 12 493 10 q 439 5 461 9 q 395 -3 417 1 q 353 -9 373 -7 q 321 -12 334 -12 q 285 3 294 -12 q 275 38 275 18 q 276 47 275 43 q 277 56 276 51 q 285 121 280 85 q 295 195 290 157 q 306 274 300 234 q 317 351 311 314 q 269 345 293 347 q 221 342 245 342 q 151 350 185 342 q 91 374 117 357 q 49 417 65 391 q 33 483 33 444 q 49 556 33 525 q 92 609 65 587 q 153 646 119 631 q 225 668 188 660 q 298 680 262 677 q 366 684 335 684 q 371 716 368 703 q 375 741 373 729 q 379 765 377 753 q 383 793 381 777 q 386 816 385 801 q 388 846 388 831 q 385 877 388 861 q 375 906 382 892 l 222 893 q 175 827 215 850 q 62 798 134 804 l 60 809 q 84 853 76 831 q 93 898 93 876 q 80 946 93 924 q 41 982 68 968 l 42 993 q 106 1001 73 1001 q 147 997 127 1001 q 182 984 167 993 q 207 963 197 976 q 220 931 217 949 l 623 966 q 774 1050 643 1042 l 776 1038 q 760 965 760 996 q 771 912 760 937 q 808 873 783 888 l 808 862 q 776 856 793 859 q 743 854 760 854 q 704 858 723 854 q 668 870 684 862 q 641 893 652 879 q 625 927 629 907 l 501 916 m 360 646 q 287 637 323 644 q 222 613 251 630 q 176 569 193 596 q 158 499 158 541 q 189 417 158 446 q 277 389 220 389 q 299 390 288 389 q 322 393 310 391 l 360 646 m 447 403 q 522 411 486 404 q 585 436 557 419 q 629 482 612 454 q 646 552 646 510 q 636 600 646 581 q 609 632 626 620 q 570 650 592 644 q 523 655 547 655 q 503 654 513 655 q 484 652 493 654 l 447 403 m 414 164 q 410 136 412 149 q 408 112 408 123 q 410 82 408 94 q 421 61 413 69 q 444 49 429 53 q 482 45 458 45 q 526 54 507 45 q 558 77 545 62 q 579 112 572 92 q 586 155 586 132 q 567 198 586 185 q 514 212 549 212 q 472 210 496 212 q 418 205 448 208 l 414 164 z "},"ቕ":{"ha":788,"x_min":-5,"x_max":774,"o":"m 492 618 q 549 626 521 623 q 608 629 578 629 q 673 621 643 629 q 726 597 704 613 q 762 555 749 581 q 774 492 774 529 q 760 417 774 449 q 721 363 745 385 q 663 326 696 340 q 593 304 630 312 q 518 292 557 296 q 444 288 479 289 q 433 218 439 256 q 423 142 428 180 q 414 71 418 105 q 407 11 410 37 q 406 1 406 6 q 406 -9 406 -3 q 407 -26 406 -18 q 413 -41 409 -35 q 425 -52 417 -48 q 444 -56 432 -56 l 444 -81 q 410 -89 427 -85 q 376 -95 392 -92 q 346 -99 359 -98 q 326 -100 333 -100 q 286 -84 297 -100 q 275 -46 275 -68 q 276 -37 275 -41 q 277 -27 276 -32 q 285 39 280 2 q 295 117 290 76 q 307 199 301 157 q 318 277 313 240 q 270 271 294 273 q 222 269 246 269 q 153 276 186 269 q 93 300 119 283 q 51 343 66 317 q 35 409 35 370 q 51 482 35 451 q 93 535 66 513 q 155 572 120 557 q 226 594 189 586 q 300 606 263 603 q 367 610 336 610 q 380 694 374 655 q 393 774 387 732 l 276 764 l 273 766 q 277 797 275 780 q 282 833 279 814 q 289 872 286 852 q 295 910 292 892 q 299 944 298 928 q 300 971 300 960 l 176 960 q 129 893 169 916 q 16 865 88 870 l 14 876 q 38 920 30 897 q 47 964 47 943 q 34 1012 47 990 q -5 1048 22 1034 l -4 1059 q 60 1067 26 1067 q 101 1063 81 1067 q 136 1051 121 1059 q 161 1029 151 1042 q 174 998 171 1016 l 578 1035 q 730 1118 598 1110 l 731 1107 q 715 1034 715 1064 q 727 981 715 1005 q 763 941 738 957 l 764 930 q 731 925 748 927 q 699 922 715 922 q 659 926 678 922 q 623 939 640 930 q 596 961 607 947 q 581 996 585 975 l 425 982 q 425 956 425 970 q 420 923 424 941 q 410 860 415 892 q 401 804 404 827 l 519 814 l 523 811 q 507 717 515 764 q 492 618 498 669 m 361 572 q 289 563 325 570 q 223 539 252 555 q 177 494 195 522 q 159 424 159 467 q 190 343 159 371 q 279 315 221 315 q 300 316 290 315 q 323 319 311 317 l 361 572 m 449 329 q 524 337 488 330 q 587 362 559 345 q 631 408 614 380 q 648 478 648 436 q 638 526 648 507 q 611 558 628 546 q 572 576 594 570 q 525 581 549 581 q 505 581 515 581 q 486 578 495 580 l 449 329 z "},"ቖ":{"ha":764,"x_min":20,"x_max":836,"o":"m 492 975 l 486 914 q 539 906 513 913 q 586 884 566 899 q 617 847 606 869 q 629 795 629 825 q 614 719 629 751 q 573 662 599 687 q 514 618 547 637 q 444 582 480 599 q 447 570 446 576 q 449 557 448 564 q 508 567 477 562 q 569 572 538 572 q 635 565 604 572 q 689 540 666 557 q 727 496 713 523 q 741 433 741 470 q 711 334 741 372 q 637 276 682 296 q 537 249 591 256 q 433 242 483 242 l 420 242 q 418 225 419 234 q 416 205 418 216 l 413 165 q 410 127 412 146 q 408 94 409 109 q 408 70 407 82 q 418 40 410 52 q 448 27 427 28 l 450 2 q 416 -5 433 -2 q 384 -12 399 -9 q 356 -16 368 -14 q 336 -17 344 -17 q 296 -2 307 -17 q 283 35 284 12 q 283 56 281 45 q 285 85 283 66 q 288 127 286 104 q 293 176 290 151 q 298 225 296 201 l 298 228 q 257 221 279 224 q 212 219 235 219 q 143 226 177 219 q 81 249 109 233 q 37 291 54 264 q 20 357 20 317 q 34 420 20 393 q 71 468 47 447 q 124 503 94 488 q 186 529 154 518 q 253 548 219 540 q 315 562 286 555 q 292 595 306 577 q 265 635 278 614 q 243 681 252 656 q 235 734 235 705 q 245 790 235 764 q 274 835 256 815 q 316 870 292 855 q 368 895 340 885 l 375 965 l 209 951 q 161 884 201 907 q 49 856 121 861 l 47 867 q 71 911 62 888 q 79 956 79 934 q 67 1003 79 981 q 28 1040 54 1025 l 28 1050 q 92 1059 59 1059 q 134 1055 114 1059 q 169 1042 153 1050 q 194 1020 184 1034 q 206 989 203 1007 l 650 1028 q 802 1112 671 1103 l 804 1100 q 788 1027 788 1057 q 799 974 788 998 q 836 935 810 950 l 836 924 q 804 918 821 920 q 771 916 787 916 q 731 920 751 916 q 696 932 712 924 q 668 955 680 941 q 653 989 657 968 l 492 975 m 496 524 q 474 523 485 524 q 448 518 463 522 l 424 283 l 434 283 q 505 290 471 283 q 562 313 538 297 q 601 354 587 329 q 615 416 615 380 q 583 497 615 469 q 496 524 550 524 m 328 527 q 257 510 290 521 q 198 480 224 498 q 158 434 173 461 q 144 370 144 407 q 175 291 144 317 q 264 265 207 265 q 281 266 272 265 q 302 269 290 267 l 328 527 m 427 614 q 467 644 450 629 q 495 677 484 659 q 511 717 506 695 q 516 767 516 739 q 512 805 516 787 q 497 835 507 822 q 472 855 488 848 q 435 863 457 863 q 399 858 416 863 q 371 842 383 852 q 352 818 359 832 q 345 785 345 804 q 353 740 345 763 q 374 694 361 717 q 401 652 387 672 q 427 614 415 631 z "},"ቘ":{"ha":867,"x_min":38,"x_max":840,"o":"m 370 716 q 374 739 372 729 q 377 758 376 749 q 380 775 379 767 q 383 793 382 783 q 387 821 385 805 q 389 854 389 837 q 387 881 389 867 q 382 906 386 895 l 229 893 q 181 827 222 850 q 69 798 141 804 l 67 809 q 91 853 83 831 q 100 898 100 876 q 87 946 100 924 q 48 982 75 968 l 49 993 q 113 1001 79 1001 q 154 997 134 1001 q 189 984 174 993 q 214 963 204 976 q 227 931 224 949 l 627 966 q 779 1050 647 1042 l 780 1038 q 764 965 764 996 q 775 912 764 937 q 812 873 787 888 l 812 862 q 780 856 797 859 q 747 854 764 854 q 708 858 727 854 q 672 870 688 862 q 645 893 656 879 q 629 927 633 907 l 508 916 q 514 863 514 886 q 513 845 514 853 q 511 827 512 836 q 507 803 509 813 q 504 782 505 793 q 500 758 502 772 q 494 724 498 745 q 552 731 524 728 q 611 734 581 734 q 676 727 646 734 q 729 703 707 719 q 764 661 751 686 q 777 598 777 635 q 763 523 777 555 q 723 469 748 491 q 666 432 699 446 q 596 410 633 418 q 521 398 559 401 q 446 394 482 395 q 439 347 443 372 q 432 294 436 321 q 513 299 481 296 q 566 303 545 301 q 601 308 587 306 q 629 313 615 311 q 669 321 651 317 q 711 324 687 324 q 805 294 770 324 q 840 203 840 264 q 831 156 840 180 q 808 111 823 132 q 772 77 793 90 q 728 64 751 64 q 697 66 715 64 q 665 68 679 68 q 643 66 654 68 q 619 62 631 64 q 597 58 608 60 q 580 56 587 56 q 545 65 561 56 q 517 89 529 75 q 499 121 506 104 q 493 155 493 139 q 500 206 493 177 q 520 261 507 235 l 427 256 q 415 166 420 210 q 406 94 410 123 q 405 85 406 90 q 405 75 405 80 q 407 57 405 66 q 412 42 408 49 q 424 31 416 35 q 443 27 431 27 l 444 2 q 409 -5 427 -2 q 375 -12 391 -9 q 347 -16 359 -14 q 326 -17 334 -17 q 286 -1 297 -17 q 275 37 275 16 q 276 47 275 42 q 277 56 276 52 q 286 126 280 85 q 297 212 291 167 q 310 301 303 256 q 321 383 316 346 q 274 377 298 379 q 226 374 250 374 q 156 382 190 374 q 96 406 122 389 q 54 449 70 422 q 38 515 38 476 q 54 588 38 557 q 97 641 70 619 q 158 677 123 663 q 230 700 193 692 q 303 712 267 709 q 370 716 340 715 m 365 677 q 292 669 328 676 q 227 645 256 661 q 180 600 198 628 q 163 530 163 572 q 194 449 163 477 q 282 420 224 420 q 304 422 293 420 q 327 425 315 423 l 365 677 m 452 435 q 526 443 490 435 q 590 468 562 451 q 634 514 617 486 q 650 584 650 542 q 641 632 650 612 q 614 664 631 652 q 574 682 597 676 q 528 687 552 687 q 508 686 518 687 q 488 684 498 686 l 452 435 m 660 104 q 692 113 678 104 q 716 136 706 122 q 731 169 726 151 q 736 205 736 187 q 721 261 736 240 q 677 281 706 281 q 640 274 655 281 q 616 254 625 267 q 603 224 607 241 q 599 188 599 208 q 603 157 599 172 q 614 130 606 142 q 633 112 621 119 q 660 104 644 104 z "},"ቚ":{"ha":1257,"x_min":33,"x_max":1244,"o":"m 366 684 q 371 716 368 703 q 375 741 373 729 q 379 765 377 753 q 383 793 381 777 q 387 821 385 805 q 389 854 389 837 q 387 881 389 867 q 382 906 386 895 l 229 893 q 181 827 222 850 q 69 798 141 804 l 67 809 q 91 853 83 831 q 100 898 100 876 q 87 946 100 924 q 48 982 75 968 l 49 993 q 113 1001 79 1001 q 154 997 134 1001 q 189 984 174 993 q 214 963 204 976 q 227 931 224 949 l 627 966 q 779 1050 647 1042 l 780 1038 q 764 965 764 996 q 775 912 764 937 q 812 873 787 888 l 812 862 q 780 856 797 859 q 747 854 764 854 q 708 858 727 854 q 672 870 688 862 q 645 893 656 879 q 629 927 633 907 l 508 916 q 514 863 514 886 q 513 845 514 853 q 511 827 512 836 q 506 794 508 809 q 501 764 503 779 q 496 732 498 749 q 490 692 493 715 q 547 700 519 696 q 606 703 576 703 q 669 695 640 703 q 722 673 699 688 q 758 633 744 657 q 772 574 771 608 l 896 578 q 903 606 900 593 q 910 634 907 619 q 912 648 911 642 q 913 659 913 654 q 906 687 913 675 q 879 702 899 700 l 879 727 q 915 734 896 731 q 950 741 933 738 q 982 745 968 743 q 1004 746 996 746 q 1038 733 1029 746 q 1047 702 1047 720 q 1046 687 1047 694 q 1043 673 1044 680 q 1032 626 1038 652 q 1020 574 1026 601 q 1009 521 1015 547 q 998 473 1003 495 l 1217 479 q 1205 439 1209 461 q 1201 395 1201 417 q 1211 341 1201 367 q 1244 299 1220 315 l 1243 288 q 1182 277 1213 277 q 1126 289 1150 277 q 1087 321 1103 300 q 1064 371 1072 342 q 1058 433 1057 399 q 1024 432 1040 433 q 995 431 1009 431 q 965 431 980 431 q 932 431 950 431 q 902 434 913 431 q 885 444 891 438 q 876 458 878 450 q 874 475 874 467 q 876 490 874 483 q 878 505 877 497 l 886 537 l 770 533 q 747 471 764 497 q 705 425 730 444 q 648 394 680 406 q 581 376 616 382 q 511 366 547 369 q 441 362 475 363 q 432 293 437 330 q 422 221 427 256 q 413 152 417 185 q 406 94 409 119 q 405 85 406 90 q 405 75 405 80 q 407 57 405 66 q 412 42 408 49 q 424 31 416 35 q 443 27 431 27 l 444 2 q 409 -5 427 -2 q 375 -12 391 -9 q 347 -16 359 -14 q 326 -17 334 -17 q 286 -1 297 -17 q 275 37 275 16 q 276 47 275 42 q 277 56 276 52 q 285 121 280 85 q 295 195 290 157 q 306 274 300 234 q 317 351 311 314 q 269 345 293 347 q 221 342 245 342 q 151 350 185 342 q 91 374 117 357 q 49 417 65 391 q 33 483 33 444 q 49 556 33 525 q 92 609 65 587 q 153 646 119 631 q 225 668 188 660 q 298 680 262 677 q 366 684 335 684 m 360 646 q 287 637 323 644 q 222 613 251 629 q 176 568 193 596 q 158 498 158 541 q 189 417 158 445 q 277 389 220 389 q 299 390 288 389 q 322 393 310 391 l 360 646 m 447 403 q 522 411 486 404 q 585 436 557 419 q 629 482 612 454 q 646 552 646 510 q 636 600 646 581 q 609 632 626 620 q 570 650 592 644 q 523 655 547 655 q 503 654 513 655 q 484 652 493 654 l 447 403 z "},"ቛ":{"ha":793,"x_min":37,"x_max":825,"o":"m 518 954 l 492 780 q 550 787 522 784 q 610 790 579 790 q 675 782 644 790 q 728 758 705 774 q 763 716 750 742 q 776 654 776 690 q 761 578 776 610 q 722 524 747 547 q 664 488 697 502 q 595 465 631 473 q 519 454 558 457 q 445 450 481 450 l 420 269 q 432 270 426 270 q 444 270 438 270 l 469 270 q 500 270 484 270 q 534 269 517 269 q 566 267 551 268 q 595 264 582 266 q 627 226 627 261 q 626 183 627 210 q 624 118 624 157 q 630 54 624 75 q 659 32 637 33 l 659 7 q 592 -6 623 -1 q 544 -11 560 -11 q 521 -7 530 -11 q 508 6 512 -3 q 502 28 503 15 q 500 62 500 42 l 500 85 q 501 104 500 96 q 501 121 501 113 l 501 141 q 500 186 501 167 q 497 210 500 206 q 482 220 493 216 q 455 226 471 224 q 419 229 439 228 q 381 229 400 229 q 288 227 330 229 q 225 221 245 224 q 214 156 225 185 q 180 107 202 127 q 127 77 159 87 q 58 69 96 67 l 54 79 q 81 130 73 106 q 90 180 90 155 q 87 211 90 195 q 81 244 85 227 q 188 257 134 252 q 295 265 241 262 l 321 441 q 273 435 297 437 q 225 433 249 433 q 155 440 189 433 q 95 464 121 448 q 53 508 69 481 q 37 573 37 534 q 53 646 37 615 q 96 700 69 677 q 157 736 123 722 q 229 759 192 750 q 302 770 266 767 q 370 774 339 774 l 395 944 l 239 931 q 79 835 224 846 l 77 846 q 101 890 93 867 q 110 935 110 913 q 97 982 110 960 q 58 1019 85 1004 l 59 1029 q 123 1038 90 1038 q 164 1034 144 1038 q 199 1021 184 1029 q 224 999 214 1013 q 237 968 234 986 l 640 1003 q 791 1086 660 1078 l 793 1075 q 777 1002 777 1032 q 788 949 777 973 q 825 909 800 925 l 825 899 q 793 893 810 895 q 760 890 777 890 q 721 895 740 890 q 685 908 701 899 q 657 931 669 917 q 642 965 646 945 l 518 954 m 364 736 q 291 727 328 734 q 226 703 255 720 q 180 659 197 686 q 162 588 162 631 q 193 507 162 535 q 281 479 224 479 q 303 480 292 479 q 326 484 314 481 l 364 736 m 450 490 q 525 499 489 491 q 588 524 561 507 q 632 569 616 541 q 649 640 649 597 q 639 688 649 668 q 612 720 629 707 q 573 737 595 732 q 526 743 551 743 q 507 742 517 743 q 487 740 496 741 l 450 490 z "},"ቜ":{"ha":798,"x_min":7,"x_max":817,"o":"m 511 918 q 506 871 509 898 q 500 819 503 845 q 495 772 497 793 q 492 739 492 750 q 550 746 520 743 q 610 749 579 749 q 675 742 644 749 q 729 718 706 734 q 767 676 753 701 q 781 615 781 650 q 766 542 781 572 q 727 489 752 511 q 670 455 703 468 q 602 434 638 441 q 528 424 566 427 q 456 420 491 421 l 454 399 q 451 373 452 385 q 448 343 450 361 q 531 356 495 351 q 600 361 567 361 q 647 355 625 361 q 685 336 669 349 q 710 304 701 323 q 720 258 720 285 q 707 194 720 221 q 672 148 694 166 q 620 121 650 130 q 553 113 589 113 q 531 113 541 113 q 505 116 521 114 q 451 105 480 111 q 376 92 422 100 l 178 60 q 180 45 179 53 q 180 31 180 38 q 170 -26 180 1 q 141 -72 159 -52 q 98 -103 123 -92 q 47 -115 74 -115 q 7 -109 26 -115 q 30 -52 22 -80 q 38 5 38 -23 q 35 39 38 22 q 26 73 32 56 l 317 121 q 308 143 311 130 q 307 167 306 155 q 318 281 312 223 q 332 412 324 340 q 283 402 308 406 q 235 398 258 398 q 164 406 199 398 q 102 431 130 414 q 59 475 75 448 q 42 541 42 502 q 57 612 42 582 q 97 664 72 642 q 155 699 122 685 q 224 720 188 712 q 297 730 260 728 q 367 733 334 733 q 370 766 368 742 q 376 817 373 789 q 382 870 379 844 q 387 908 385 895 l 233 895 q 185 829 226 852 q 73 800 145 806 l 71 811 q 95 856 87 833 q 104 900 104 878 q 91 948 104 926 q 52 984 79 970 l 53 995 q 117 1003 83 1003 q 158 999 138 1003 q 193 986 178 995 q 218 965 208 978 q 231 933 228 951 l 631 968 q 783 1052 651 1044 l 784 1040 q 768 967 768 998 q 780 915 768 939 q 816 875 791 890 l 817 864 q 784 858 801 861 q 751 856 768 856 q 712 860 731 856 q 676 872 692 864 q 649 895 660 881 q 633 929 637 909 l 511 918 m 363 694 q 287 688 322 694 q 224 666 251 682 q 183 623 198 650 q 168 557 168 597 q 199 473 168 502 q 290 444 230 444 q 313 446 300 444 q 336 452 325 448 q 349 575 343 514 q 363 694 355 637 m 537 701 q 515 701 526 701 q 486 699 504 701 q 473 581 479 640 q 460 461 467 523 q 537 470 502 463 q 599 493 573 477 q 640 533 625 508 q 655 595 655 557 q 624 675 655 648 q 537 701 592 701 m 441 266 q 439 243 439 254 q 438 221 438 231 q 441 193 438 205 q 452 170 444 180 q 474 155 460 161 q 511 150 488 150 q 548 158 532 150 q 575 179 564 165 q 591 211 586 193 q 597 249 597 229 q 576 298 597 283 q 522 313 555 313 q 489 312 507 313 q 445 307 471 311 l 441 266 z "},"ቝ":{"ha":1207,"x_min":33,"x_max":1194,"o":"m 233 892 q 185 826 226 849 q 73 798 145 803 l 71 808 q 95 853 87 830 q 104 897 104 876 q 91 945 104 923 q 52 981 79 967 l 53 992 q 117 1000 83 1000 q 158 996 138 1000 q 193 984 178 992 q 218 962 208 975 q 231 930 228 949 l 631 966 q 783 1049 651 1041 l 784 1038 q 768 964 768 993 q 780 912 768 936 q 816 872 791 888 l 817 861 q 784 856 801 858 q 751 853 768 853 q 712 857 731 853 q 676 870 692 861 q 649 892 660 878 q 633 926 637 906 l 505 915 l 483 711 q 539 718 511 715 q 598 721 568 721 q 663 713 633 721 q 717 687 694 705 q 754 642 740 669 q 768 576 768 615 l 887 583 q 890 618 888 598 q 894 657 892 639 q 895 668 895 663 q 895 678 895 673 q 889 709 895 696 q 859 725 882 722 l 859 750 q 895 758 876 754 q 930 764 913 761 q 961 768 947 766 q 983 769 975 769 q 1017 756 1008 769 q 1026 725 1026 743 q 1024 696 1026 710 q 1019 647 1021 675 q 1013 589 1016 618 l 1166 595 q 1155 556 1159 578 q 1151 512 1151 534 q 1160 458 1151 484 q 1194 416 1170 432 l 1193 405 q 1132 393 1160 393 q 1078 404 1101 393 q 1040 434 1055 415 q 1016 479 1024 453 q 1008 537 1008 506 l 1008 549 l 765 537 q 742 480 759 505 q 700 439 725 456 q 645 410 675 422 q 581 392 614 399 q 513 383 547 386 q 446 380 478 380 q 431 235 438 307 q 417 94 423 164 q 416 85 416 90 q 416 75 416 80 q 417 57 416 66 q 423 42 419 49 q 435 31 427 35 q 454 27 442 27 l 454 2 q 420 -5 437 -2 q 386 -12 402 -9 q 357 -16 370 -14 q 336 -17 345 -17 q 297 -1 308 -17 q 286 37 286 16 q 287 47 286 42 q 288 56 287 52 q 303 211 295 132 q 319 369 311 289 q 226 361 273 361 q 154 369 189 361 q 93 394 119 376 q 50 439 66 412 q 33 508 33 467 q 49 578 33 548 q 90 630 64 608 q 149 665 115 651 q 218 687 182 679 q 290 699 254 695 q 357 703 326 702 q 368 805 363 754 q 379 905 374 855 l 233 892 m 280 407 q 324 411 300 407 q 338 537 331 475 q 353 664 345 600 q 281 655 316 663 q 218 631 245 648 q 174 588 191 615 q 157 522 157 562 q 189 437 157 467 q 280 407 220 407 m 517 673 q 497 673 507 673 q 478 671 488 672 q 464 546 471 607 q 450 421 457 485 q 523 429 488 422 q 584 453 557 437 q 627 497 611 470 q 643 564 643 524 q 633 615 643 594 q 605 649 623 635 q 565 668 588 662 q 517 673 542 673 z "},"በ":{"ha":710,"x_min":66,"x_max":666,"o":"m 665 10 q 639 5 659 8 q 596 -2 619 1 q 551 -8 573 -6 q 519 -11 530 -11 q 504 -4 509 -11 q 495 14 498 2 q 486 60 490 32 q 481 118 483 89 q 479 171 479 146 q 479 208 479 196 q 480 324 479 264 q 484 436 482 383 q 488 533 486 490 q 490 601 490 576 q 485 679 490 641 q 468 746 481 717 q 433 794 456 776 q 375 812 411 812 q 302 786 332 812 q 253 718 272 760 q 223 623 233 675 q 208 517 212 570 q 202 417 203 465 q 201 338 201 370 q 201 285 201 317 q 203 219 201 253 q 207 154 204 185 q 216 104 210 123 q 240 60 225 74 q 280 41 255 47 l 279 16 q 253 9 273 14 q 210 0 233 4 q 162 -8 186 -5 q 125 -11 139 -11 q 107 -7 115 -11 q 94 14 100 -3 q 82 68 87 35 q 74 138 77 101 q 68 211 70 174 q 66 277 66 248 q 69 408 66 339 q 82 542 72 476 q 113 667 92 608 q 171 771 134 726 q 262 842 208 816 q 396 869 317 869 q 509 847 465 869 q 578 788 553 825 q 612 701 603 751 q 621 594 621 651 q 620 523 621 560 q 615 440 618 485 q 611 343 613 396 q 610 225 610 290 q 611 143 610 177 q 617 87 612 110 q 633 53 622 65 q 666 35 645 41 l 665 10 z "},"ቡ":{"ha":975,"x_min":66,"x_max":958,"o":"m 665 10 q 639 5 659 8 q 596 -2 619 1 q 551 -8 573 -6 q 519 -11 530 -11 q 504 -4 509 -11 q 495 14 498 2 q 486 60 490 32 q 481 118 483 89 q 479 171 479 146 q 479 208 479 196 q 480 324 479 264 q 484 436 482 383 q 488 533 486 490 q 490 601 490 576 q 485 679 490 641 q 468 746 481 717 q 433 794 456 776 q 375 812 411 812 q 302 786 332 812 q 253 718 272 760 q 223 623 233 675 q 208 517 212 570 q 202 417 203 465 q 201 338 201 370 q 201 285 201 317 q 203 219 201 253 q 207 154 204 185 q 216 104 210 123 q 240 60 225 74 q 280 41 255 47 l 279 16 q 253 9 273 14 q 210 0 233 4 q 162 -8 186 -5 q 125 -11 139 -11 q 107 -7 115 -11 q 94 14 100 -3 q 82 68 87 35 q 74 138 77 101 q 68 211 70 174 q 66 277 66 248 q 69 408 66 339 q 82 542 72 476 q 113 667 92 608 q 171 771 134 726 q 262 842 208 816 q 396 869 317 869 q 509 847 465 869 q 578 788 553 825 q 612 701 603 751 q 621 594 621 651 q 621 554 621 574 q 618 511 620 533 l 774 517 q 794 552 781 538 q 826 575 808 566 q 865 588 844 584 q 907 592 886 592 q 927 591 917 592 q 946 589 937 590 l 947 576 q 925 544 933 566 q 917 499 917 523 q 926 455 917 475 q 958 425 936 434 l 958 412 q 887 400 919 400 q 812 421 842 400 q 771 480 783 443 l 617 473 q 612 362 614 422 q 610 225 610 303 q 611 143 610 177 q 617 87 612 110 q 633 53 622 65 q 666 35 645 41 l 665 10 z "},"ቢ":{"ha":975,"x_min":66,"x_max":955,"o":"m 279 16 q 253 9 273 14 q 210 0 233 4 q 162 -8 186 -5 q 125 -11 139 -11 q 107 -7 115 -11 q 94 14 100 -3 q 82 68 87 35 q 74 138 77 101 q 68 211 70 174 q 66 277 66 248 q 69 408 66 339 q 82 542 72 476 q 113 667 92 608 q 171 771 134 726 q 262 842 208 816 q 396 869 317 869 q 509 847 465 869 q 578 788 553 825 q 612 701 603 751 q 621 594 621 651 q 620 523 621 560 q 615 440 618 485 q 611 343 613 396 q 610 225 610 290 l 610 201 q 611 128 610 158 q 619 78 612 98 q 633 60 623 65 q 667 55 644 55 q 714 56 685 55 q 773 61 743 57 q 820 123 783 100 q 924 150 857 146 l 926 134 q 911 102 917 121 q 906 62 906 83 q 917 9 906 35 q 955 -29 928 -16 l 954 -44 q 925 -49 940 -47 q 895 -51 910 -51 q 855 -47 875 -51 q 819 -35 836 -43 q 791 -12 803 -26 q 776 21 780 1 q 641 0 692 5 q 566 -5 589 -5 q 508 9 525 -5 q 488 47 491 24 q 483 92 484 68 q 480 138 481 116 q 479 179 479 161 q 479 208 479 198 q 480 324 479 264 q 484 436 482 383 q 488 533 486 490 q 490 601 490 576 q 485 679 490 641 q 468 746 481 717 q 433 794 456 776 q 375 812 411 812 q 302 786 332 812 q 253 718 272 760 q 223 623 233 675 q 208 517 212 570 q 202 417 203 465 q 201 338 201 370 q 201 285 201 317 q 203 219 201 253 q 207 154 204 185 q 216 104 210 123 q 240 60 225 74 q 280 41 255 47 l 279 16 z "},"ባ":{"ha":705,"x_min":61,"x_max":661,"o":"m 659 10 q 633 5 653 8 q 591 -2 614 1 q 546 -8 568 -6 q 513 -11 524 -11 q 498 -4 503 -11 q 490 14 493 2 q 481 60 484 32 q 476 118 477 89 q 474 171 474 146 q 473 208 473 196 q 475 324 473 264 q 479 436 477 383 q 483 533 481 490 q 484 601 484 576 q 480 679 484 641 q 463 746 475 717 q 428 794 450 776 q 370 812 406 812 q 303 791 331 812 q 256 738 275 770 q 224 666 236 705 q 206 588 213 626 q 197 519 199 551 q 195 471 195 488 q 195 434 195 456 q 197 389 195 412 q 201 345 198 366 q 209 310 203 323 q 230 280 217 288 q 266 269 243 272 l 264 243 q 240 237 259 241 q 199 229 222 233 q 154 221 176 224 q 120 218 132 218 q 102 221 110 218 q 89 237 94 224 q 77 275 82 252 q 68 324 72 298 q 63 376 64 350 q 61 424 61 402 q 63 492 61 449 q 75 584 65 534 q 105 684 85 633 q 162 775 125 734 q 254 843 199 817 q 391 869 310 869 q 504 847 460 869 q 573 788 548 825 q 607 701 597 751 q 616 594 616 651 q 614 523 616 560 q 610 440 612 485 q 606 343 608 396 q 604 225 604 290 q 605 143 604 177 q 611 87 606 110 q 628 53 616 65 q 661 35 640 41 l 659 10 z "},"ቤ":{"ha":924,"x_min":66,"x_max":897,"o":"m 690 -5 q 651 -12 675 -8 q 604 -18 628 -15 q 558 -22 580 -20 q 525 -24 536 -24 q 495 1 502 -24 q 487 49 490 20 q 482 107 484 78 q 479 162 480 137 q 479 200 479 188 q 480 318 479 258 q 484 431 482 378 q 488 527 486 484 q 490 596 490 570 q 485 675 490 637 q 468 745 481 714 q 433 793 456 775 q 375 812 411 812 q 302 786 332 812 q 253 718 272 760 q 223 623 233 675 q 208 517 212 570 q 202 417 203 465 q 201 338 201 370 q 201 285 201 317 q 203 219 201 253 q 207 154 204 185 q 216 104 210 123 q 240 60 225 74 q 280 41 255 47 l 279 16 q 253 9 273 14 q 210 0 233 4 q 162 -8 186 -5 q 125 -11 139 -11 q 107 -7 115 -11 q 94 14 100 -3 q 82 68 87 35 q 74 138 77 101 q 68 211 70 174 q 66 277 66 248 q 69 408 66 339 q 82 542 72 476 q 113 667 92 608 q 171 771 134 726 q 262 842 208 816 q 396 869 317 869 q 509 847 465 869 q 578 786 553 825 q 612 697 603 748 q 621 587 621 646 q 620 517 621 553 q 615 438 618 481 q 611 345 613 396 q 610 228 610 293 q 697 243 657 237 q 772 248 738 248 q 865 219 832 248 q 897 130 897 190 q 885 68 897 94 q 851 25 872 42 q 803 0 831 8 q 745 -7 775 -7 q 721 -7 732 -7 q 690 -5 709 -6 m 610 145 q 612 93 610 115 q 622 56 614 71 q 646 34 630 41 q 690 26 662 26 q 727 34 711 26 q 753 54 743 41 q 768 84 763 67 q 772 121 772 101 q 755 180 772 158 q 696 202 739 202 q 657 199 679 202 q 610 192 635 197 l 610 145 z "},"ብ":{"ha":941,"x_min":31,"x_max":897,"o":"m 895 10 q 870 5 889 8 q 827 -2 850 1 q 780 -8 803 -6 q 743 -11 756 -11 q 726 14 732 -11 q 717 60 720 32 q 712 118 713 89 q 710 171 710 146 q 709 208 709 196 q 711 324 709 264 q 715 436 713 383 q 719 533 717 490 q 720 601 720 576 q 716 679 720 641 q 699 746 711 717 q 664 794 686 776 q 606 812 642 812 q 532 786 562 812 q 483 718 503 760 q 453 623 464 675 q 438 517 443 570 q 432 417 433 465 q 431 338 431 370 q 432 285 431 317 q 433 219 432 253 q 438 154 435 185 q 446 104 441 123 q 471 60 456 74 q 511 41 486 47 l 509 16 q 484 9 503 14 q 440 0 464 4 q 393 -8 416 -5 q 356 -11 370 -11 q 338 -7 346 -11 q 325 14 330 -3 q 313 68 318 35 q 304 138 308 101 q 299 211 300 174 q 297 277 297 248 q 299 394 297 334 q 309 515 301 454 l 179 498 q 189 448 189 473 q 182 407 189 426 q 160 373 174 387 q 127 350 146 358 q 86 341 109 341 q 45 348 62 341 q 56 388 52 370 q 60 425 60 407 q 54 466 60 446 q 31 508 47 486 q 32 513 31 511 q 32 516 32 515 l 315 555 q 347 676 326 619 q 405 776 368 733 q 496 844 441 819 q 627 869 550 869 q 740 847 696 869 q 809 788 784 825 q 843 701 833 751 q 852 594 852 651 q 850 523 852 560 q 846 440 848 485 q 842 343 844 396 q 840 225 840 290 q 841 143 840 177 q 847 87 842 110 q 864 53 852 65 q 897 35 876 41 l 895 10 z "},"ቦ":{"ha":695,"x_min":66,"x_max":658,"o":"m 656 219 q 631 214 650 217 q 588 207 611 210 q 543 200 565 203 q 511 198 522 198 q 495 203 500 198 q 487 216 490 208 q 478 251 481 230 q 473 293 475 272 q 471 333 471 315 q 471 360 471 351 q 472 443 471 403 q 475 516 473 482 q 478 578 477 551 q 479 625 479 606 q 475 687 479 654 q 459 747 471 720 q 426 792 448 774 q 370 810 405 810 q 299 784 328 810 q 251 715 270 758 q 222 621 233 673 q 207 516 212 568 q 201 416 202 463 q 201 338 201 369 q 201 285 201 317 q 203 219 201 253 q 207 154 204 185 q 216 104 210 123 q 240 60 225 74 q 280 41 255 47 l 279 16 q 253 9 273 14 q 210 0 233 4 q 162 -8 186 -5 q 125 -11 139 -11 q 107 -7 115 -11 q 94 14 100 -3 q 82 68 87 35 q 74 138 77 101 q 68 211 70 174 q 66 277 66 248 q 69 408 66 339 q 82 542 71 476 q 113 667 92 608 q 169 771 133 726 q 260 842 205 816 q 391 869 314 869 q 502 848 459 869 q 569 794 545 827 q 602 719 593 761 q 611 635 611 677 q 610 586 611 610 q 606 535 608 563 q 603 472 604 507 q 602 388 602 437 q 603 326 602 351 q 609 283 604 300 q 625 257 614 267 q 658 244 637 248 l 656 219 z "},"ቧ":{"ha":925,"x_min":61,"x_max":911,"o":"m 911 -104 q 845 -115 884 -115 q 793 -106 817 -115 q 751 -81 768 -98 q 723 -39 733 -64 q 713 20 713 -14 l 332 -10 q 288 -134 332 -93 q 148 -175 245 -175 q 140 -175 144 -175 q 131 -174 136 -175 l 130 -162 q 160 -112 150 -140 q 170 -55 170 -84 q 161 -1 170 -33 l 159 14 l 463 39 q 466 127 465 77 q 468 232 467 178 q 471 341 469 286 q 473 442 472 395 q 474 524 473 489 q 474 575 474 559 q 471 646 474 608 q 457 715 468 684 q 426 767 446 747 q 370 788 405 788 q 301 767 330 788 q 253 712 273 745 q 222 638 234 679 q 205 558 211 597 q 197 487 199 519 q 195 437 195 454 q 195 401 195 423 q 197 357 195 380 q 201 313 198 334 q 209 278 203 292 q 230 248 217 256 q 266 237 243 240 l 264 212 q 240 205 259 209 q 199 197 222 201 q 154 190 176 193 q 120 186 132 186 q 102 190 110 186 q 89 205 94 193 q 77 243 82 220 q 68 292 72 267 q 63 344 64 318 q 61 392 61 370 q 66 489 61 437 q 85 590 72 540 q 123 686 99 640 q 184 767 147 732 q 274 823 222 802 q 397 844 327 844 q 498 821 458 844 q 562 761 538 799 q 596 673 586 723 q 606 568 606 623 q 605 511 606 546 q 604 433 605 476 q 602 341 603 390 q 600 241 601 292 q 597 142 598 191 q 594 50 595 93 l 880 75 q 874 20 874 48 q 883 -40 874 -10 q 910 -93 892 -71 l 911 -104 z "},"ቨ":{"ha":735,"x_min":20,"x_max":749,"o":"m 677 10 q 652 5 671 8 q 609 -2 632 1 q 564 -8 586 -6 q 532 -11 543 -11 q 516 -4 522 -11 q 507 14 511 2 q 500 51 503 28 q 496 95 497 73 q 494 137 494 118 q 494 166 494 157 q 495 258 494 211 q 498 346 496 304 q 501 422 500 388 q 503 475 503 456 q 497 538 503 508 q 480 591 492 568 q 447 628 468 614 q 395 642 426 642 q 324 620 353 642 q 276 565 295 599 q 245 490 256 532 q 229 407 234 448 q 222 330 223 366 q 220 272 220 294 l 220 231 q 221 193 220 213 q 222 154 221 173 q 225 118 223 135 q 232 90 228 101 q 256 56 240 66 q 296 41 271 45 l 295 16 q 269 9 289 14 q 226 0 250 4 q 179 -8 202 -5 q 142 -11 155 -11 q 124 -7 132 -11 q 111 14 116 -3 q 100 58 104 31 q 92 113 95 84 q 87 172 89 142 q 86 224 86 201 q 90 324 86 271 q 104 430 93 377 q 138 531 116 483 q 197 617 160 580 q 287 676 233 654 q 416 699 340 699 q 523 681 481 699 q 590 632 565 663 q 624 563 614 602 q 634 480 634 523 q 633 423 634 453 q 629 358 631 393 q 626 280 627 323 q 625 186 625 238 l 625 167 q 626 111 625 134 q 632 73 627 88 q 648 49 637 58 q 679 35 659 40 l 677 10 m 749 786 q 716 780 733 783 q 684 778 700 778 q 644 782 663 778 q 609 794 625 786 q 583 817 593 803 q 568 851 572 831 l 203 821 q 155 754 196 777 q 41 726 113 731 l 39 736 q 63 781 55 758 q 72 825 72 804 q 59 873 72 851 q 20 909 47 895 l 21 920 q 85 928 52 928 q 126 924 106 928 q 161 912 146 920 q 188 890 177 903 q 201 859 198 877 l 565 890 q 715 974 585 966 l 716 962 q 701 889 701 920 q 712 837 701 861 q 748 797 723 812 l 749 786 z "},"ቩ":{"ha":982,"x_min":20,"x_max":955,"o":"m 677 10 q 652 5 671 8 q 609 -2 632 1 q 564 -8 586 -6 q 532 -11 543 -11 q 516 -4 522 -11 q 507 14 511 2 q 500 51 503 28 q 496 95 497 73 q 494 137 494 118 q 494 166 494 157 q 495 258 494 211 q 498 346 496 304 q 501 422 500 388 q 503 475 503 456 q 497 538 503 508 q 480 591 492 568 q 447 628 468 614 q 395 642 426 642 q 324 620 353 642 q 276 565 295 599 q 245 490 256 532 q 229 407 234 448 q 222 330 223 366 q 220 272 220 294 l 220 231 q 221 193 220 213 q 222 154 221 173 q 225 118 223 135 q 232 90 228 101 q 256 56 240 66 q 296 41 271 45 l 295 16 q 269 9 289 14 q 226 0 250 4 q 179 -8 202 -5 q 142 -11 155 -11 q 124 -7 132 -11 q 111 14 116 -3 q 100 58 104 31 q 92 113 95 84 q 87 172 89 142 q 86 224 86 201 q 90 324 86 271 q 104 430 93 377 q 138 531 116 483 q 197 617 160 580 q 287 676 233 654 q 416 699 340 699 q 523 681 481 699 q 590 632 565 663 q 624 563 614 602 q 634 480 634 523 q 633 426 634 454 q 629 363 631 398 l 771 370 q 792 404 778 390 q 824 427 806 418 q 862 440 842 436 q 904 444 883 444 q 924 443 914 444 q 943 441 934 442 l 944 429 q 922 396 930 418 q 914 351 914 375 q 924 307 914 328 q 955 277 933 286 l 955 264 q 884 252 916 252 q 810 274 840 252 q 768 332 780 295 l 628 326 q 626 261 627 295 q 625 186 625 227 l 625 167 q 626 111 625 134 q 632 73 627 88 q 648 49 637 58 q 679 35 659 40 l 677 10 m 749 786 q 716 780 733 783 q 684 778 700 778 q 644 782 663 778 q 609 794 625 786 q 583 817 593 803 q 568 851 572 831 l 203 821 q 155 754 196 777 q 41 726 113 731 l 39 736 q 63 781 55 758 q 72 825 72 804 q 59 873 72 851 q 20 909 47 895 l 21 920 q 85 928 52 928 q 126 924 106 928 q 161 912 146 920 q 188 890 177 903 q 201 859 198 877 l 565 890 q 715 974 585 966 l 716 962 q 701 889 701 920 q 712 837 701 861 q 748 797 723 812 l 749 786 z "},"ቪ":{"ha":990,"x_min":20,"x_max":970,"o":"m 494 208 q 496 289 495 248 q 499 365 498 329 q 502 430 500 401 q 503 475 503 458 q 497 538 503 508 q 480 591 492 568 q 447 628 468 614 q 395 642 426 642 q 324 620 353 642 q 276 565 295 599 q 245 490 256 532 q 229 407 234 448 q 222 330 223 366 q 220 272 220 294 l 220 231 q 221 193 220 213 q 222 154 221 173 q 225 118 223 135 q 232 90 228 101 q 256 56 240 66 q 296 41 271 45 l 295 16 q 269 9 289 14 q 226 0 250 4 q 179 -8 202 -5 q 142 -11 155 -11 q 124 -7 132 -11 q 111 14 116 -3 q 100 58 104 31 q 92 113 95 84 q 87 172 89 142 q 86 224 86 201 q 90 324 86 271 q 104 430 93 377 q 138 531 116 483 q 197 617 160 580 q 287 676 233 654 q 416 699 340 699 q 523 681 481 699 q 590 632 565 663 q 624 563 614 602 q 634 480 634 523 q 633 429 634 456 q 630 371 632 402 q 627 304 629 340 q 625 225 626 269 l 625 184 q 627 121 625 147 q 634 78 628 96 q 648 60 638 65 q 682 55 659 55 q 729 56 700 55 q 788 61 758 57 q 834 123 798 100 q 939 150 871 146 l 941 134 q 926 102 932 121 q 921 62 921 83 q 932 9 921 35 q 970 -29 943 -16 l 968 -44 q 940 -49 955 -47 q 910 -51 925 -51 q 870 -47 890 -51 q 834 -35 850 -43 q 806 -12 818 -26 q 791 21 795 1 q 655 0 707 5 q 581 -5 604 -5 q 523 9 540 -5 q 503 47 506 24 q 496 116 497 80 q 494 179 494 152 l 494 208 m 749 786 q 716 780 733 783 q 684 778 700 778 q 644 782 663 778 q 609 794 625 786 q 583 817 593 803 q 568 851 572 831 l 203 821 q 155 754 196 777 q 41 726 113 731 l 39 736 q 63 781 55 758 q 72 825 72 804 q 59 873 72 851 q 20 909 47 895 l 21 920 q 85 928 52 928 q 126 924 106 928 q 161 912 146 920 q 188 890 177 903 q 201 859 198 877 l 565 890 q 715 974 585 966 l 716 962 q 701 889 701 920 q 712 837 701 861 q 748 797 723 812 l 749 786 z "},"ቫ":{"ha":735,"x_min":20,"x_max":749,"o":"m 677 10 q 652 5 671 8 q 609 -2 632 1 q 564 -8 586 -6 q 532 -11 543 -11 q 516 -4 522 -11 q 507 14 511 2 q 500 51 503 28 q 496 95 497 73 q 494 137 494 118 q 494 166 494 157 q 495 258 494 211 q 498 346 496 304 q 501 422 500 388 q 503 475 503 456 q 497 538 503 508 q 480 591 492 568 q 447 628 468 614 q 395 642 426 642 q 333 629 359 642 q 287 594 307 616 q 255 545 268 573 q 234 486 242 517 q 223 424 227 455 q 220 363 220 392 q 222 312 220 336 q 230 272 224 289 q 247 244 235 254 q 279 232 259 234 l 278 207 q 255 200 272 204 q 217 192 238 196 q 175 186 196 189 q 142 183 155 183 q 123 186 132 183 q 111 201 115 189 q 95 262 100 227 q 90 334 90 297 q 97 420 90 376 q 120 504 104 463 q 160 580 136 545 q 221 642 185 615 q 306 683 258 668 q 416 699 354 699 q 523 681 481 699 q 590 632 565 663 q 624 563 614 602 q 634 480 634 523 q 633 423 634 453 q 629 358 631 393 q 626 280 627 323 q 625 186 625 238 l 625 167 q 626 111 625 134 q 632 73 627 88 q 648 48 637 57 q 679 35 659 39 l 677 10 m 749 786 q 716 780 733 783 q 684 778 700 778 q 644 782 663 778 q 609 794 625 786 q 583 817 593 803 q 568 851 572 831 l 203 821 q 155 754 196 777 q 41 726 113 731 l 39 736 q 63 781 55 758 q 72 825 72 804 q 59 873 72 851 q 20 909 47 895 l 21 920 q 85 928 52 928 q 126 924 106 928 q 161 912 146 920 q 188 890 177 903 q 201 859 198 877 l 565 890 q 715 974 585 966 l 716 962 q 701 889 701 920 q 712 837 701 861 q 748 797 723 812 l 749 786 z "},"ቬ":{"ha":943,"x_min":20,"x_max":912,"o":"m 494 212 q 496 292 495 252 q 499 367 498 332 q 502 430 500 402 q 503 475 503 458 q 497 538 503 508 q 480 591 492 568 q 447 628 468 614 q 395 642 426 642 q 324 620 353 642 q 276 565 295 599 q 245 490 256 532 q 229 407 234 448 q 222 330 223 366 q 220 272 220 294 l 220 231 q 221 193 220 213 q 222 154 221 173 q 225 118 223 135 q 232 90 228 101 q 256 56 240 66 q 296 41 271 45 l 295 16 q 269 9 289 14 q 226 0 250 4 q 179 -8 202 -5 q 142 -11 155 -11 q 124 -7 132 -11 q 111 14 116 -3 q 100 58 104 31 q 92 113 95 84 q 87 172 89 142 q 86 224 86 201 q 90 324 86 271 q 104 430 93 377 q 138 531 116 483 q 197 617 160 580 q 287 676 233 654 q 416 699 340 699 q 523 681 481 699 q 590 632 565 663 q 624 563 614 602 q 634 480 634 523 q 630 377 634 434 q 625 241 627 320 q 712 256 672 250 q 787 261 753 261 q 880 232 847 261 q 912 143 912 203 q 900 81 912 106 q 866 38 887 55 q 818 13 846 21 q 760 5 790 5 q 735 6 747 5 q 705 8 724 7 q 666 1 690 5 q 619 -5 643 -2 q 573 -9 595 -7 q 540 -11 551 -11 q 510 14 517 -11 q 502 62 505 33 q 497 120 498 91 q 495 175 495 150 q 494 212 494 201 m 749 786 q 716 780 733 783 q 684 778 700 778 q 644 782 663 778 q 609 794 625 786 q 583 817 593 803 q 568 851 572 831 l 203 821 q 155 754 196 777 q 41 726 113 731 l 39 736 q 63 781 55 758 q 72 825 72 804 q 59 873 72 851 q 20 909 47 895 l 21 920 q 85 928 52 928 q 126 924 106 928 q 161 912 146 920 q 188 890 177 903 q 201 859 198 877 l 565 890 q 715 974 585 966 l 716 962 q 701 889 701 920 q 712 837 701 861 q 748 797 723 812 l 749 786 m 625 158 q 627 106 625 128 q 637 69 629 84 q 661 47 645 54 q 705 39 677 39 q 742 47 726 39 q 768 67 758 54 q 783 97 778 80 q 787 134 787 114 q 770 193 787 171 q 711 215 753 215 q 672 212 694 215 q 625 205 650 210 l 625 158 z "},"ቭ":{"ha":946,"x_min":31,"x_max":960,"o":"m 888 10 q 863 5 882 8 q 820 -2 844 1 q 773 -8 796 -6 q 736 -11 749 -11 q 718 14 725 -11 q 711 51 713 28 q 707 95 708 73 q 705 137 705 118 q 705 166 705 157 q 706 258 705 211 q 709 346 707 304 q 712 422 711 388 q 713 475 713 456 q 708 538 713 508 q 691 591 703 568 q 658 628 679 614 q 606 642 637 642 q 535 620 564 642 q 487 565 506 599 q 456 490 467 532 q 439 407 445 448 q 433 330 434 366 q 431 272 431 294 l 431 231 q 432 193 431 213 q 433 154 432 173 q 436 118 434 135 q 443 90 439 101 q 467 56 451 66 q 507 41 482 45 l 506 16 q 480 9 500 14 q 437 0 460 4 q 390 -8 413 -5 q 353 -11 366 -11 q 335 -7 342 -11 q 321 14 327 -3 q 311 58 315 31 q 303 113 306 84 q 298 172 300 142 q 297 224 297 201 q 298 288 297 255 q 303 355 300 321 l 179 339 q 189 289 189 313 q 182 247 189 267 q 160 213 174 228 q 127 190 146 199 q 86 182 109 182 q 45 189 62 182 q 56 229 52 210 q 60 265 60 248 q 54 306 60 286 q 31 349 47 326 q 32 354 31 352 q 32 357 32 356 l 309 395 q 338 507 318 452 q 395 604 359 562 q 489 673 432 647 q 627 699 545 699 q 734 681 692 699 q 801 632 776 663 q 835 563 825 602 q 845 480 845 523 q 844 423 845 453 q 840 358 842 393 q 837 280 838 323 q 836 186 836 238 l 836 167 q 837 111 836 134 q 843 73 838 88 q 859 49 848 58 q 890 35 870 40 l 888 10 m 960 786 q 927 780 944 783 q 895 778 911 778 q 855 782 874 778 q 820 794 836 786 q 793 817 804 803 q 779 851 783 831 l 414 821 q 366 754 407 777 q 252 726 324 731 l 250 736 q 274 781 266 758 q 283 825 283 804 q 270 873 283 851 q 231 909 258 895 l 232 920 q 296 928 262 928 q 337 924 317 928 q 372 912 357 920 q 398 890 388 903 q 412 859 409 877 l 776 890 q 926 974 796 966 l 927 962 q 911 889 911 920 q 923 837 911 861 q 959 797 934 812 l 960 786 z "},"ቮ":{"ha":735,"x_min":20,"x_max":749,"o":"m 677 220 q 652 215 671 218 q 609 208 632 212 q 565 202 587 204 q 532 199 543 199 q 516 204 522 199 q 507 216 511 208 q 500 241 503 226 q 496 272 497 256 q 494 300 494 287 q 494 319 494 313 q 495 365 494 340 q 497 414 496 390 q 499 460 498 439 q 500 495 500 481 q 495 543 500 517 q 479 590 490 568 q 447 627 467 612 q 395 642 426 642 q 324 620 353 642 q 276 565 295 599 q 245 490 256 532 q 229 407 234 448 q 222 330 223 366 q 220 272 220 294 l 220 231 q 221 193 220 213 q 222 154 221 173 q 225 118 223 135 q 232 90 228 101 q 256 56 240 66 q 296 41 271 45 l 295 16 q 269 9 289 14 q 226 0 250 4 q 179 -8 202 -5 q 142 -11 155 -11 q 124 -7 132 -11 q 111 14 116 -3 q 100 58 104 31 q 92 113 95 84 q 87 172 89 142 q 86 224 86 201 q 90 324 86 271 q 104 430 93 377 q 138 531 116 483 q 197 617 160 580 q 287 676 233 654 q 416 699 340 699 q 523 681 481 699 q 588 636 564 663 q 622 577 612 609 q 631 515 631 545 q 628 434 631 479 q 625 349 625 390 q 625 304 625 323 q 631 274 626 286 q 647 255 635 262 q 679 245 658 248 l 677 220 m 749 786 q 716 780 733 783 q 684 778 700 778 q 644 782 663 778 q 609 794 625 786 q 583 817 593 803 q 568 851 572 831 l 203 821 q 155 754 196 777 q 41 726 113 731 l 39 736 q 63 781 55 758 q 72 825 72 804 q 59 873 72 851 q 20 909 47 895 l 21 920 q 85 928 52 928 q 126 924 106 928 q 161 912 146 920 q 188 890 177 903 q 201 859 198 877 l 565 890 q 715 974 585 966 l 716 962 q 701 889 701 920 q 712 837 701 861 q 748 797 723 812 l 749 786 z "},"ቯ":{"ha":950,"x_min":20,"x_max":937,"o":"m 486 39 q 489 106 487 69 q 492 184 490 144 q 496 266 494 224 q 499 346 498 307 q 502 418 500 385 q 503 475 503 451 q 497 538 503 508 q 480 591 492 568 q 447 628 468 614 q 395 642 426 642 q 333 629 359 642 q 287 594 307 616 q 255 545 268 573 q 234 486 242 517 q 223 424 227 455 q 220 363 220 392 q 222 312 220 336 q 230 272 224 289 q 247 244 235 254 q 279 232 259 234 l 278 207 q 255 200 272 204 q 217 192 238 196 q 175 186 196 189 q 142 183 155 183 q 123 186 132 183 q 111 201 115 189 q 95 262 100 227 q 90 334 90 297 q 97 420 90 376 q 120 504 104 463 q 160 580 136 545 q 221 642 185 615 q 306 683 258 668 q 416 699 354 699 q 523 681 481 699 q 590 632 565 663 q 624 563 614 602 q 634 480 634 523 q 632 396 634 448 q 628 285 631 345 q 622 164 625 226 q 616 50 619 102 l 905 75 q 899 20 899 48 q 908 -40 899 -10 q 935 -93 917 -71 l 937 -104 q 870 -115 909 -115 q 818 -106 842 -115 q 776 -81 793 -98 q 748 -39 758 -64 q 738 20 738 -14 l 357 -10 q 314 -133 357 -92 q 174 -175 271 -174 q 165 -175 170 -175 q 156 -174 161 -175 l 155 -162 q 185 -112 175 -140 q 195 -55 195 -84 q 186 -1 195 -33 l 184 14 l 486 39 m 749 786 q 716 780 733 783 q 684 778 700 778 q 644 782 663 778 q 609 794 625 786 q 583 817 593 803 q 568 851 572 831 l 203 821 q 155 754 196 777 q 41 726 113 731 l 39 736 q 63 781 55 758 q 72 825 72 804 q 59 873 72 851 q 20 909 47 895 l 21 920 q 85 928 52 928 q 126 924 106 928 q 161 912 146 920 q 188 890 177 903 q 201 859 198 877 l 565 890 q 715 974 585 966 l 716 962 q 701 889 701 919 q 712 837 701 861 q 748 797 723 812 l 749 786 z "},"ተ":{"ha":846,"x_min":20,"x_max":829,"o":"m 372 849 q 407 857 389 853 q 441 863 425 860 q 471 867 458 865 q 492 868 484 868 q 526 858 516 868 q 535 823 535 847 q 534 808 535 816 q 532 791 534 801 q 516 689 524 740 q 500 585 508 638 l 798 610 q 793 582 795 597 q 792 553 792 566 q 801 490 792 522 q 828 436 810 458 l 829 425 q 772 414 795 414 q 724 423 746 414 q 684 450 701 432 q 658 495 667 469 q 649 557 648 522 l 494 545 q 463 323 478 431 q 435 102 448 214 q 434 95 435 98 q 434 88 434 92 l 434 76 q 441 45 434 58 q 471 32 448 33 l 471 7 q 436 -1 454 3 q 403 -7 419 -4 q 374 -11 387 -9 q 353 -12 361 -12 q 315 2 325 -12 q 304 40 304 16 q 305 51 304 45 q 306 61 305 56 q 336 298 320 182 q 370 535 353 414 l 203 522 q 194 446 203 479 q 163 392 184 414 q 106 361 141 371 q 21 353 71 351 l 20 365 q 50 416 40 387 q 60 475 60 446 q 58 504 60 489 q 51 532 56 519 l 50 548 l 376 575 l 389 665 l 404 754 q 406 778 406 762 q 399 809 406 795 q 372 824 392 823 l 372 849 z "},"ቱ":{"ha":846,"x_min":20,"x_max":828,"o":"m 372 849 q 407 857 389 853 q 441 863 425 860 q 471 867 458 865 q 492 868 484 868 q 526 858 516 868 q 535 823 535 847 q 534 808 535 816 q 532 791 534 801 q 516 689 524 740 q 500 585 508 638 l 798 610 q 793 582 795 597 q 792 553 792 566 q 800 492 792 522 q 827 439 808 461 l 828 428 q 770 416 793 416 q 722 425 745 416 q 683 452 700 434 q 657 496 667 469 q 649 557 648 522 l 494 545 q 473 398 484 471 q 454 252 463 326 l 617 265 q 636 299 623 285 q 665 322 648 313 q 701 336 682 332 q 742 342 721 341 q 762 341 752 342 q 781 339 772 340 l 782 327 q 761 294 768 316 q 755 249 753 273 q 766 205 755 225 q 798 176 776 184 l 798 163 q 730 149 768 149 q 660 168 691 149 q 618 228 628 187 l 449 214 q 442 158 446 186 q 435 102 439 130 q 434 95 435 98 q 434 88 434 92 l 434 76 q 441 45 434 58 q 471 32 448 33 l 471 7 q 436 -1 454 3 q 403 -7 419 -4 q 374 -11 387 -9 q 353 -12 361 -12 q 315 2 325 -12 q 304 40 304 16 q 305 51 304 45 q 306 61 305 56 q 336 298 320 182 q 370 535 353 414 l 203 522 q 194 446 203 479 q 163 392 184 414 q 106 361 141 371 q 21 353 71 351 l 20 365 q 50 416 40 387 q 60 475 60 446 q 58 504 60 489 q 51 532 56 519 l 50 548 l 376 575 l 389 665 l 404 754 q 406 778 406 762 q 399 809 406 795 q 372 824 392 823 l 372 849 z "},"ቲ":{"ha":846,"x_min":20,"x_max":829,"o":"m 304 35 q 304 48 304 41 q 306 61 305 56 q 336 298 320 182 q 370 535 353 414 l 203 522 q 194 446 203 479 q 163 392 184 414 q 106 361 141 371 q 21 353 71 351 l 20 365 q 50 416 40 387 q 60 475 60 446 q 58 504 60 489 q 51 532 56 519 l 50 548 l 376 575 l 389 665 l 404 754 q 406 778 406 762 q 399 809 406 795 q 372 824 392 823 l 372 849 q 407 857 389 853 q 441 863 425 860 q 471 867 458 865 q 492 868 484 868 q 526 858 516 868 q 535 823 535 847 q 534 808 535 816 q 532 791 534 801 q 516 689 524 740 q 500 585 508 638 l 798 610 q 793 582 795 597 q 792 553 792 566 q 801 490 792 522 q 828 436 810 458 l 829 425 q 772 414 795 414 q 724 423 746 414 q 684 450 701 432 q 658 495 667 469 q 649 557 648 522 l 494 545 q 463 323 478 431 q 435 102 448 214 q 433 82 434 94 q 433 64 433 71 q 438 47 433 53 q 458 41 444 41 q 516 42 479 41 q 599 48 554 43 q 750 134 618 127 l 752 119 q 736 82 741 103 q 730 40 730 62 q 742 -15 730 11 q 778 -52 753 -40 l 777 -67 q 748 -72 763 -71 q 718 -74 733 -74 q 678 -70 698 -74 q 642 -57 658 -66 q 614 -32 625 -48 q 598 8 602 -16 q 459 -10 516 -4 q 368 -16 403 -16 q 318 -1 333 -16 q 304 35 304 14 z "},"ታ":{"ha":974,"x_min":7,"x_max":957,"o":"m 41 127 q 157 135 100 131 q 263 150 213 140 q 354 179 313 160 q 426 230 396 197 q 473 311 456 262 q 490 430 490 359 l 490 549 l 334 537 q 325 463 334 494 q 294 410 315 431 q 238 379 273 389 q 153 372 203 370 l 152 384 q 181 434 172 406 q 191 491 191 462 q 189 520 191 505 q 182 548 187 534 l 180 564 l 490 589 l 490 812 q 483 844 490 830 q 456 859 475 857 l 456 884 q 490 891 473 888 q 524 897 508 895 q 552 901 539 900 q 572 903 565 903 q 606 892 596 903 q 615 857 615 882 l 615 600 l 926 626 q 921 597 922 612 q 920 568 920 582 q 928 506 920 538 q 956 452 937 474 l 957 441 q 899 429 922 429 q 851 438 873 429 q 812 466 829 448 q 785 511 795 484 q 777 573 776 538 l 615 560 l 615 425 q 601 319 615 365 q 562 238 587 273 q 506 180 538 204 q 438 140 473 156 q 365 116 402 125 q 295 103 328 107 q 233 97 261 98 q 185 95 204 96 q 186 82 186 87 q 186 68 186 76 q 177 -3 186 27 q 151 -53 168 -33 q 111 -83 134 -73 q 61 -93 88 -93 q 35 -91 48 -93 q 7 -84 21 -88 q 36 -21 26 -52 q 46 47 46 9 q 44 85 46 66 q 37 121 41 104 l 41 127 z "},"ቴ":{"ha":846,"x_min":20,"x_max":829,"o":"m 354 -7 q 315 7 326 -7 q 305 45 305 21 q 306 55 305 50 q 307 66 306 60 q 337 300 321 185 q 370 535 353 415 l 203 522 q 194 446 203 479 q 163 392 184 414 q 106 361 141 371 q 21 353 71 351 l 20 365 q 50 416 40 387 q 60 475 60 446 q 58 504 60 489 q 51 532 56 519 l 50 548 l 376 575 l 389 665 l 404 754 q 406 778 406 762 q 399 809 406 795 q 372 824 392 823 l 372 849 q 407 857 389 853 q 441 863 425 860 q 471 867 458 865 q 492 868 484 868 q 526 858 516 868 q 535 823 535 847 q 534 808 535 816 q 532 791 534 801 q 516 689 524 740 q 500 585 508 638 l 798 610 q 793 582 795 597 q 792 553 792 566 q 801 490 792 522 q 828 436 810 458 l 829 425 q 772 414 795 414 q 724 423 746 414 q 684 450 701 432 q 658 495 667 469 q 649 557 648 522 l 494 545 q 474 401 484 471 q 454 258 464 332 q 547 273 505 267 q 623 279 588 279 q 711 254 681 279 q 741 175 741 228 q 726 102 741 133 q 686 52 711 72 q 630 22 662 32 q 565 12 598 12 q 541 13 552 12 q 510 15 529 14 q 472 8 494 12 q 428 1 450 4 q 386 -5 406 -3 q 354 -7 366 -7 m 444 174 q 441 142 442 157 q 439 116 439 128 q 443 86 439 98 q 455 65 446 73 q 479 53 464 57 q 516 49 494 49 q 560 59 541 49 q 591 84 579 68 q 610 121 604 100 q 616 165 616 142 q 600 214 616 197 q 543 231 584 231 q 502 228 526 231 q 450 220 478 224 l 444 174 z "},"ት":{"ha":846,"x_min":20,"x_max":829,"o":"m 154 1000 q 180 1004 166 1003 q 208 1005 194 1005 q 255 1002 231 1005 q 301 989 280 998 q 335 964 321 980 q 349 921 349 947 q 339 886 349 901 q 317 861 330 871 l 317 859 q 368 863 340 861 q 421 866 396 865 q 467 867 447 867 q 492 868 486 868 q 526 858 516 868 q 535 823 535 847 q 534 808 535 816 q 532 791 534 801 q 516 689 524 740 q 500 585 508 638 l 798 610 q 793 582 795 597 q 792 553 792 566 q 801 490 792 522 q 828 436 810 458 l 829 425 q 772 414 795 414 q 724 423 746 414 q 684 450 701 432 q 658 495 667 469 q 649 557 648 522 l 494 545 q 463 323 478 431 q 435 102 448 214 q 434 95 435 98 q 434 88 434 92 l 434 76 q 441 45 434 58 q 471 32 448 33 l 471 7 q 436 -1 454 3 q 403 -7 419 -4 q 374 -11 387 -9 q 353 -12 361 -12 q 315 2 325 -12 q 304 40 304 16 q 305 51 304 45 q 306 61 305 56 q 336 298 321 182 q 370 535 352 414 l 203 522 q 194 446 203 479 q 163 392 184 414 q 106 361 141 371 q 21 353 71 351 l 20 365 q 50 416 40 387 q 60 475 60 446 q 58 504 60 489 q 51 532 56 519 l 50 548 l 376 575 q 389 661 382 618 q 402 747 395 703 q 405 774 405 757 q 400 798 405 787 q 382 816 395 808 q 345 829 369 824 q 283 838 321 835 q 226 824 257 827 q 166 820 195 821 l 164 831 q 201 914 201 869 q 190 956 201 936 q 153 989 178 975 l 154 1000 z "},"ቶ":{"ha":843,"x_min":20,"x_max":826,"o":"m 480 467 q 455 284 467 373 q 432 102 444 195 q 431 95 431 98 q 431 88 431 92 l 431 76 q 438 45 431 58 q 467 32 445 33 l 467 7 q 433 -1 450 3 q 400 -7 416 -4 q 371 -11 384 -9 q 350 -12 358 -12 q 311 2 321 -12 q 301 40 301 16 q 301 51 301 45 q 302 61 302 56 q 332 290 316 178 q 365 519 348 402 q 269 495 310 502 q 203 486 227 488 q 194 410 203 443 q 163 355 184 377 q 106 322 141 333 q 21 314 71 312 l 20 326 q 50 378 40 348 q 60 437 60 408 q 58 466 60 450 q 51 494 56 481 l 50 509 q 111 513 75 511 q 186 520 146 515 q 269 533 226 525 q 353 555 312 541 q 325 592 339 572 q 299 635 311 613 q 280 681 288 658 q 273 726 273 705 q 295 806 273 772 q 354 862 318 840 q 433 896 389 884 q 517 907 476 907 q 571 900 544 907 q 620 880 598 894 q 655 844 642 867 q 668 791 668 822 q 652 715 668 748 q 610 656 636 682 q 551 609 584 630 q 484 570 518 588 q 487 542 487 562 q 485 508 487 524 l 795 534 q 790 505 791 520 q 789 476 789 490 q 798 414 789 446 q 825 359 806 382 l 826 349 q 768 337 791 337 q 720 346 743 337 q 681 374 698 355 q 654 419 664 392 q 646 481 645 446 l 480 467 m 467 604 q 532 672 510 634 q 554 764 554 709 q 534 830 554 805 q 473 855 514 855 q 437 850 454 855 q 409 835 421 845 q 390 810 397 825 q 383 778 383 796 q 391 733 383 756 q 412 687 399 710 q 438 644 424 665 q 467 604 453 623 z "},"ቷ":{"ha":865,"x_min":-7,"x_max":848,"o":"m 321 57 q 354 311 338 186 q 390 563 371 436 l 222 549 q 213 474 222 507 q 182 420 203 441 q 125 389 160 399 q 40 380 90 378 l 39 393 q 69 444 59 414 q 79 503 79 474 q 77 532 79 517 q 70 560 75 547 l 68 576 l 396 603 q 405 664 401 633 q 415 726 410 694 q 418 750 418 732 q 411 781 418 768 q 384 796 404 795 l 384 821 q 419 829 401 825 q 453 835 437 832 q 483 839 469 838 q 504 840 496 840 q 537 830 528 840 q 547 795 547 819 q 546 781 547 788 q 544 764 545 773 l 532 689 q 526 651 528 670 q 520 613 523 633 l 817 638 q 812 609 814 625 q 811 581 811 594 q 820 518 811 550 q 847 464 829 486 l 848 453 q 791 441 812 441 q 744 450 766 441 q 706 475 722 458 q 679 517 689 492 q 668 576 669 543 l 668 585 l 515 573 q 479 318 496 442 q 448 68 463 193 l 758 94 q 753 65 754 80 q 751 36 751 50 q 760 -26 751 5 q 787 -81 769 -58 l 789 -92 q 731 -103 753 -103 q 683 -94 705 -103 q 644 -66 661 -85 q 617 -21 627 -48 q 608 41 608 5 l 176 6 q 168 -66 176 -35 q 139 -119 159 -98 q 89 -152 120 -140 q 14 -163 58 -163 q 4 -163 9 -163 q -6 -163 -1 -163 l -7 -151 q 23 -99 13 -129 q 33 -40 33 -69 q 31 -11 33 -26 q 24 17 28 4 l 22 33 l 321 57 z "},"ቸ":{"ha":856,"x_min":20,"x_max":839,"o":"m 839 774 q 807 768 823 770 q 774 766 790 766 q 734 770 753 766 q 700 782 715 774 q 673 805 684 791 q 658 839 662 819 l 540 829 l 500 577 l 798 602 q 793 573 795 589 q 792 545 792 558 q 801 482 792 514 q 828 428 810 450 l 829 417 q 772 406 795 406 q 724 415 746 406 q 684 442 701 424 q 658 487 667 460 q 649 549 648 514 l 494 536 q 464 319 478 425 q 437 102 450 212 q 436 95 436 98 q 435 88 435 92 l 435 76 q 443 45 435 58 q 472 32 450 33 l 472 7 q 438 -1 455 3 q 405 -7 420 -4 q 376 -11 389 -9 q 355 -12 363 -12 q 316 2 326 -12 q 306 40 306 16 q 306 51 306 45 q 307 61 307 56 q 337 294 321 180 q 370 527 353 408 l 203 513 q 194 438 203 471 q 163 384 184 406 q 106 353 141 363 q 21 345 71 342 l 20 357 q 50 408 40 378 q 60 467 60 438 q 58 496 60 481 q 51 524 56 511 l 50 540 l 376 567 l 415 819 l 275 807 q 226 741 267 764 q 113 712 184 718 l 111 723 q 136 769 126 745 q 146 817 146 793 q 134 862 146 841 q 97 897 123 882 l 98 908 q 161 916 128 916 q 202 912 183 916 q 236 899 221 907 q 260 877 250 890 q 272 845 269 863 l 655 878 q 705 939 665 917 q 810 963 745 962 l 812 951 q 799 912 804 932 q 794 872 794 892 q 804 823 794 846 q 838 785 814 800 l 839 774 z "},"ቹ":{"ha":856,"x_min":22,"x_max":839,"o":"m 839 774 q 807 768 823 770 q 774 766 790 766 q 734 770 753 766 q 700 782 715 774 q 673 805 684 791 q 658 839 662 819 l 540 829 l 502 585 l 800 610 q 795 582 796 597 q 793 553 793 566 q 802 492 793 522 q 829 439 811 462 l 831 429 q 773 417 796 417 q 725 426 747 417 q 686 452 703 435 q 659 496 669 470 q 650 557 650 522 l 496 545 q 472 382 484 463 q 451 220 461 302 l 601 232 q 620 266 607 252 q 649 289 632 280 q 685 303 665 298 q 726 309 705 308 q 746 308 736 309 q 765 306 755 307 l 766 294 q 745 261 752 283 q 739 216 737 239 q 749 172 739 192 q 781 142 760 151 l 782 130 q 713 115 752 115 q 643 135 675 115 q 602 195 612 154 l 446 182 q 441 142 444 162 q 437 102 439 121 q 436 95 436 98 q 435 88 435 92 l 435 76 q 443 45 435 58 q 472 32 450 33 l 472 7 q 438 -1 455 3 q 405 -7 420 -4 q 376 -11 389 -9 q 355 -12 363 -12 q 316 2 326 -12 q 306 40 306 16 q 306 51 306 45 q 307 61 307 56 q 338 298 321 182 q 372 535 354 414 l 205 522 q 195 446 205 479 q 164 392 186 414 q 107 361 142 371 q 22 353 73 351 l 22 365 q 52 416 41 387 q 62 475 62 446 q 59 504 62 489 q 52 532 57 519 l 51 548 l 377 575 l 415 819 l 275 807 q 226 741 267 764 q 113 712 184 718 l 111 723 q 136 769 126 745 q 146 817 146 793 q 134 862 146 841 q 97 897 123 882 l 98 908 q 161 916 128 916 q 202 912 183 916 q 236 899 221 907 q 260 877 250 890 q 272 845 269 863 l 655 878 q 705 939 665 917 q 810 963 745 962 l 812 951 q 799 912 804 932 q 794 872 794 892 q 804 823 794 846 q 838 785 814 800 l 839 774 z "},"ቺ":{"ha":856,"x_min":20,"x_max":839,"o":"m 355 -12 q 316 2 326 -12 q 306 40 306 16 q 306 51 306 45 q 307 61 307 56 q 337 294 321 180 q 370 527 353 408 l 203 513 q 194 438 203 471 q 163 384 184 406 q 106 353 141 363 q 21 345 71 342 l 20 357 q 50 408 40 378 q 60 467 60 438 q 58 496 60 481 q 51 524 56 511 l 50 540 l 376 567 l 415 819 l 275 807 q 226 741 267 764 q 113 712 184 718 l 111 723 q 136 769 126 745 q 146 817 146 793 q 134 862 146 841 q 97 897 123 882 l 98 908 q 161 916 128 916 q 202 912 183 916 q 236 899 221 907 q 260 877 250 890 q 272 845 269 863 l 655 878 q 705 939 665 917 q 810 963 745 962 l 812 951 q 799 912 804 932 q 794 872 794 892 q 804 823 794 846 q 838 785 814 800 l 839 774 q 807 768 823 770 q 774 766 790 766 q 734 770 753 766 q 700 782 715 774 q 673 805 684 791 q 658 839 662 819 l 540 829 l 500 577 l 798 602 q 793 573 795 589 q 792 545 792 558 q 801 482 792 514 q 828 428 810 450 l 829 417 q 772 406 795 406 q 724 415 746 406 q 684 442 701 424 q 658 487 667 460 q 649 549 648 514 l 494 536 q 464 319 478 425 q 437 102 450 212 q 435 84 435 94 q 434 68 434 74 q 439 50 434 56 q 459 44 445 44 q 483 45 467 44 q 518 47 499 45 q 556 51 537 49 q 590 54 576 52 q 636 117 600 94 q 741 143 673 140 l 743 127 q 727 92 733 112 q 722 50 722 71 q 732 -4 722 21 q 768 -41 743 -29 l 767 -56 q 739 -61 753 -60 q 709 -63 724 -63 q 669 -58 688 -63 q 633 -44 649 -54 q 605 -20 616 -35 q 589 14 593 -5 q 446 -5 507 2 q 355 -12 385 -12 z "},"ቻ":{"ha":926,"x_min":10,"x_max":909,"o":"m 46 69 q 130 85 89 77 q 210 105 172 94 q 281 136 248 117 q 341 183 315 155 q 388 254 368 212 q 416 354 407 296 q 429 435 423 397 q 441 518 434 474 l 274 505 q 264 429 274 462 q 233 375 255 397 q 177 344 212 354 q 92 336 142 334 l 91 348 q 121 399 111 370 q 131 458 131 429 q 129 487 131 472 q 121 515 126 503 l 120 531 l 446 558 l 486 808 l 345 796 q 296 731 338 753 q 183 703 255 709 l 181 714 q 207 760 197 736 q 216 808 216 785 q 205 853 216 832 q 168 888 193 873 l 168 899 q 232 907 199 907 q 273 903 254 907 q 306 889 292 898 q 330 866 321 880 q 342 834 340 852 l 726 867 q 775 930 736 906 q 881 956 815 954 l 882 944 q 869 905 874 925 q 865 865 865 884 q 875 816 865 839 q 909 777 885 793 l 909 766 q 877 761 894 763 q 844 758 861 758 q 805 762 824 758 q 770 773 786 765 q 743 794 754 781 q 728 828 732 808 l 610 818 l 571 568 l 869 593 q 864 565 865 580 q 863 536 863 549 q 871 473 863 505 q 899 419 880 441 l 900 408 q 842 397 865 397 q 794 406 817 397 q 755 433 772 415 q 728 478 738 452 q 720 541 719 505 l 565 528 q 552 440 558 481 q 540 354 547 399 q 508 252 532 298 q 441 170 484 205 q 336 107 399 134 q 189 62 274 80 q 190 48 189 55 q 190 35 190 42 q 181 -36 190 -6 q 156 -86 172 -66 q 118 -116 140 -106 q 69 -125 96 -125 q 10 -115 37 -125 q 40 -58 30 -83 q 51 1 51 -32 q 43 62 51 23 l 46 69 z "},"ቼ":{"ha":856,"x_min":20,"x_max":839,"o":"m 307 64 q 337 295 321 182 q 370 527 353 408 l 203 513 q 194 438 203 471 q 163 384 184 406 q 106 353 141 363 q 21 345 71 342 l 20 357 q 50 408 40 378 q 60 467 60 438 q 58 496 60 481 q 51 524 56 511 l 50 540 l 376 567 l 415 819 l 275 807 q 226 741 267 764 q 113 712 184 718 l 111 723 q 136 769 126 745 q 146 817 146 793 q 134 862 146 841 q 97 897 123 882 l 98 908 q 161 916 128 916 q 202 912 183 916 q 236 899 221 907 q 260 877 250 890 q 272 845 269 863 l 655 878 q 705 939 665 917 q 810 963 745 962 l 812 951 q 799 912 804 932 q 794 872 794 892 q 804 823 794 846 q 838 785 814 800 l 839 774 q 807 768 823 770 q 774 766 790 766 q 734 770 753 766 q 700 782 715 774 q 673 805 684 791 q 658 839 662 819 l 540 829 l 500 577 l 798 602 q 793 573 795 589 q 792 545 792 558 q 801 482 792 514 q 828 428 810 450 l 829 417 q 772 406 795 406 q 724 415 746 406 q 684 442 701 424 q 658 487 667 460 q 649 549 648 514 l 494 536 q 474 396 484 465 q 456 258 465 328 q 548 273 507 267 q 625 279 589 279 q 712 254 682 279 q 742 175 742 228 q 727 102 742 133 q 688 52 712 72 q 631 22 663 32 q 566 12 600 12 q 542 13 553 12 q 511 15 530 14 q 473 8 495 12 q 429 1 451 4 q 387 -5 407 -3 q 355 -7 368 -7 q 316 7 327 -7 q 306 45 306 21 q 306 54 306 50 q 307 64 307 58 m 446 174 q 442 142 444 157 q 441 116 441 128 q 444 86 441 98 q 456 65 448 73 q 480 53 465 57 q 517 49 495 49 q 562 59 543 49 q 593 84 581 68 q 611 121 605 100 q 617 165 617 142 q 601 214 617 197 q 545 231 585 231 q 503 228 527 231 q 451 220 479 224 l 446 174 z "},"ች":{"ha":852,"x_min":0,"x_max":835,"o":"m 292 766 l 319 937 l 33 913 l 33 913 q 36 936 35 925 q 37 958 37 947 q 29 1009 37 984 q 1 1060 21 1034 l 0 1071 q 34 1081 17 1078 q 67 1084 51 1084 q 111 1077 90 1084 q 146 1055 131 1069 q 170 1017 161 1040 q 179 963 179 994 l 582 998 q 632 1064 592 1041 q 737 1088 671 1088 l 739 1076 q 725 1038 730 1058 q 720 999 720 1019 q 730 954 720 975 q 764 917 740 932 l 764 906 q 732 900 749 903 q 699 898 715 898 q 627 911 658 898 q 585 959 596 924 l 444 947 l 420 804 l 538 814 l 543 811 q 538 783 541 798 q 533 753 536 769 l 523 691 q 514 630 518 660 q 506 577 509 600 l 804 602 q 799 573 800 589 q 798 545 798 558 q 806 482 798 514 q 833 428 815 450 l 835 417 q 777 406 800 406 q 729 415 751 406 q 690 442 707 424 q 663 487 673 460 q 654 549 654 514 l 500 536 q 469 319 484 425 q 442 102 455 212 q 441 95 441 98 q 441 88 441 92 l 441 76 q 448 45 441 58 q 477 32 455 33 l 477 7 q 443 -1 460 3 q 410 -7 426 -4 q 381 -11 394 -9 q 360 -12 368 -12 q 321 2 332 -12 q 311 40 311 16 q 312 51 311 45 q 313 61 312 56 q 342 294 327 180 q 376 527 358 408 l 209 513 q 199 438 209 471 q 168 384 190 406 q 112 353 146 363 q 26 345 77 342 l 26 357 q 56 408 45 378 q 66 467 66 438 q 63 496 66 481 q 56 524 61 511 l 55 540 l 381 567 q 387 610 383 585 q 395 663 391 635 q 404 720 399 691 q 413 774 409 749 l 296 764 l 292 766 z "},"ቾ":{"ha":843,"x_min":20,"x_max":826,"o":"m 480 467 q 455 284 467 373 q 432 102 444 195 q 431 95 431 98 q 431 88 431 92 l 431 76 q 438 45 431 58 q 467 32 445 33 l 467 7 q 433 -1 450 3 q 400 -7 416 -4 q 371 -11 384 -9 q 350 -12 358 -12 q 311 2 321 -12 q 301 40 301 16 q 301 51 301 45 q 302 61 302 56 q 332 290 316 178 q 365 519 348 402 q 269 495 310 502 q 203 486 227 488 q 194 410 203 443 q 163 355 184 377 q 106 322 141 333 q 21 314 71 312 l 20 326 q 50 378 40 348 q 60 437 60 408 q 58 466 60 450 q 51 494 56 481 l 50 509 q 111 513 75 511 q 186 520 146 515 q 269 533 226 525 q 353 555 312 541 q 325 592 339 572 q 299 635 311 613 q 280 681 288 658 q 273 726 273 705 q 285 788 273 761 q 319 836 298 814 q 259 821 297 825 q 180 818 222 817 l 178 829 q 215 912 215 867 q 204 954 215 934 q 167 987 193 973 l 168 998 q 203 1002 186 1000 q 239 1003 221 1003 q 288 999 264 1003 q 331 985 312 995 q 361 958 349 975 q 372 916 372 941 q 357 864 372 888 q 404 887 379 879 q 454 900 429 895 q 504 907 479 905 q 551 913 528 909 q 592 921 573 916 q 625 936 611 926 q 647 962 640 945 q 655 1003 655 978 q 649 1054 655 1024 l 802 1069 q 810 1019 810 1043 q 803 976 810 996 q 782 940 796 956 q 748 916 768 925 q 700 907 727 907 q 663 911 683 907 q 637 896 648 902 q 612 884 625 890 q 652 848 637 871 q 668 791 668 825 q 652 715 668 748 q 610 656 636 682 q 551 609 584 630 q 484 570 518 588 q 487 542 487 562 q 485 508 487 524 l 795 534 q 790 505 791 520 q 789 476 789 490 q 798 414 789 446 q 825 359 806 382 l 826 349 q 768 337 791 337 q 720 346 743 337 q 681 374 698 355 q 654 419 664 392 q 646 481 645 446 l 480 467 m 467 604 q 532 672 510 634 q 554 764 554 709 q 534 830 554 805 q 473 855 514 855 q 437 850 454 855 q 409 835 421 845 q 390 810 397 825 q 383 778 383 796 q 391 733 383 756 q 412 687 399 710 q 438 644 424 665 q 467 604 453 623 z "},"ቿ":{"ha":897,"x_min":-12,"x_max":880,"o":"m 334 49 l 406 487 l 233 477 q 192 366 230 399 q 86 333 154 333 q 70 333 77 333 q 52 335 62 334 l 52 347 q 95 446 95 393 q 87 493 95 469 l 86 509 l 413 527 l 451 748 l 304 740 q 253 678 294 699 q 139 653 211 656 l 137 664 q 164 710 154 686 q 175 759 175 734 q 164 803 175 783 q 128 838 154 823 l 130 849 q 186 856 155 856 q 229 851 209 856 q 264 837 249 847 q 290 813 280 827 q 302 778 300 798 l 699 802 q 750 864 711 843 q 854 886 789 886 l 857 886 l 858 874 q 838 792 838 831 q 847 745 838 767 q 880 707 856 722 l 880 696 q 823 690 852 690 q 782 693 802 690 q 745 706 762 697 q 717 728 728 715 q 701 762 705 742 l 576 755 l 538 534 l 836 551 q 831 515 833 529 q 829 494 829 500 q 836 444 829 468 q 861 396 844 419 l 862 385 q 805 376 825 376 q 761 383 781 376 q 725 405 741 390 q 701 445 710 420 q 692 503 692 469 l 530 493 l 459 56 l 760 71 q 751 7 751 41 q 759 -52 751 -23 q 784 -104 766 -81 l 785 -115 q 731 -124 749 -124 q 683 -115 705 -124 q 644 -88 661 -106 q 618 -45 627 -71 q 608 15 608 -19 l 608 23 l 176 2 q 165 -68 174 -38 q 136 -120 155 -99 q 86 -152 117 -141 q 14 -162 56 -162 q 1 -162 7 -162 q -12 -161 -5 -162 l -12 -149 q 20 -96 9 -126 q 31 -34 31 -66 q 30 -7 31 -20 q 24 18 28 5 l 22 33 l 334 49 z "},"ኀ":{"ha":733,"x_min":37,"x_max":686,"o":"m 474 612 q 525 618 500 615 q 573 623 551 621 q 613 626 595 625 q 642 627 631 627 q 675 613 664 627 q 686 576 686 599 q 683 553 686 561 q 667 477 676 519 q 647 388 657 434 q 626 295 636 341 q 607 208 616 248 q 592 137 598 168 q 583 91 585 106 q 582 82 582 85 q 581 75 581 79 q 593 44 581 54 q 633 31 605 33 l 632 5 q 596 0 614 3 q 561 -4 578 -2 q 529 -7 543 -5 q 504 -8 514 -8 q 461 6 473 -8 q 448 43 448 21 q 450 67 448 55 q 464 138 454 93 q 486 238 473 183 q 511 352 498 292 q 534 465 524 411 q 539 492 537 479 q 542 518 542 506 q 531 555 542 541 q 488 570 520 570 q 443 567 471 570 q 385 562 416 564 q 357 567 365 560 q 349 591 349 573 q 351 618 349 600 q 355 657 353 635 l 226 644 q 219 576 228 608 q 192 523 210 545 q 148 488 174 500 q 87 475 121 475 q 37 482 58 475 q 66 546 56 516 q 77 614 77 576 q 76 635 77 625 q 73 658 75 646 l 75 666 l 359 694 q 366 748 363 724 q 368 781 368 772 q 319 825 368 821 l 319 850 q 357 857 338 854 q 395 863 377 861 q 428 867 413 866 q 450 869 442 869 q 487 859 476 869 q 497 826 497 848 q 494 790 497 814 q 488 736 492 766 q 481 674 485 707 q 474 612 477 642 z "},"ኁ":{"ha":987,"x_min":37,"x_max":970,"o":"m 474 612 q 525 618 500 615 q 573 623 551 621 q 613 626 595 625 q 642 627 631 627 q 675 613 664 627 q 686 576 686 599 q 683 553 686 561 q 670 495 677 527 q 655 426 663 463 l 939 450 q 934 421 935 436 q 932 392 932 406 q 941 330 932 361 q 968 275 950 298 l 970 264 q 912 253 935 253 q 864 262 886 253 q 825 290 842 271 q 798 335 808 308 q 789 397 789 361 l 646 385 l 626 292 q 611 227 618 258 q 598 169 604 195 q 589 122 593 142 q 583 91 585 102 q 582 82 582 85 q 581 75 581 79 q 593 44 581 54 q 633 31 605 33 l 632 5 q 596 0 614 3 q 561 -4 578 -2 q 529 -7 543 -5 q 504 -8 514 -8 q 461 6 473 -8 q 448 43 448 21 q 450 67 448 55 q 464 138 454 93 q 486 238 473 183 q 511 352 498 292 q 534 465 524 411 q 539 492 537 479 q 542 518 542 506 q 531 555 542 541 q 488 570 520 570 q 443 567 471 570 q 385 562 416 564 q 357 567 365 560 q 349 591 349 573 q 351 618 349 600 q 355 657 353 635 l 226 644 q 219 576 228 608 q 192 523 210 545 q 148 488 174 500 q 87 475 121 475 q 37 482 58 475 q 66 546 56 516 q 77 614 77 576 q 76 635 77 625 q 73 658 75 646 l 75 666 l 359 694 q 366 748 363 724 q 368 781 368 772 q 319 825 368 821 l 319 850 q 357 857 338 854 q 395 863 377 861 q 428 867 413 866 q 450 869 442 869 q 487 859 476 869 q 497 826 497 848 q 494 790 497 814 q 488 736 492 766 q 481 674 485 707 q 474 612 477 642 z "},"ኂ":{"ha":868,"x_min":37,"x_max":848,"o":"m 452 -14 q 406 0 419 -15 q 393 37 393 16 q 394 45 393 39 q 396 61 395 52 q 418 133 403 87 q 453 235 434 179 q 493 351 473 291 q 530 465 513 411 q 538 494 534 479 q 541 522 541 509 q 530 556 541 542 q 488 570 519 570 q 443 567 471 570 q 385 562 416 564 q 357 567 365 560 q 349 591 349 573 q 351 618 349 600 q 355 657 353 635 l 226 644 q 219 576 228 608 q 192 523 210 545 q 148 488 174 500 q 87 475 121 475 q 37 482 58 475 q 66 546 56 516 q 77 614 77 576 q 76 635 77 625 q 73 658 75 646 l 75 666 l 359 694 q 366 748 363 724 q 368 781 368 772 q 319 825 368 821 l 319 850 q 357 857 338 854 q 395 863 377 861 q 428 867 413 866 q 450 869 442 869 q 487 859 476 869 q 497 826 497 848 q 494 790 497 814 q 488 736 492 766 q 481 674 485 707 q 474 612 477 642 q 528 618 501 615 q 577 623 554 621 q 618 626 600 625 q 648 627 637 627 q 683 612 671 627 q 694 578 694 597 q 690 553 694 565 q 665 477 679 520 q 635 387 650 434 l 604 294 q 582 229 592 260 q 562 170 571 197 q 547 122 553 143 q 538 91 541 102 q 536 78 537 85 q 534 66 534 71 q 540 47 534 54 q 559 41 545 41 q 579 41 567 41 q 606 43 591 42 q 635 45 620 44 q 665 47 651 46 q 712 110 675 87 q 817 136 749 133 l 819 121 q 804 86 809 106 q 798 47 798 67 q 810 -10 798 16 q 848 -50 822 -37 l 846 -64 q 818 -70 833 -68 q 788 -71 803 -71 q 748 -67 768 -71 q 711 -53 728 -62 q 682 -29 694 -44 q 665 7 670 -14 q 533 -9 583 -5 q 452 -14 482 -14 z "},"ኃ":{"ha":750,"x_min":20,"x_max":711,"o":"m 56 143 q 175 156 114 146 q 294 184 236 166 q 405 230 353 202 q 495 297 456 258 q 557 389 534 337 q 580 508 580 441 q 568 554 580 538 q 524 570 557 570 q 479 567 507 570 q 420 562 452 564 q 393 567 401 560 q 385 591 385 573 q 387 618 385 600 q 391 657 389 635 l 262 644 q 255 576 264 608 q 228 523 246 545 q 183 488 210 500 q 123 475 157 475 q 73 482 94 475 q 102 546 92 516 q 113 614 113 576 q 112 635 113 625 q 109 658 111 646 l 111 666 l 395 694 q 401 748 399 724 q 404 781 404 772 q 355 825 404 821 l 355 850 q 393 857 374 854 q 431 863 413 861 q 464 867 449 866 q 486 869 478 869 q 523 859 512 869 q 533 826 533 848 q 530 790 533 814 q 524 736 528 766 q 517 674 521 707 q 510 612 513 642 q 602 622 563 618 q 663 626 642 626 q 689 618 680 626 q 703 598 699 610 q 709 571 708 586 q 711 542 711 556 q 673 367 711 441 q 568 242 635 294 q 407 159 500 191 q 201 111 313 127 q 202 98 202 104 q 203 85 203 92 q 193 13 203 43 q 167 -37 184 -17 q 127 -67 151 -57 q 77 -77 104 -77 q 20 -67 54 -77 q 53 -4 42 -39 q 64 68 64 31 q 54 137 64 103 l 56 143 z "},"ኄ":{"ha":918,"x_min":37,"x_max":891,"o":"m 450 67 q 464 138 454 93 q 486 238 473 183 q 511 352 498 292 q 534 465 524 411 q 539 492 537 479 q 542 518 542 506 q 531 555 542 541 q 488 570 520 570 q 443 567 471 570 q 385 562 416 564 q 357 567 365 560 q 349 591 349 573 q 351 618 349 600 q 355 657 353 635 l 226 644 q 219 576 228 608 q 192 523 210 545 q 148 488 174 500 q 87 475 121 475 q 37 482 58 475 q 66 546 56 516 q 77 614 77 576 q 76 635 77 625 q 73 658 75 646 l 75 666 l 359 694 q 366 748 363 724 q 368 781 368 772 q 319 825 368 821 l 319 850 q 357 857 338 854 q 395 863 377 861 q 428 867 413 866 q 450 869 442 869 q 487 859 476 869 q 497 826 497 848 q 494 790 497 814 q 488 736 492 766 q 481 674 485 707 q 474 612 477 642 q 525 618 500 615 q 573 623 551 621 q 613 626 595 625 q 642 627 631 627 q 675 613 664 627 q 686 576 686 599 q 683 553 686 561 q 669 488 677 524 l 652 411 q 634 331 643 372 q 616 252 625 290 q 707 268 667 261 q 781 274 747 274 q 861 248 831 274 q 891 173 891 222 q 877 97 891 129 q 838 45 863 66 q 782 15 814 25 q 715 5 750 5 q 687 6 701 5 q 660 11 673 7 q 620 4 644 7 q 573 -2 597 1 q 528 -6 549 -4 q 495 -7 507 -7 q 456 7 467 -7 q 448 46 446 22 q 449 57 448 52 q 450 67 449 62 m 600 169 q 594 137 596 151 q 590 111 591 123 q 591 80 589 93 q 602 60 593 68 q 624 48 610 52 q 661 44 639 44 q 707 54 687 44 q 740 79 727 63 q 760 117 753 96 q 767 164 767 139 q 752 210 767 195 q 702 225 736 225 q 661 222 684 225 q 609 214 637 219 l 600 169 z "},"ኅ":{"ha":715,"x_min":41,"x_max":667,"o":"m 456 612 q 507 618 481 615 q 555 623 532 621 q 595 626 577 625 q 623 627 613 627 q 656 613 646 627 q 667 576 667 599 q 665 553 667 561 q 648 477 658 519 q 628 388 639 434 q 608 295 618 341 q 589 208 597 248 q 573 137 580 168 q 565 91 567 106 q 563 82 564 85 q 563 75 563 79 q 574 44 562 54 q 615 31 587 33 l 614 5 q 578 0 596 3 q 542 -4 559 -2 q 510 -7 525 -5 q 486 -8 496 -8 q 443 6 455 -8 q 430 43 430 21 q 432 67 430 55 q 446 138 436 93 q 467 238 455 183 q 492 352 479 292 q 516 465 505 411 q 521 492 519 479 q 524 518 524 506 q 513 555 524 541 q 470 570 502 570 q 425 567 452 570 q 366 562 397 564 q 339 567 347 560 q 331 591 331 573 q 332 615 331 601 q 335 647 334 630 q 339 683 337 665 q 344 718 342 701 q 269 702 300 716 q 217 660 237 688 q 187 589 197 632 q 177 487 177 547 l 41 473 q 63 585 41 534 q 125 672 85 635 q 223 731 166 709 q 349 758 279 753 q 350 765 349 762 q 350 771 350 768 l 350 781 q 301 825 350 821 l 301 850 q 339 857 319 854 q 377 863 359 861 q 409 867 395 866 q 432 869 424 869 q 468 859 458 869 q 479 826 479 848 q 476 790 479 814 q 470 736 473 766 q 463 674 467 707 q 456 612 458 642 z "}}}
